<svg width="38" height="38" viewBox="0 0 38 38" fill="none" xmlns="http://www.w3.org/2000/svg">
<g id="PolygonBadge">
<rect x="0.414551" y="0.414551" width="36.8291" height="36.8291" rx="18.4145" fill="#52B69A"/>
<g id="face">
<mask id="mask0_8427_841" style="mask-type:alpha" maskUnits="userSpaceOnUse" x="9" y="9" width="20" height="20">
<rect id="Bounding box" x="9" y="9" width="20" height="20" fill="#D9D9D9"/>
</mask>
<g mask="url(#mask0_8427_841)">
<path id="face_2" d="M16.4998 20.8751C16.2082 20.8751 15.9616 20.7744 15.7603 20.573C15.5589 20.3716 15.4582 20.1251 15.4582 19.8334C15.4582 19.5417 15.5589 19.2952 15.7603 19.0938C15.9616 18.8924 16.2082 18.7917 16.4998 18.7917C16.7915 18.7917 17.038 18.8924 17.2394 19.0938C17.4408 19.2952 17.5415 19.5417 17.5415 19.8334C17.5415 20.1251 17.4408 20.3716 17.2394 20.573C17.038 20.7744 16.7915 20.8751 16.4998 20.8751ZM21.4998 20.8751C21.2082 20.8751 20.9616 20.7744 20.7603 20.573C20.5589 20.3716 20.4582 20.1251 20.4582 19.8334C20.4582 19.5417 20.5589 19.2952 20.7603 19.0938C20.9616 18.8924 21.2082 18.7917 21.4998 18.7917C21.7915 18.7917 22.038 18.8924 22.2394 19.0938C22.4408 19.2952 22.5415 19.5417 22.5415 19.8334C22.5415 20.1251 22.4408 20.3716 22.2394 20.573C22.038 20.7744 21.7915 20.8751 21.4998 20.8751ZM18.9998 25.6667C20.8609 25.6667 22.4373 25.0209 23.729 23.7292C25.0207 22.4376 25.6665 20.8612 25.6665 19.0001C25.6665 18.6667 25.6457 18.3438 25.604 18.0313C25.5623 17.7188 25.4859 17.4167 25.3748 17.1251C25.0832 17.1945 24.7915 17.2466 24.4998 17.2813C24.2082 17.3161 23.9026 17.3334 23.5832 17.3334C22.3193 17.3334 21.1248 17.0626 19.9998 16.5209C18.8748 15.9792 17.9165 15.2223 17.1248 14.2501C16.6804 15.3334 16.045 16.2744 15.2186 17.073C14.3922 17.8716 13.4304 18.4723 12.3332 18.8751V19.0001C12.3332 20.8612 12.979 22.4376 14.2707 23.7292C15.5623 25.0209 17.1387 25.6667 18.9998 25.6667ZM18.9998 27.3334C17.8471 27.3334 16.7637 27.1147 15.7498 26.6772C14.7359 26.2397 13.854 25.6459 13.104 24.8959C12.354 24.1459 11.7603 23.264 11.3228 22.2501C10.8853 21.2362 10.6665 20.1529 10.6665 19.0001C10.6665 17.8473 10.8853 16.764 11.3228 15.7501C11.7603 14.7362 12.354 13.8542 13.104 13.1042C13.854 12.3542 14.7359 11.7605 15.7498 11.323C16.7637 10.8855 17.8471 10.6667 18.9998 10.6667C20.1526 10.6667 21.2359 10.8855 22.2498 11.323C23.2637 11.7605 24.1457 12.3542 24.8957 13.1042C25.6457 13.8542 26.2394 14.7362 26.6769 15.7501C27.1144 16.764 27.3332 17.8473 27.3332 19.0001C27.3332 20.1529 27.1144 21.2362 26.6769 22.2501C26.2394 23.264 25.6457 24.1459 24.8957 24.8959C24.1457 25.6459 23.2637 26.2397 22.2498 26.6772C21.2359 27.1147 20.1526 27.3334 18.9998 27.3334Z" fill="white"/>
</g>
</g>
</g>
</svg>
