<svg aria-hidden="true" style="position: absolute; width: 0; height: 0; overflow: hidden;"
     version="1.1" xmlns="http://www.w3.org/2000/svg" xmlns:xlink="http://www.w3.org/1999/xlink">
    <defs>
        <symbol id="icon-app-logo" fill="currentColor" viewBox="0 0 56 56">
                <path fill-rule="evenodd" clip-rule="evenodd" d="M25.2069 51.6928C12.9085 49.2329 4.05581 38.4347 4.05585 25.8926V17.3458C4.05585 9.99064 10.0184 4.02808 17.3736 4.02808H38.6821C46.0371 4.02808 52 9.99064 52 17.3458V25.8925C51.9996 38.4344 43.1475 49.2326 30.8494 51.6924H30.8487C28.9866 52.0652 27.0691 52.0652 25.2069 51.6928Z" fill="white"/>
                <path fill-rule="evenodd" clip-rule="evenodd" d="M20.0374 23.8484C20.8592 23.8484 21.5255 24.5146 21.5255 25.3365V33.3271C21.5255 34.149 20.8592 34.8152 20.0374 34.8152C19.2155 34.8152 18.5493 34.149 18.5493 33.3271V25.3365C18.5493 24.5146 19.2155 23.8484 20.0374 23.8484Z" fill="#202020"/>
                <path fill-rule="evenodd" clip-rule="evenodd" d="M28.0282 23.6262C28.8501 23.6262 29.5163 24.2925 29.5163 25.1143V33.327C29.5163 34.1488 28.8501 34.8151 28.0282 34.8151C27.2064 34.8151 26.5401 34.1488 26.5401 33.327V25.1143C26.5401 24.2925 27.2064 23.6262 28.0282 23.6262Z" fill="#202020"/>
                <path fill-rule="evenodd" clip-rule="evenodd" d="M28.0226 15.8574L28.0282 15.8574C33.2633 15.8574 37.5069 20.1013 37.5069 25.3362V33.3269C37.5069 34.1488 36.8407 34.815 36.0188 34.815C35.1969 34.815 34.5307 34.1488 34.5307 33.3269V25.3362C34.5307 21.7459 31.621 18.8352 28.031 18.8337C26.8437 18.8387 25.6809 19.1722 24.6715 19.7974C23.9728 20.2302 23.0556 20.0146 22.6228 19.3159C22.1901 18.6172 22.4056 17.7 23.1043 17.2672C24.582 16.352 26.2845 15.864 28.0226 15.8574Z" fill="#202020"/>
        </symbol>
        <symbol id="icon-header-button" fill="currentColor" viewBox="0 0 24 24">
        <path fill-rule="evenodd" clip-rule="evenodd" d="M10.803 22.1541C5.53223 21.0998 1.73823 16.472 1.73825 11.0968V7.43393C1.73825 4.2817 4.29364 1.72632 7.44586 1.72632H16.5781C19.7302 1.72632 22.2857 4.2817 22.2857 7.43393V11.0968C22.2856 16.4719 18.4918 21.0997 13.2212 22.1539H13.2209C12.4228 22.3137 11.6011 22.3137 10.803 22.1541Z" fill="#52B69A"/>
        <path fill-rule="evenodd" clip-rule="evenodd" d="M8.58726 10.2207C8.93949 10.2207 9.22503 10.5062 9.22503 10.8585V14.283C9.22503 14.6352 8.93949 14.9208 8.58726 14.9208C8.23503 14.9208 7.94949 14.6352 7.94949 14.283V10.8585C7.94949 10.5062 8.23503 10.2207 8.58726 10.2207Z" fill="white"/>
        <path fill-rule="evenodd" clip-rule="evenodd" d="M12.0119 10.1255C12.3641 10.1255 12.6496 10.411 12.6496 10.7633V14.2829C12.6496 14.6352 12.3641 14.9207 12.0119 14.9207C11.6596 14.9207 11.3741 14.6352 11.3741 14.2829V10.7633C11.3741 10.411 11.6596 10.1255 12.0119 10.1255Z" fill="white"/>
        <path fill-rule="evenodd" clip-rule="evenodd" d="M12.0094 6.7959L12.0118 6.7959C14.2554 6.7959 16.0741 8.61469 16.0741 10.8582V14.2828C16.0741 14.635 15.7885 14.9206 15.4363 14.9206C15.0841 14.9206 14.7985 14.635 14.7985 14.2828V10.8582C14.7985 9.31952 13.5515 8.07208 12.013 8.07143C11.5041 8.07357 11.0058 8.21653 10.5732 8.48447C10.2737 8.66994 9.88062 8.57755 9.69515 8.2781C9.50968 7.97866 9.60208 7.58556 9.90152 7.40009C10.5348 7.00784 11.2644 6.79871 12.0094 6.7959Z" fill="white"/>
        </symbol>
        <symbol id="icon-hero-section-button" fill="currentColor" viewBox="0 0 24 24">
        <path fill-rule="evenodd" clip-rule="evenodd" d="M10.803 22.1541C5.53226 21.0998 1.73827 16.472 1.73828 11.0968V7.43393C1.73828 4.2817 4.29367 1.72632 7.44589 1.72632H16.5781C19.7302 1.72632 22.2858 4.2817 22.2858 7.43393V11.0968C22.2856 16.4719 18.4919 21.0997 13.2212 22.1539H13.2209C12.4229 22.3137 11.6011 22.3137 10.803 22.1541Z" fill="white"/>
        <path fill-rule="evenodd" clip-rule="evenodd" d="M8.58747 10.2206C8.9397 10.2206 9.22524 10.5061 9.22524 10.8583V14.2829C9.22524 14.6351 8.9397 14.9207 8.58747 14.9207C8.23524 14.9207 7.94971 14.6351 7.94971 14.2829V10.8583C7.94971 10.5061 8.23524 10.2206 8.58747 10.2206Z" fill="#52B69A"/>
        <path fill-rule="evenodd" clip-rule="evenodd" d="M12.012 10.1254C12.3643 10.1254 12.6498 10.4109 12.6498 10.7631V14.2828C12.6498 14.6351 12.3643 14.9206 12.012 14.9206C11.6598 14.9206 11.3743 14.6351 11.3743 14.2828V10.7631C11.3743 10.4109 11.6598 10.1254 12.012 10.1254Z" fill="#52B69A"/>
        <path fill-rule="evenodd" clip-rule="evenodd" d="M12.0095 6.7959L12.0119 6.7959C14.2555 6.7959 16.0742 8.61469 16.0742 10.8582V14.2828C16.0742 14.635 15.7886 14.9206 15.4364 14.9206C15.0842 14.9206 14.7986 14.635 14.7986 14.2828V10.8582C14.7986 9.31952 13.5516 8.07208 12.0131 8.07143C11.5042 8.07357 11.0059 8.21653 10.5733 8.48447C10.2738 8.66994 9.88074 8.57755 9.69527 8.2781C9.5098 7.97866 9.6022 7.58556 9.90164 7.40009C10.5349 7.00784 11.2646 6.79871 12.0095 6.7959Z" fill="#52B69A"/>
        </symbol>
        <symbol id="icon-hero-install-section-icon" fill="currentColor" viewBox="0 0 57 57">
        <path fill-rule="evenodd" clip-rule="evenodd" d="M26.5122 50.23C15.7493 48.0773 8.00192 38.6273 8.00195 27.651V20.1714C8.00195 13.7345 13.2201 8.51636 19.657 8.51636H38.305C44.7417 8.51636 49.9601 13.7345 49.9601 20.1714V27.651C49.9598 38.6269 42.2129 48.0769 31.4502 50.2297H31.4497C29.82 50.5559 28.1419 50.5559 26.5122 50.23Z" fill="#52B69A"/>
        <path fill-rule="evenodd" clip-rule="evenodd" d="M21.9879 25.8621C22.7071 25.8621 23.2902 26.4451 23.2902 27.1644V34.1574C23.2902 34.8766 22.7071 35.4597 21.9879 35.4597C21.2686 35.4597 20.6855 34.8766 20.6855 34.1574V27.1644C20.6855 26.4451 21.2686 25.8621 21.9879 25.8621Z" fill="white"/>
        <path fill-rule="evenodd" clip-rule="evenodd" d="M28.981 25.6677C29.7003 25.6677 30.2834 26.2508 30.2834 26.9701V34.1573C30.2834 34.8765 29.7003 35.4596 28.981 35.4596C28.2618 35.4596 27.6787 34.8765 27.6787 34.1573V26.9701C27.6787 26.2508 28.2618 25.6677 28.981 25.6677Z" fill="white"/>
        <path fill-rule="evenodd" clip-rule="evenodd" d="M28.9762 18.8689L28.9811 18.8689C33.5625 18.8689 37.2763 22.5829 37.2763 27.1643V34.1573C37.2763 34.8765 36.6932 35.4596 35.974 35.4596C35.2547 35.4596 34.6717 34.8765 34.6717 34.1573V27.1643C34.6717 24.0222 32.1253 21.4749 28.9835 21.4735C27.9445 21.4779 26.9268 21.7698 26.0434 22.317C25.432 22.6957 24.6292 22.507 24.2505 21.8956C23.8718 21.2841 24.0605 20.4814 24.6719 20.1027C25.9651 19.3017 27.455 18.8746 28.9762 18.8689Z" fill="white"/>
        </symbol>
        <symbol id="icon-logo-metamask" fill="currentColor" viewBox="0 0 16 14">
        <path d="M14.6932 0L8.89209 4.3266L9.96486 1.77397L14.6932 0Z" fill="#E2761B"/>
        <path d="M1.30114 0L7.05562 4.36758L6.03533 1.77397L1.30114 0ZM12.606 10.029L11.061 12.406L14.3668 13.3194L15.3171 10.0817L12.606 10.029ZM0.688965 10.0817L1.63347 13.3194L4.93924 12.406L3.39421 10.029L0.688965 10.0817Z" fill="#E4761B"/>
        <path d="M4.75224 6.01277L3.83105 7.41203L7.1135 7.5584L6.99689 4.01632L4.75224 6.01277ZM11.2413 6.01277L8.96753 3.97534L8.89173 7.5584L12.1683 7.41203L11.2413 6.01277ZM4.93881 12.4061L6.90944 11.44L5.207 10.1052L4.93881 12.4061ZM9.08413 11.44L11.0606 12.4061L10.7866 10.1052L9.08413 11.44Z" fill="#E4761B"/>
        <path d="M11.0612 12.406L9.08478 11.4399L9.2422 12.7338L9.2247 13.2783L11.0612 12.406ZM4.93945 12.406L6.77599 13.2783L6.76433 12.7338L6.91009 11.4399L4.93945 12.406Z" fill="#D7C1B3"/>
        <path d="M6.80478 9.2504L5.16064 8.76446L6.32087 8.23169L6.80478 9.2504ZM9.18936 9.2504L9.67328 8.23169L10.8393 8.76446L9.18936 9.2504Z" fill="#233447"/>
        <path d="M4.93907 12.4061L5.21892 10.0291L3.39404 10.0818L4.93907 12.4061ZM10.781 10.0291L11.0609 12.4061L12.6059 10.0818L10.781 10.0291ZM12.1686 7.41211L8.89199 7.55848L9.19517 9.25048L9.67908 8.23176L10.8451 8.76454L12.1686 7.41211ZM5.16062 8.76454L6.32667 8.23176L6.80475 9.25048L7.11376 7.55848L3.83131 7.41211L5.16062 8.76454Z" fill="#CD6116"/>
        <path d="M3.83105 7.41211L5.207 10.1053L5.16036 8.76454L3.83105 7.41211ZM10.8449 8.76454L10.7866 10.1053L12.1683 7.41211L10.8449 8.76454ZM7.1135 7.55848L6.80449 9.25048L7.18929 11.2469L7.27675 8.61817L7.1135 7.55848ZM8.89173 7.55848L8.73431 8.61232L8.80428 11.2469L9.19491 9.25048L8.89173 7.55848Z" fill="#E4751F"/>
        <path d="M9.1952 9.25034L8.80457 11.2468L9.08442 11.44L10.7869 10.1051L10.8452 8.7644L9.1952 9.25034ZM5.16064 8.7644L5.20729 10.1051L6.90973 11.44L7.18958 11.2468L6.80478 9.25034L5.16064 8.7644Z" fill="#F6851B"/>
        <path d="M9.2247 13.2784L9.2422 12.7339L9.09644 12.6051H6.89842L6.76433 12.7339L6.77599 13.2784L4.93945 12.406L5.58078 12.9329L6.88093 13.8404H9.11393L10.4199 12.9329L11.0612 12.406L9.2247 13.2784Z" fill="#C0AD9E"/>
        <path d="M9.08412 11.44L8.80427 11.2468H7.18928L6.90943 11.44L6.76367 12.7339L6.89777 12.6051H9.09578L9.24154 12.7339L9.08412 11.44Z" fill="#131313" fill-opacity="0.67"/>
        <path d="M14.938 4.60763L15.4336 2.21892L14.6932 0L9.08444 4.18023L11.2416 6.01275L14.2909 6.90851L14.9672 6.11813L14.6757 5.90736L15.1421 5.47997L14.7806 5.19895L15.247 4.84181L14.938 4.60763ZM0.566406 2.21892L1.06198 4.60763L0.747145 4.84181L1.21357 5.19895L0.85792 5.47997L1.32434 5.90736L1.03283 6.11813L1.70331 6.90851L4.75254 6.01275L6.90975 4.18023L1.30102 0L0.566406 2.21892Z" fill="#763D16"/>
        <path d="M14.291 6.90847L11.2418 6.01271L12.1688 7.41197L10.787 10.1051L12.606 10.0817H15.3171L14.291 6.90847ZM4.75267 6.01271L1.70343 6.90847L0.688965 10.0817H3.39421L5.20743 10.1051L3.83148 7.41197L4.75267 6.01271ZM8.89216 7.55834L9.08456 4.18019L9.97076 1.77393H6.03533L6.90987 4.18019L7.11393 7.55834L7.18389 8.62389L7.18972 11.2468H8.80471L8.81637 8.62389L8.89216 7.55834Z" fill="#F6851B"/>
        </symbol>
        <symbol id="icon-eye" fill="currentColor" viewBox="0 0 24 23">
            <path d="M11.817 4.42993C7.10158 4.42993 3.07464 7.3629 1.44312 11.503C3.07464 15.6431 7.10158 18.5761 11.817 18.5761C16.5323 18.5761 20.5593 15.6431 22.1908 11.503C20.5593 7.3629 16.5323 4.42993 11.817 4.42993ZM11.817 16.2184C9.21407 16.2184 7.10158 14.1059 7.10158 11.503C7.10158 8.90012 9.21407 6.78762 11.817 6.78762C14.4199 6.78762 16.5323 8.90012 16.5323 11.503C16.5323 14.1059 14.4199 16.2184 11.817 16.2184ZM11.817 8.67378C10.2515 8.67378 8.98773 9.9375 8.98773 11.503C8.98773 13.0685 10.2515 14.3322 11.817 14.3322C13.3825 14.3322 14.6462 13.0685 14.6462 11.503C14.6462 9.9375 13.3825 8.67378 11.817 8.67378Z" fill="#242629"/>
        </symbol>
        <symbol id="icon-bold" fill="currentColor" viewBox="0 0 24 23">
            <path d="M8.04428 20.9743L8.98736 14.3728H4.27197L12.7597 2.11279H14.6458L13.7027 9.65741H19.3612L9.93044 20.9743H8.04428Z" fill="#242629"/>
        </symbol>



    </defs>
</svg>
