<svg aria-hidden="true" style="position: absolute; width: 0; height: 0; overflow: hidden;"
     version="1.1" xmlns="http://www.w3.org/2000/svg" xmlns:xlink="http://www.w3.org/1999/xlink">
    <defs>
        <symbol id="icon-app-logo" fill="currentColor" viewBox="0 0 182 48">
            <path fill-rule="evenodd" clip-rule="evenodd" d="M3.47644 22.1937C3.47641 32.9441 11.0644 42.1997 21.6059 44.3081C23.2021 44.6273 24.8456 44.6273 26.4418 44.3078H26.4423C36.9836 42.1993 44.5711 32.9438 44.5714 22.1936V14.8679C44.5714 8.56341 39.4604 3.45264 33.156 3.45264H14.8917C8.58721 3.45264 3.47644 8.56341 3.47644 14.8679V22.1937ZM18.4501 21.7169C18.4501 21.0125 17.879 20.4414 17.1746 20.4414C16.4701 20.4414 15.899 21.0125 15.899 21.7169V28.566C15.899 29.2705 16.4701 29.8416 17.1746 29.8416C17.879 29.8416 18.4501 29.2705 18.4501 28.566V21.7169ZM24.0241 20.2515C24.7286 20.2515 25.2997 20.8225 25.2997 21.527V28.5664C25.2997 29.2708 24.7286 29.8419 24.0241 29.8419C23.3197 29.8419 22.7486 29.2708 22.7486 28.5664V21.527C22.7486 20.8225 23.3197 20.2515 24.0241 20.2515ZM24.0242 13.5923L24.0194 13.5923C22.5295 13.5979 21.0703 14.0162 19.8037 14.8007C19.2048 15.1716 19.02 15.9578 19.391 16.5567C19.7619 17.1556 20.5481 17.3404 21.147 16.9694C22.0122 16.4335 23.0089 16.1476 24.0266 16.1434C27.1037 16.1446 29.5977 18.6395 29.5977 21.717V28.5661C29.5977 29.2706 30.1688 29.8416 30.8732 29.8416C31.5777 29.8416 32.1488 29.2706 32.1488 28.5661V21.717C32.1488 17.2299 28.5114 13.5923 24.0242 13.5923Z" fill="white"/>
            <path d="M60.7408 38.2904V24.5855C60.7408 21.6784 61.4745 19.5742 62.9419 18.273C64.4093 16.944 66.6381 16.2795 69.6282 16.2795H72.9091V20.0172H70.8741C68.9638 20.0172 67.6071 20.4879 66.8042 21.4292C66.0013 22.3706 65.5998 23.8518 65.5998 25.8729V38.2904H60.7408Z" fill="white"/>
            <path d="M74.958 16.2795H87.4585C89.4796 16.2795 91.0162 16.8748 92.0683 18.0653C93.1204 19.2558 93.6465 20.8201 93.6465 22.7582V34.5527C93.6465 37.0445 92.4006 38.2904 89.9088 38.2904H78.8203C75.1657 38.2904 73.3384 36.0062 73.3384 31.4379C73.3384 29.3061 73.7952 27.631 74.7088 26.4128C75.6225 25.1946 76.993 24.5855 78.8203 24.5855H88.7875V23.1735C88.7875 21.0693 87.7631 20.0172 85.7143 20.0172H74.958V16.2795ZM88.7875 28.3232H80.6891C79.1387 28.3232 78.3635 29.3614 78.3635 31.4379C78.3635 33.5144 79.1387 34.5527 80.6891 34.5527H87.5416C88.3722 34.5527 88.7875 34.1374 88.7875 33.3068V28.3232Z" fill="white"/>
            <path d="M97.4851 38.2904V24.5855C97.4851 21.6784 98.2188 19.5742 99.6861 18.273C101.154 16.944 103.382 16.2795 106.372 16.2795H109.653V20.0172H107.618C105.708 20.0172 104.351 20.4879 103.548 21.4292C102.746 22.3706 102.344 23.8518 102.344 25.8729V38.2904H97.4851Z" fill="white"/>
            <path d="M111.558 38.2904V16.2795H116.417V38.2904H111.558ZM116.417 13.3724H111.558V8.88721H116.417V13.3724Z" fill="white"/>
            <path d="M150.513 15.7396L143.079 35.1341C142.58 36.38 142.054 37.2798 141.501 37.8335C140.947 38.3596 140.089 38.6226 138.926 38.6226C137.763 38.6226 136.905 38.3596 136.351 37.8335C135.797 37.2798 135.271 36.38 134.773 35.1341L127.339 15.7396C127.09 15.1028 126.854 14.7844 126.633 14.7844C126.328 14.7844 126.176 15.0752 126.176 15.6566L126.301 38.2904H120.819V12.708C120.819 10.1608 122.383 8.88721 125.512 8.88721C127.007 8.88721 128.114 9.2056 128.834 9.84239C129.554 10.4792 130.149 11.4067 130.62 12.6249L138.137 32.0194C138.469 32.7392 138.732 33.0991 138.926 33.0991C139.12 33.0991 139.383 32.7392 139.715 32.0194L147.232 12.6249C147.702 11.4067 148.298 10.4792 149.017 9.84239C149.737 9.2056 150.845 8.88721 152.34 8.88721C155.468 8.88721 157.033 10.1608 157.033 12.708V38.2904H151.551L151.717 15.6566C151.717 15.0752 151.551 14.7844 151.219 14.7844C150.997 14.7844 150.762 15.1028 150.513 15.7396Z" fill="white"/>
            <path d="M181.294 38.2904H169.084C167.368 38.2904 165.942 38.055 164.807 37.5844C163.699 37.1137 162.855 36.38 162.273 35.3833C161.692 34.3589 161.29 33.2237 161.069 31.9778C160.875 30.7319 160.778 29.1538 160.778 27.2434C160.778 22.9797 161.581 20.0449 163.187 18.4391C164.82 16.8333 167.561 16.0303 171.41 16.0303C174.843 16.0303 177.459 16.6671 179.259 17.9407C181.086 19.1866 182 21.4569 182 24.7516C182 27.5203 180.865 28.9046 178.595 28.9046H165.803C165.803 30.815 166.108 32.2408 166.717 33.1822C167.354 34.0958 168.627 34.5527 170.538 34.5527H181.294V38.2904ZM165.803 25.1669H175.895C176.615 25.1669 176.975 24.7378 176.975 23.8795C176.975 22.5229 176.435 21.4984 175.355 20.8063C174.303 20.1141 172.988 19.768 171.41 19.768C169.361 19.768 167.908 20.1972 167.049 21.0555C166.219 21.8861 165.803 23.2565 165.803 25.1669Z" fill="white"/>
        </symbol>

        <symbol id="icon-header-button" fill="currentColor" viewBox="0 0 24 24">
        <path fill-rule="evenodd" clip-rule="evenodd" d="M10.803 22.1541C5.53223 21.0998 1.73823 16.472 1.73825 11.0968V7.43393C1.73825 4.2817 4.29364 1.72632 7.44586 1.72632H16.5781C19.7302 1.72632 22.2857 4.2817 22.2857 7.43393V11.0968C22.2856 16.4719 18.4918 21.0997 13.2212 22.1539H13.2209C12.4228 22.3137 11.6011 22.3137 10.803 22.1541Z" fill="#52B69A"/>
        <path fill-rule="evenodd" clip-rule="evenodd" d="M8.58726 10.2207C8.93949 10.2207 9.22503 10.5062 9.22503 10.8585V14.283C9.22503 14.6352 8.93949 14.9208 8.58726 14.9208C8.23503 14.9208 7.94949 14.6352 7.94949 14.283V10.8585C7.94949 10.5062 8.23503 10.2207 8.58726 10.2207Z" fill="white"/>
        <path fill-rule="evenodd" clip-rule="evenodd" d="M12.0119 10.1255C12.3641 10.1255 12.6496 10.411 12.6496 10.7633V14.2829C12.6496 14.6352 12.3641 14.9207 12.0119 14.9207C11.6596 14.9207 11.3741 14.6352 11.3741 14.2829V10.7633C11.3741 10.411 11.6596 10.1255 12.0119 10.1255Z" fill="white"/>
        <path fill-rule="evenodd" clip-rule="evenodd" d="M12.0094 6.7959L12.0118 6.7959C14.2554 6.7959 16.0741 8.61469 16.0741 10.8582V14.2828C16.0741 14.635 15.7885 14.9206 15.4363 14.9206C15.0841 14.9206 14.7985 14.635 14.7985 14.2828V10.8582C14.7985 9.31952 13.5515 8.07208 12.013 8.07143C11.5041 8.07357 11.0058 8.21653 10.5732 8.48447C10.2737 8.66994 9.88062 8.57755 9.69515 8.2781C9.50968 7.97866 9.60208 7.58556 9.90152 7.40009C10.5348 7.00784 11.2644 6.79871 12.0094 6.7959Z" fill="white"/>
        </symbol>

        <symbol id="icon-hero-section-button" fill="currentColor" viewBox="0 0 24 24">
        <path fill-rule="evenodd" clip-rule="evenodd" d="M10.803 22.1541C5.53226 21.0998 1.73827 16.472 1.73828 11.0968V7.43393C1.73828 4.2817 4.29367 1.72632 7.44589 1.72632H16.5781C19.7302 1.72632 22.2858 4.2817 22.2858 7.43393V11.0968C22.2856 16.4719 18.4919 21.0997 13.2212 22.1539H13.2209C12.4229 22.3137 11.6011 22.3137 10.803 22.1541Z" fill="white"/>
        <path fill-rule="evenodd" clip-rule="evenodd" d="M8.58747 10.2206C8.9397 10.2206 9.22524 10.5061 9.22524 10.8583V14.2829C9.22524 14.6351 8.9397 14.9207 8.58747 14.9207C8.23524 14.9207 7.94971 14.6351 7.94971 14.2829V10.8583C7.94971 10.5061 8.23524 10.2206 8.58747 10.2206Z" fill="#52B69A"/>
        <path fill-rule="evenodd" clip-rule="evenodd" d="M12.012 10.1254C12.3643 10.1254 12.6498 10.4109 12.6498 10.7631V14.2828C12.6498 14.6351 12.3643 14.9206 12.012 14.9206C11.6598 14.9206 11.3743 14.6351 11.3743 14.2828V10.7631C11.3743 10.4109 11.6598 10.1254 12.012 10.1254Z" fill="#52B69A"/>
        <path fill-rule="evenodd" clip-rule="evenodd" d="M12.0095 6.7959L12.0119 6.7959C14.2555 6.7959 16.0742 8.61469 16.0742 10.8582V14.2828C16.0742 14.635 15.7886 14.9206 15.4364 14.9206C15.0842 14.9206 14.7986 14.635 14.7986 14.2828V10.8582C14.7986 9.31952 13.5516 8.07208 12.0131 8.07143C11.5042 8.07357 11.0059 8.21653 10.5733 8.48447C10.2738 8.66994 9.88074 8.57755 9.69527 8.2781C9.5098 7.97866 9.6022 7.58556 9.90164 7.40009C10.5349 7.00784 11.2646 6.79871 12.0095 6.7959Z" fill="#52B69A"/>
        </symbol>

        <symbol id="icon-hero-install-section" fill="currentColor" viewBox="0 0 57 57">
        <path fill-rule="evenodd" clip-rule="evenodd" d="M26.5122 50.23C15.7493 48.0773 8.00192 38.6273 8.00195 27.651V20.1714C8.00195 13.7345 13.2201 8.51636 19.657 8.51636H38.305C44.7417 8.51636 49.9601 13.7345 49.9601 20.1714V27.651C49.9598 38.6269 42.2129 48.0769 31.4502 50.2297H31.4497C29.82 50.5559 28.1419 50.5559 26.5122 50.23Z" fill="#52B69A"/>
        <path fill-rule="evenodd" clip-rule="evenodd" d="M21.9879 25.8621C22.7071 25.8621 23.2902 26.4451 23.2902 27.1644V34.1574C23.2902 34.8766 22.7071 35.4597 21.9879 35.4597C21.2686 35.4597 20.6855 34.8766 20.6855 34.1574V27.1644C20.6855 26.4451 21.2686 25.8621 21.9879 25.8621Z" fill="white"/>
        <path fill-rule="evenodd" clip-rule="evenodd" d="M28.981 25.6677C29.7003 25.6677 30.2834 26.2508 30.2834 26.9701V34.1573C30.2834 34.8765 29.7003 35.4596 28.981 35.4596C28.2618 35.4596 27.6787 34.8765 27.6787 34.1573V26.9701C27.6787 26.2508 28.2618 25.6677 28.981 25.6677Z" fill="white"/>
        <path fill-rule="evenodd" clip-rule="evenodd" d="M28.9762 18.8689L28.9811 18.8689C33.5625 18.8689 37.2763 22.5829 37.2763 27.1643V34.1573C37.2763 34.8765 36.6932 35.4596 35.974 35.4596C35.2547 35.4596 34.6717 34.8765 34.6717 34.1573V27.1643C34.6717 24.0222 32.1253 21.4749 28.9835 21.4735C27.9445 21.4779 26.9268 21.7698 26.0434 22.317C25.432 22.6957 24.6292 22.507 24.2505 21.8956C23.8718 21.2841 24.0605 20.4814 24.6719 20.1027C25.9651 19.3017 27.455 18.8746 28.9762 18.8689Z" fill="white"/>
        </symbol>

        <symbol id="icon-logo-metamask" fill="currentColor" viewBox="0 0 16 14">
        <path d="M14.6932 0L8.89209 4.3266L9.96486 1.77397L14.6932 0Z" fill="#E2761B"/>
        <path d="M1.30114 0L7.05562 4.36758L6.03533 1.77397L1.30114 0ZM12.606 10.029L11.061 12.406L14.3668 13.3194L15.3171 10.0817L12.606 10.029ZM0.688965 10.0817L1.63347 13.3194L4.93924 12.406L3.39421 10.029L0.688965 10.0817Z" fill="#E4761B"/>
        <path d="M4.75224 6.01277L3.83105 7.41203L7.1135 7.5584L6.99689 4.01632L4.75224 6.01277ZM11.2413 6.01277L8.96753 3.97534L8.89173 7.5584L12.1683 7.41203L11.2413 6.01277ZM4.93881 12.4061L6.90944 11.44L5.207 10.1052L4.93881 12.4061ZM9.08413 11.44L11.0606 12.4061L10.7866 10.1052L9.08413 11.44Z" fill="#E4761B"/>
        <path d="M11.0612 12.406L9.08478 11.4399L9.2422 12.7338L9.2247 13.2783L11.0612 12.406ZM4.93945 12.406L6.77599 13.2783L6.76433 12.7338L6.91009 11.4399L4.93945 12.406Z" fill="#D7C1B3"/>
        <path d="M6.80478 9.2504L5.16064 8.76446L6.32087 8.23169L6.80478 9.2504ZM9.18936 9.2504L9.67328 8.23169L10.8393 8.76446L9.18936 9.2504Z" fill="#233447"/>
        <path d="M4.93907 12.4061L5.21892 10.0291L3.39404 10.0818L4.93907 12.4061ZM10.781 10.0291L11.0609 12.4061L12.6059 10.0818L10.781 10.0291ZM12.1686 7.41211L8.89199 7.55848L9.19517 9.25048L9.67908 8.23176L10.8451 8.76454L12.1686 7.41211ZM5.16062 8.76454L6.32667 8.23176L6.80475 9.25048L7.11376 7.55848L3.83131 7.41211L5.16062 8.76454Z" fill="#CD6116"/>
        <path d="M3.83105 7.41211L5.207 10.1053L5.16036 8.76454L3.83105 7.41211ZM10.8449 8.76454L10.7866 10.1053L12.1683 7.41211L10.8449 8.76454ZM7.1135 7.55848L6.80449 9.25048L7.18929 11.2469L7.27675 8.61817L7.1135 7.55848ZM8.89173 7.55848L8.73431 8.61232L8.80428 11.2469L9.19491 9.25048L8.89173 7.55848Z" fill="#E4751F"/>
        <path d="M9.1952 9.25034L8.80457 11.2468L9.08442 11.44L10.7869 10.1051L10.8452 8.7644L9.1952 9.25034ZM5.16064 8.7644L5.20729 10.1051L6.90973 11.44L7.18958 11.2468L6.80478 9.25034L5.16064 8.7644Z" fill="#F6851B"/>
        <path d="M9.2247 13.2784L9.2422 12.7339L9.09644 12.6051H6.89842L6.76433 12.7339L6.77599 13.2784L4.93945 12.406L5.58078 12.9329L6.88093 13.8404H9.11393L10.4199 12.9329L11.0612 12.406L9.2247 13.2784Z" fill="#C0AD9E"/>
        <path d="M9.08412 11.44L8.80427 11.2468H7.18928L6.90943 11.44L6.76367 12.7339L6.89777 12.6051H9.09578L9.24154 12.7339L9.08412 11.44Z" fill="#131313" fill-opacity="0.67"/>
        <path d="M14.938 4.60763L15.4336 2.21892L14.6932 0L9.08444 4.18023L11.2416 6.01275L14.2909 6.90851L14.9672 6.11813L14.6757 5.90736L15.1421 5.47997L14.7806 5.19895L15.247 4.84181L14.938 4.60763ZM0.566406 2.21892L1.06198 4.60763L0.747145 4.84181L1.21357 5.19895L0.85792 5.47997L1.32434 5.90736L1.03283 6.11813L1.70331 6.90851L4.75254 6.01275L6.90975 4.18023L1.30102 0L0.566406 2.21892Z" fill="#763D16"/>
        <path d="M14.291 6.90847L11.2418 6.01271L12.1688 7.41197L10.787 10.1051L12.606 10.0817H15.3171L14.291 6.90847ZM4.75267 6.01271L1.70343 6.90847L0.688965 10.0817H3.39421L5.20743 10.1051L3.83148 7.41197L4.75267 6.01271ZM8.89216 7.55834L9.08456 4.18019L9.97076 1.77393H6.03533L6.90987 4.18019L7.11393 7.55834L7.18389 8.62389L7.18972 11.2468H8.80471L8.81637 8.62389L8.89216 7.55834Z" fill="#F6851B"/>
        </symbol>

        <symbol id="icon-polygon" fill="currentColor" viewBox="0 0 49 49">
            <rect x="0.414551" y="0.414551" width="48" height="48" rx="24" fill="black"/>
            <mask id="mask0_8427_853" style="mask-type:alpha" maskUnits="userSpaceOnUse" x="11" y="11" width="27" height="27">
                <rect x="11.604" y="11.6042" width="26.0663" height="26.0664" fill="#D9D9D9"/>
            </mask>
            <g mask="url(#mask0_8427_853)">
                <path d="M23.4969 25.3978L21.9763 23.8773C21.7591 23.66 21.5057 23.5514 21.2161 23.5514C20.9264 23.5514 20.673 23.66 20.4558 23.8773C20.2386 24.0945 20.13 24.3524 20.13 24.6511C20.13 24.9498 20.2386 25.2077 20.4558 25.4249L22.7366 27.7329C22.9538 27.9501 23.2072 28.0587 23.4969 28.0587C23.7865 28.0587 24.0399 27.9501 24.2571 27.7329L28.8731 23.117C29.0903 22.8998 29.1989 22.6418 29.1989 22.3431C29.1989 22.0445 29.0903 21.7865 28.8731 21.5693C28.6558 21.3521 28.3979 21.2435 28.0992 21.2435C27.8005 21.2435 27.5426 21.3521 27.3254 21.5693L23.4969 25.3978ZM24.6373 35.3899C24.5106 35.3899 24.3929 35.3808 24.2843 35.3627C24.1757 35.3446 24.0671 35.3175 23.9585 35.2813C21.5147 34.4667 19.5688 32.9597 18.1207 30.7604C16.6726 28.561 15.9485 26.1943 15.9485 23.66V18.5282C15.9485 18.0757 16.0797 17.6684 16.3422 17.3064C16.6047 16.9443 16.9441 16.6819 17.3604 16.5189L23.877 14.0752C24.1304 13.9847 24.3838 13.9395 24.6373 13.9395C24.8907 13.9395 25.1441 13.9847 25.3975 14.0752L31.9141 16.5189C32.3305 16.6819 32.6699 16.9443 32.9323 17.3064C33.1948 17.6684 33.3261 18.0757 33.3261 18.5282V23.66C33.3261 26.1943 32.602 28.561 31.1539 30.7604C29.7057 32.9597 27.7598 34.4667 25.3161 35.2813C25.2075 35.3175 25.0989 35.3446 24.9903 35.3627C24.8816 35.3808 24.764 35.3899 24.6373 35.3899Z" fill="#D1FD51"/>
            </g>
        </symbol>

        <symbol id="icon-halborn" fill="none" viewBox="0 0 38 38">
            <g id="logos" filter="url(#filter0_dd_8427_857)">
                <rect x="6.46191" y="4.91919" width="24" height="24" rx="12" fill="#D1FD51" shape-rendering="crispEdges"/>
                <path id="Vector" d="M23.607 12L22.7536 15.8575H14.7764L15.6298 12H13.2367L11 22.1097H13.3932L14.7764 15.8575L16.6396 18.2524H22.2238L21.3702 22.1097H23.7634L26 12H23.607Z" fill="black"/>
                <rect x="6.96191" y="5.41919" width="23" height="23" rx="11.5" stroke="black" shape-rendering="crispEdges"/>
            </g>
            <defs>
                <filter id="filter0_dd_8427_857" x="0.461914" y="0.919189" width="36" height="36" filterUnits="userSpaceOnUse" color-interpolation-filters="sRGB">
                    <feFlood flood-opacity="0" result="BackgroundImageFix"/>
                    <feColorMatrix in="SourceAlpha" type="matrix" values="0 0 0 0 0 0 0 0 0 0 0 0 0 0 0 0 0 0 127 0" result="hardAlpha"/>
                    <feOffset dy="1"/>
                    <feGaussianBlur stdDeviation="0.5"/>
                    <feComposite in2="hardAlpha" operator="out"/>
                    <feColorMatrix type="matrix" values="0 0 0 0 0 0 0 0 0 0 0 0 0 0 0 0 0 0 0.04 0"/>
                    <feBlend mode="normal" in2="BackgroundImageFix" result="effect1_dropShadow_8427_857"/>
                    <feColorMatrix in="SourceAlpha" type="matrix" values="0 0 0 0 0 0 0 0 0 0 0 0 0 0 0 0 0 0 127 0" result="hardAlpha"/>
                    <feOffset dy="2"/>
                    <feGaussianBlur stdDeviation="3"/>
                    <feComposite in2="hardAlpha" operator="out"/>
                    <feColorMatrix type="matrix" values="0 0 0 0 0 0 0 0 0 0 0 0 0 0 0 0 0 0 0.05 0"/>
                    <feBlend mode="normal" in2="effect1_dropShadow_8427_857" result="effect2_dropShadow_8427_857"/>
                    <feBlend mode="normal" in="SourceGraphic" in2="effect2_dropShadow_8427_857" result="shape"/>
                </filter>
            </defs>
        </symbol>

        <symbol id="icon-polygon-badge" fill="none" viewBox="0 0 38 38">
        <rect x="0.414551" y="0.414551" width="36.8291" height="36.8291" rx="18.4145" fill="#52B69A"/>
        <mask id="mask0_8427_841" style="mask-type:alpha" maskUnits="userSpaceOnUse" x="9" y="9" width="20" height="20">
            <rect x="9" y="9" width="20" height="20" fill="#D9D9D9"/>
        </mask>
        <g mask="url(#mask0_8427_841)">
            <path d="M16.4998 20.8751C16.2082 20.8751 15.9616 20.7744 15.7603 20.573C15.5589 20.3716 15.4582 20.1251 15.4582 19.8334C15.4582 19.5417 15.5589 19.2952 15.7603 19.0938C15.9616 18.8924 16.2082 18.7917 16.4998 18.7917C16.7915 18.7917 17.038 18.8924 17.2394 19.0938C17.4408 19.2952 17.5415 19.5417 17.5415 19.8334C17.5415 20.1251 17.4408 20.3716 17.2394 20.573C17.038 20.7744 16.7915 20.8751 16.4998 20.8751ZM21.4998 20.8751C21.2082 20.8751 20.9616 20.7744 20.7603 20.573C20.5589 20.3716 20.4582 20.1251 20.4582 19.8334C20.4582 19.5417 20.5589 19.2952 20.7603 19.0938C20.9616 18.8924 21.2082 18.7917 21.4998 18.7917C21.7915 18.7917 22.038 18.8924 22.2394 19.0938C22.4408 19.2952 22.5415 19.5417 22.5415 19.8334C22.5415 20.1251 22.4408 20.3716 22.2394 20.573C22.038 20.7744 21.7915 20.8751 21.4998 20.8751ZM18.9998 25.6667C20.8609 25.6667 22.4373 25.0209 23.729 23.7292C25.0207 22.4376 25.6665 20.8612 25.6665 19.0001C25.6665 18.6667 25.6457 18.3438 25.604 18.0313C25.5623 17.7188 25.4859 17.4167 25.3748 17.1251C25.0832 17.1945 24.7915 17.2466 24.4998 17.2813C24.2082 17.3161 23.9026 17.3334 23.5832 17.3334C22.3193 17.3334 21.1248 17.0626 19.9998 16.5209C18.8748 15.9792 17.9165 15.2223 17.1248 14.2501C16.6804 15.3334 16.045 16.2744 15.2186 17.073C14.3922 17.8716 13.4304 18.4723 12.3332 18.8751V19.0001C12.3332 20.8612 12.979 22.4376 14.2707 23.7292C15.5623 25.0209 17.1387 25.6667 18.9998 25.6667ZM18.9998 27.3334C17.8471 27.3334 16.7637 27.1147 15.7498 26.6772C14.7359 26.2397 13.854 25.6459 13.104 24.8959C12.354 24.1459 11.7603 23.264 11.3228 22.2501C10.8853 21.2362 10.6665 20.1529 10.6665 19.0001C10.6665 17.8473 10.8853 16.764 11.3228 15.7501C11.7603 14.7362 12.354 13.8542 13.104 13.1042C13.854 12.3542 14.7359 11.7605 15.7498 11.323C16.7637 10.8855 17.8471 10.6667 18.9998 10.6667C20.1526 10.6667 21.2359 10.8855 22.2498 11.323C23.2637 11.7605 24.1457 12.3542 24.8957 13.1042C25.6457 13.8542 26.2394 14.7362 26.6769 15.7501C27.1144 16.764 27.3332 17.8473 27.3332 19.0001C27.3332 20.1529 27.1144 21.2362 26.6769 22.2501C26.2394 23.264 25.6457 24.1459 24.8957 24.8959C24.1457 25.6459 23.2637 26.2397 22.2498 26.6772C21.2359 27.1147 20.1526 27.3334 18.9998 27.3334Z" fill="white"/>
        </g>
        </symbol>

        <symbol id="icon-shield-check" fill="none" viewBox="0 0 40 40">
            <path fill-rule="evenodd" clip-rule="evenodd" d="M20.0001 2.08338C16.5688 2.08338 12.8252 3.29848 9.92814 4.50664L9.8168 4.55306C8.3097 5.18125 7.31851 5.59441 6.28311 6.55476C5.46488 7.31368 4.62291 8.57705 4.2374 9.62436C3.74926 10.9505 3.74956 12.2285 3.75003 14.1876L3.75006 14.3727L3.75006 17.8288L3.75005 18.0223C3.74983 21.6829 3.74971 23.7915 4.46752 25.9945C5.02734 27.7126 6.30286 29.915 7.51458 31.2555C9.06791 32.974 10.5079 33.8001 12.9942 35.2264L13.088 35.2802C14.3218 35.988 15.5708 36.6346 16.7229 37.1076C17.8452 37.5683 18.998 37.9167 20.0001 37.9167C21.0021 37.9167 22.1549 37.5683 23.2772 37.1076C24.4294 36.6346 25.6783 35.988 26.9121 35.2802L27.0059 35.2264C29.4922 33.8001 30.9322 32.974 32.4855 31.2555C33.6972 29.915 34.9728 27.7126 35.5326 25.9945C36.2504 23.7915 36.2503 21.6829 36.2501 18.0223L36.2501 17.8288L36.2501 14.3727L36.2501 14.1876C36.2506 12.2285 36.2508 10.9505 35.7627 9.62436C35.3772 8.57705 34.5352 7.31368 33.717 6.55476C32.6816 5.5944 31.6904 5.18125 30.1833 4.55305L30.072 4.50664C27.1749 3.29848 23.4313 2.08338 20.0001 2.08338ZM26.7173 14.9495C27.2054 15.4376 27.2054 16.2291 26.7173 16.7172L19.2173 24.2172C18.7291 24.7054 17.9377 24.7054 17.4495 24.2172L14.1162 20.8839C13.628 20.3957 13.628 19.6043 14.1162 19.1161C14.6043 18.628 15.3958 18.628 15.8839 19.1161L18.3334 21.5656L24.9495 14.9495C25.4377 14.4613 26.2291 14.4613 26.7173 14.9495Z" fill="white"/>
        </symbol>

        <symbol id="icon-more" fill="none" viewBox="0 0 24 25">
        <mask id="mask0_8427_921" style="mask-type:alpha" maskUnits="userSpaceOnUse" x="0" y="0" width="24" height="25">
            <rect y="0.5" width="24" height="24" color="#0008140D"/>
        </mask>
        <g mask="url(#mask0_8427_921)">
            <path d="M6 14.5C5.45 14.5 4.97917 14.3042 4.5875 13.9125C4.19583 13.5208 4 13.05 4 12.5C4 11.95 4.19583 11.4792 4.5875 11.0875C4.97917 10.6958 5.45 10.5 6 10.5C6.55 10.5 7.02083 10.6958 7.4125 11.0875C7.80417 11.4792 8 11.95 8 12.5C8 13.05 7.80417 13.5208 7.4125 13.9125C7.02083 14.3042 6.55 14.5 6 14.5ZM12 14.5C11.45 14.5 10.9792 14.3042 10.5875 13.9125C10.1958 13.5208 10 13.05 10 12.5C10 11.95 10.1958 11.4792 10.5875 11.0875C10.9792 10.6958 11.45 10.5 12 10.5C12.55 10.5 13.0208 10.6958 13.4125 11.0875C13.8042 11.4792 14 11.95 14 12.5C14 13.05 13.8042 13.5208 13.4125 13.9125C13.0208 14.3042 12.55 14.5 12 14.5ZM18 14.5C17.45 14.5 16.9792 14.3042 16.5875 13.9125C16.1958 13.5208 16 13.05 16 12.5C16 11.95 16.1958 11.4792 16.5875 11.0875C16.9792 10.6958 17.45 10.5 18 10.5C18.55 10.5 19.0208 10.6958 19.4125 11.0875C19.8042 11.4792 20 11.95 20 12.5C20 13.05 19.8042 13.5208 19.4125 13.9125C19.0208 14.3042 18.55 14.5 18 14.5Z" fill="#000814" fill-opacity="0.5"/>
        </g>
        </symbol>

        <symbol id="icon-more-light" fill="none" viewBox="0 0 24 25">
        <mask id="mask0_8427_980" style="mask-type:alpha" maskUnits="userSpaceOnUse" x="0" y="0" width="24" height="24">
            <rect width="24" height="24" fill="#D9D9D9"/>
        </mask>
        <g mask="url(#mask0_8427_980)">
            <path d="M6 14C5.45 14 4.97917 13.8042 4.5875 13.4125C4.19583 13.0208 4 12.55 4 12C4 11.45 4.19583 10.9792 4.5875 10.5875C4.97917 10.1958 5.45 10 6 10C6.55 10 7.02083 10.1958 7.4125 10.5875C7.80417 10.9792 8 11.45 8 12C8 12.55 7.80417 13.0208 7.4125 13.4125C7.02083 13.8042 6.55 14 6 14ZM12 14C11.45 14 10.9792 13.8042 10.5875 13.4125C10.1958 13.0208 10 12.55 10 12C10 11.45 10.1958 10.9792 10.5875 10.5875C10.9792 10.1958 11.45 10 12 10C12.55 10 13.0208 10.1958 13.4125 10.5875C13.8042 10.9792 14 11.45 14 12C14 12.55 13.8042 13.0208 13.4125 13.4125C13.0208 13.8042 12.55 14 12 14ZM18 14C17.45 14 16.9792 13.8042 16.5875 13.4125C16.1958 13.0208 16 12.55 16 12C16 11.45 16.1958 10.9792 16.5875 10.5875C16.9792 10.1958 17.45 10 18 10C18.55 10 19.0208 10.1958 19.4125 10.5875C19.8042 10.9792 20 11.45 20 12C20 12.55 19.8042 13.0208 19.4125 13.4125C19.0208 13.8042 18.55 14 18 14Z" fill="#000814" fill-opacity="0.05"/>
        </g>
        </symbol>

        <symbol id="icon-arrow" fill="currentColor" viewBox="0 0 14 14">
            <path d="M2.32593 7.2332C2.32593 7.3888 2.39335 7.53921 2.51265 7.65332L5.93064 11.0713C6.05512 11.1906 6.19516 11.2477 6.33519 11.2477C6.66195 11.2477 6.89535 11.0143 6.89535 10.7031C6.89535 10.5423 6.83311 10.4022 6.72938 10.3037L5.56757 9.12632L4.03233 7.72593L5.246 7.79855H11.5529C11.8901 7.79855 12.1287 7.56515 12.1287 7.2332C12.1287 6.89607 11.8901 6.66786 11.5529 6.66786H5.246L4.03752 6.74047L5.56757 5.34008L6.72938 4.16272C6.83311 4.05898 6.89535 3.91895 6.89535 3.75816C6.89535 3.44696 6.66195 3.21875 6.33519 3.21875C6.19516 3.21875 6.05512 3.27062 5.92026 3.40028L2.51265 6.81309C2.39335 6.92201 2.32593 7.0776 2.32593 7.2332Z" fill="currentColor" fill-opacity="0.6"/>
        </symbol>

        <symbol id="icon-toolbar" fill="none" viewBox="0 0 14 14">
            <g clip-path="url(#clip0_8653_99)">
                <path d="M2.39624 11.7039H11.0372C12.1267 11.7039 12.6917 11.1389 12.6917 10.0645V3.92554C12.6917 2.84605 12.1267 2.28613 11.0372 2.28613H2.39624C1.30666 2.28613 0.741699 2.84605 0.741699 3.92554V10.0645C0.741699 11.144 1.30666 11.7039 2.39624 11.7039ZM2.45677 10.7152C1.98765 10.7152 1.73039 10.468 1.73039 9.97872V4.00625C1.73039 3.51695 1.98765 3.27482 2.45677 3.27482H4.75194V10.7152H2.45677ZM10.9766 3.27482C11.4407 3.27482 11.703 3.51695 11.703 4.00625V9.97872C11.703 10.468 11.4407 10.7152 10.9766 10.7152H5.69018V3.27482H10.9766ZM3.76325 5.12104C3.9398 5.12104 4.09113 4.96971 4.09113 4.79821C4.09113 4.6267 3.9398 4.48041 3.76325 4.48041H2.72916C2.54757 4.48041 2.39624 4.6267 2.39624 4.79821C2.39624 4.96971 2.54757 5.12104 2.72916 5.12104H3.76325ZM3.76325 6.47292C3.9398 6.47292 4.09113 6.32159 4.09113 6.15008C4.09113 5.97858 3.9398 5.83229 3.76325 5.83229H2.72916C2.54757 5.83229 2.39624 5.97858 2.39624 6.15008C2.39624 6.32159 2.54757 6.47292 2.72916 6.47292H3.76325ZM3.76325 7.81975C3.9398 7.81975 4.09113 7.67347 4.09113 7.50196C4.09113 7.33046 3.9398 7.18417 3.76325 7.18417H2.72916C2.54757 7.18417 2.39624 7.33046 2.39624 7.50196C2.39624 7.67347 2.54757 7.81975 2.72916 7.81975H3.76325Z" fill="#2D3039" fill-opacity="0.6"/>
            </g>
            <defs>
                <clipPath id="clip0_8653_99">
                    <rect width="13.2778" height="13.2778" fill="white" transform="translate(0.0778809 0.36084)"/>
                </clipPath>
            </defs>
        </symbol>

        <symbol id="icon-reload" fill="none" viewBox="0 0 14 14">
            <g clip-path="url(#clip0_8653_106)">
                <path d="M2.3916 7.6066C2.3916 10.1792 4.45588 12.2486 7.02326 12.2486C9.59065 12.2486 11.6549 10.1792 11.6549 7.6066C11.6549 7.30059 11.4423 7.08275 11.1363 7.08275C10.8406 7.08275 10.6435 7.30059 10.6435 7.6066C10.6435 9.61901 9.03049 11.2321 7.02326 11.2321C5.01604 11.2321 3.40818 9.61901 3.40818 7.6066C3.40818 5.58381 5.00566 3.98114 7.0077 3.98114C7.35002 3.98114 7.66641 4.00708 7.93092 4.06413L6.52016 5.46452C6.4268 5.56307 6.38012 5.67199 6.38012 5.80684C6.38012 6.0921 6.59277 6.30994 6.87285 6.30994C7.01808 6.30994 7.13737 6.26326 7.22554 6.1699L9.35725 4.02264C9.46617 3.91372 9.51803 3.78924 9.51803 3.6492C9.51803 3.51435 9.46098 3.37949 9.35725 3.27576L7.22554 1.11294C7.13737 1.01439 7.01808 0.962524 6.87285 0.962524C6.59277 0.962524 6.38012 1.19074 6.38012 1.47081C6.38012 1.60567 6.4268 1.72496 6.51497 1.81832L7.77014 3.05792C7.54193 3.01124 7.27741 2.98531 7.0077 2.98531C4.44551 2.98531 2.3916 5.03922 2.3916 7.6066Z" fill="#2D3039" fill-opacity="0.6"/>
            </g>
            <defs>
                <clipPath id="clip0_8653_106">
                    <rect width="13.2778" height="13.2778" fill="white" transform="translate(0.399902 0.36084)"/>
                </clipPath>
            </defs>
        </symbol>
        <symbol id="icon-lock" fill="none" viewBox="0 0 10 10">
        <path d="M3.6362 8.53962H6.97737C7.51937 8.53962 7.80107 8.25079 7.80107 7.66599V5.13783C7.80107 4.62436 7.57999 4.33909 7.15209 4.28204V3.43338C7.15209 2.11759 6.28203 1.43652 5.30857 1.43652C4.3351 1.43652 3.46504 2.11759 3.46504 3.43338V4.28204C3.03715 4.33909 2.8125 4.62436 2.8125 5.13783V7.66599C2.8125 8.25079 3.0942 8.53962 3.6362 8.53962ZM4.13185 3.36919C4.13185 2.53123 4.67029 2.0748 5.30857 2.0748C5.94328 2.0748 6.48528 2.53123 6.48528 3.36919V4.26778H4.13185V3.36919Z" fill="#2D3039" fill-opacity="0.6"/>
        </symbol>

        <symbol id="icon-check-box" fill="none" viewBox="0 0 24 24">
        <mask id="mask0_8427_994" style="mask-type:alpha" maskUnits="userSpaceOnUse" x="0" y="0" width="24" height="24">
            <rect width="24" height="24" fill="#D9D9D9"/>
        </mask>
        <g mask="url(#mask0_8427_994)">
            <path d="M10.6 13.4L8.45 11.25C8.26667 11.0667 8.03333 10.975 7.75 10.975C7.46667 10.975 7.23333 11.0667 7.05 11.25C6.86667 11.4333 6.775 11.6667 6.775 11.95C6.775 12.2333 6.86667 12.4667 7.05 12.65L9.9 15.5C10.1 15.7 10.3333 15.8 10.6 15.8C10.8667 15.8 11.1 15.7 11.3 15.5L16.95 9.85C17.1333 9.66667 17.225 9.43333 17.225 9.15C17.225 8.86667 17.1333 8.63333 16.95 8.45C16.7667 8.26667 16.5333 8.175 16.25 8.175C15.9667 8.175 15.7333 8.26667 15.55 8.45L10.6 13.4ZM5 21C4.45 21 3.97917 20.8042 3.5875 20.4125C3.19583 20.0208 3 19.55 3 19V5C3 4.45 3.19583 3.97917 3.5875 3.5875C3.97917 3.19583 4.45 3 5 3H19C19.55 3 20.0208 3.19583 20.4125 3.5875C20.8042 3.97917 21 4.45 21 5V19C21 19.55 20.8042 20.0208 20.4125 20.4125C20.0208 20.8042 19.55 21 19 21H5Z" fill="white"/>
        </g>
        </symbol>

        <symbol id="icon-language" fill="none" viewBox="0 0 27 28">
        <path d="M13.5001 27.3334C11.6779 27.3334 9.95564 26.9834 8.33341 26.2834C6.71119 25.5834 5.29453 24.6278 4.08341 23.4167C2.8723 22.2056 1.91675 20.7889 1.21675 19.1667C0.516748 17.5445 0.166748 15.8222 0.166748 14C0.166748 12.1556 0.516748 10.4278 1.21675 8.81669C1.91675 7.20558 2.8723 5.79446 4.08341 4.58335C5.29453 3.37224 6.71119 2.41669 8.33341 1.71669C9.95564 1.01669 11.6779 0.666687 13.5001 0.666687C15.3445 0.666687 17.0723 1.01669 18.6834 1.71669C20.2945 2.41669 21.7056 3.37224 22.9167 4.58335C24.1279 5.79446 25.0834 7.20558 25.7834 8.81669C26.4834 10.4278 26.8334 12.1556 26.8334 14C26.8334 15.8222 26.4834 17.5445 25.7834 19.1667C25.0834 20.7889 24.1279 22.2056 22.9167 23.4167C21.7056 24.6278 20.2945 25.5834 18.6834 26.2834C17.0723 26.9834 15.3445 27.3334 13.5001 27.3334ZM13.5001 24.6C14.0779 23.8 14.5779 22.9667 15.0001 22.1C15.4223 21.2334 15.7667 20.3111 16.0334 19.3334H10.9667C11.2334 20.3111 11.5779 21.2334 12.0001 22.1C12.4223 22.9667 12.9223 23.8 13.5001 24.6ZM10.0334 24.0667C9.63341 23.3334 9.28341 22.5722 8.98341 21.7834C8.68341 20.9945 8.43341 20.1778 8.23341 19.3334H4.30008C4.94453 20.4445 5.75008 21.4111 6.71675 22.2334C7.68341 23.0556 8.78897 23.6667 10.0334 24.0667ZM16.9667 24.0667C18.2112 23.6667 19.3167 23.0556 20.2834 22.2334C21.2501 21.4111 22.0556 20.4445 22.7001 19.3334H18.7667C18.5667 20.1778 18.3167 20.9945 18.0167 21.7834C17.7167 22.5722 17.3667 23.3334 16.9667 24.0667ZM3.16675 16.6667H7.70008C7.63341 16.2222 7.58341 15.7834 7.55008 15.35C7.51675 14.9167 7.50008 14.4667 7.50008 14C7.50008 13.5334 7.51675 13.0834 7.55008 12.65C7.58341 12.2167 7.63341 11.7778 7.70008 11.3334H3.16675C3.05564 11.7778 2.9723 12.2167 2.91675 12.65C2.86119 13.0834 2.83341 13.5334 2.83341 14C2.83341 14.4667 2.86119 14.9167 2.91675 15.35C2.9723 15.7834 3.05564 16.2222 3.16675 16.6667ZM10.3667 16.6667H16.6334C16.7001 16.2222 16.7501 15.7834 16.7834 15.35C16.8167 14.9167 16.8334 14.4667 16.8334 14C16.8334 13.5334 16.8167 13.0834 16.7834 12.65C16.7501 12.2167 16.7001 11.7778 16.6334 11.3334H10.3667C10.3001 11.7778 10.2501 12.2167 10.2167 12.65C10.1834 13.0834 10.1667 13.5334 10.1667 14C10.1667 14.4667 10.1834 14.9167 10.2167 15.35C10.2501 15.7834 10.3001 16.2222 10.3667 16.6667ZM19.3001 16.6667H23.8334C23.9445 16.2222 24.0279 15.7834 24.0834 15.35C24.139 14.9167 24.1667 14.4667 24.1667 14C24.1667 13.5334 24.139 13.0834 24.0834 12.65C24.0279 12.2167 23.9445 11.7778 23.8334 11.3334H19.3001C19.3667 11.7778 19.4167 12.2167 19.4501 12.65C19.4834 13.0834 19.5001 13.5334 19.5001 14C19.5001 14.4667 19.4834 14.9167 19.4501 15.35C19.4167 15.7834 19.3667 16.2222 19.3001 16.6667ZM18.7667 8.66669H22.7001C22.0556 7.55558 21.2501 6.58891 20.2834 5.76669C19.3167 4.94446 18.2112 4.33335 16.9667 3.93335C17.3667 4.66669 17.7167 5.4278 18.0167 6.21669C18.3167 7.00558 18.5667 7.82224 18.7667 8.66669ZM10.9667 8.66669H16.0334C15.7667 7.68891 15.4223 6.76669 15.0001 5.90002C14.5779 5.03335 14.0779 4.20002 13.5001 3.40002C12.9223 4.20002 12.4223 5.03335 12.0001 5.90002C11.5779 6.76669 11.2334 7.68891 10.9667 8.66669ZM4.30008 8.66669H8.23341C8.43341 7.82224 8.68341 7.00558 8.98341 6.21669C9.28341 5.4278 9.63341 4.66669 10.0334 3.93335C8.78897 4.33335 7.68341 4.94446 6.71675 5.76669C5.75008 6.58891 4.94453 7.55558 4.30008 8.66669Z" fill="#1C1B1F"/>
        </symbol>

        <symbol id="icon-ether" fill="none" viewBox="0 0 44 68">
        <g clip-path="url(#clip0_8736_15)">
            <path d="M21.9933 0L21.5244 1.54916V46.5022L21.9933 46.9572L43.4606 34.6229L21.9933 0Z" fill="#343434"/>
            <path d="M21.9937 0L0.526367 34.6229L21.9937 46.9573V25.1385V0Z" fill="#8C8C8C"/>
            <path d="M21.9937 50.9082L21.7295 51.2213V67.2346L21.9937 67.9847L43.474 38.5802L21.9937 50.9082Z" fill="#3C3C3B"/>
            <path d="M21.9937 67.9845V50.9079L0.526367 38.5798L21.9937 67.9845Z" fill="#8C8C8C"/>
            <path d="M21.9932 46.9572L43.4601 34.6232L21.9932 25.1387V46.9572Z" fill="#141414"/>
            <path d="M0.526367 34.6229L21.9933 46.9572V25.1385L0.526367 34.6229Z" fill="#393939"/>
        </g>
        <defs>
            <clipPath id="clip0_8736_15">
                <rect width="42.9474" height="68" fill="white" transform="translate(0.526367)"/>
            </clipPath>
        </defs>
        </symbol>

        <symbol id="icon-polygon-small" fill="none" viewBox="0 0 37 37">
        <rect width="36.8291" height="36.8291" rx="18.4145" fill="#8247E5"/>
        <path d="M24.666 14.2781C24.2129 14.0112 23.624 14.0112 23.1258 14.2781L19.5923 16.325L17.1914 17.66L13.658 19.7068C13.205 19.9738 12.6161 19.9738 12.1178 19.7068L9.3092 18.1049C8.85619 17.8379 8.5391 17.3485 8.5391 16.8145V13.6552C8.5391 13.1212 8.8109 12.6317 9.3092 12.3648L12.0725 10.8073C12.5255 10.5404 13.1144 10.5404 13.6127 10.8073L16.376 12.3648C16.829 12.6317 17.1461 13.1212 17.1461 13.6552V15.7021L19.547 14.3226V12.2758C19.547 11.7418 19.2753 11.2523 18.7769 10.9853L13.658 8.04851C13.205 7.78152 12.6161 7.78152 12.1178 8.04851L6.90829 10.9853C6.40998 11.2523 6.13818 11.7418 6.13818 12.2758V18.1939C6.13818 18.7279 6.40998 19.2174 6.90829 19.4844L12.1178 22.4212C12.5708 22.6882 13.1597 22.6882 13.658 22.4212L17.1914 20.4188L19.5923 19.0394L23.1258 17.037C23.5788 16.77 24.1676 16.77 24.666 17.037L27.4293 18.5944C27.8822 18.8614 28.1994 19.3509 28.1994 19.8848V23.0441C28.1994 23.5782 27.9276 24.0676 27.4293 24.3346L24.666 25.9365C24.2129 26.2035 23.624 26.2035 23.1258 25.9365L20.3625 24.3791C19.9094 24.1121 19.5923 23.6226 19.5923 23.0886V21.0418L17.1914 22.4212V24.468C17.1914 25.002 17.4633 25.4915 17.9615 25.7585L23.1711 28.6953C23.624 28.9623 24.2129 28.9623 24.7112 28.6953L29.9208 25.7585C30.3738 25.4915 30.6909 25.002 30.6909 24.468V18.5499C30.6909 18.0159 30.4191 17.5265 29.9208 17.2595L24.666 14.2781Z" fill="white"/>
        </symbol>

        <symbol id="icon-avalanche" fill="none" viewBox="0 0 61 61">
        <rect width="61" height="61" rx="30.5" fill="black"/>
        <path fill-rule="evenodd" clip-rule="evenodd" d="M30.4998 50.8334C41.7296 50.8334 50.8332 41.7298 50.8332 30.5C50.8332 19.2702 41.7296 10.1667 30.4998 10.1667C19.27 10.1667 10.1665 19.2702 10.1665 30.5C10.1665 41.7298 19.27 50.8334 30.4998 50.8334ZM24.356 39.7119H19.586C18.4551 39.7119 17.8896 39.7119 17.5509 39.4929C17.1849 39.2562 16.954 38.8591 16.9295 38.4242C16.9068 38.0217 17.1869 37.531 17.7471 36.5497L17.7473 36.5494L28.191 18.2532C28.7594 17.2573 29.0436 16.7594 29.4053 16.574C29.7959 16.3738 30.2592 16.3734 30.6502 16.5731C31.0121 16.7579 31.297 17.2555 31.8669 18.2505L34.2756 22.4559L34.2756 22.4561C34.69 23.1795 34.8972 23.5413 34.9883 23.9229C35.0875 24.3385 35.0877 24.7714 34.9889 25.1869C34.8981 25.5687 34.6912 25.9307 34.2774 26.6546L28.0322 37.5799C27.6124 38.3144 27.4024 38.6816 27.1148 38.9561C26.8017 39.2549 26.4221 39.4752 26.0071 39.5986C25.6259 39.7119 25.2026 39.7119 24.356 39.7119ZM41.374 39.7119H35.8437C34.7025 39.7119 34.1319 39.7119 33.7922 39.491C33.4251 39.2523 33.1948 38.8522 33.1732 38.4152C33.153 38.0108 33.4402 37.518 34.0146 36.5327L36.7752 31.7965C37.3423 30.8237 37.6259 30.3372 37.9848 30.155C38.3728 29.9581 38.8316 29.9578 39.2199 30.1541C39.5793 30.3357 39.8634 30.8218 40.4318 31.7937L40.432 31.794L43.2017 36.5301C43.7783 37.516 44.0665 38.009 44.0468 38.4137C44.0255 38.8511 43.7954 39.2517 43.4282 39.4908C43.0884 39.7119 42.517 39.7119 41.374 39.7119Z" fill="white"/>
        </symbol>

        <symbol id="icon-binance" fill="none" viewBox="0 0 62 62">

        <rect width="62" height="62" rx="31" fill="#2F2B32"/>
        <path fill-rule="evenodd" clip-rule="evenodd" d="M22.9748 27.7021L31.0023 19.6746L39.0366 27.709L43.7072 23.0383L31.0023 10.3333L18.3041 23.0315L22.9748 27.7021ZM10.3328 31.0022L15.0022 26.3328L19.6716 31.0022L15.0022 35.6717L10.3328 31.0022ZM31.0022 42.3332L22.9747 34.3057L18.2972 38.9695L18.3041 38.9763L31.0022 51.6744L43.7072 38.9695L39.0365 34.2988L31.0022 42.3332ZM42.3286 31.0055L46.9981 26.3361L51.6675 31.0055L46.9981 35.6749L42.3286 31.0055ZM31.0023 26.2645L35.7418 31.0039L31.0023 35.7502L26.2629 31.0108V30.997L27.0952 30.1647L27.5011 29.7657L31.0023 26.2645Z" fill="#F3BA2F"/>

        </symbol>
    </defs>
</svg>
