<svg aria-hidden="true" style="position: absolute; width: 0; height: 0; overflow: hidden;"
     version="1.1" xmlns="http://www.w3.org/2000/svg" xmlns:xlink="http://www.w3.org/1999/xlink">
    <defs>
        <symbol id="icon-app-logo" fill="currentColor" viewBox="0 0 56 56">
                <path fill-rule="evenodd" clip-rule="evenodd" d="M25.2069 51.6928C12.9085 49.2329 4.05581 38.4347 4.05585 25.8926V17.3458C4.05585 9.99064 10.0184 4.02808 17.3736 4.02808H38.6821C46.0371 4.02808 52 9.99064 52 17.3458V25.8925C51.9996 38.4344 43.1475 49.2326 30.8494 51.6924H30.8487C28.9866 52.0652 27.0691 52.0652 25.2069 51.6928Z" fill="white"/>
                <path fill-rule="evenodd" clip-rule="evenodd" d="M20.0374 23.8484C20.8592 23.8484 21.5255 24.5146 21.5255 25.3365V33.3271C21.5255 34.149 20.8592 34.8152 20.0374 34.8152C19.2155 34.8152 18.5493 34.149 18.5493 33.3271V25.3365C18.5493 24.5146 19.2155 23.8484 20.0374 23.8484Z" fill="#202020"/>
                <path fill-rule="evenodd" clip-rule="evenodd" d="M28.0282 23.6262C28.8501 23.6262 29.5163 24.2925 29.5163 25.1143V33.327C29.5163 34.1488 28.8501 34.8151 28.0282 34.8151C27.2064 34.8151 26.5401 34.1488 26.5401 33.327V25.1143C26.5401 24.2925 27.2064 23.6262 28.0282 23.6262Z" fill="#202020"/>
                <path fill-rule="evenodd" clip-rule="evenodd" d="M28.0226 15.8574L28.0282 15.8574C33.2633 15.8574 37.5069 20.1013 37.5069 25.3362V33.3269C37.5069 34.1488 36.8407 34.815 36.0188 34.815C35.1969 34.815 34.5307 34.1488 34.5307 33.3269V25.3362C34.5307 21.7459 31.621 18.8352 28.031 18.8337C26.8437 18.8387 25.6809 19.1722 24.6715 19.7974C23.9728 20.2302 23.0556 20.0146 22.6228 19.3159C22.1901 18.6172 22.4056 17.7 23.1043 17.2672C24.582 16.352 26.2845 15.864 28.0226 15.8574Z" fill="#202020"/>
        </symbol>
        <symbol id="icon-header-button" fill="currentColor" viewBox="0 0 24 24">
        <path fill-rule="evenodd" clip-rule="evenodd" d="M10.803 22.1541C5.53223 21.0998 1.73823 16.472 1.73825 11.0968V7.43393C1.73825 4.2817 4.29364 1.72632 7.44586 1.72632H16.5781C19.7302 1.72632 22.2857 4.2817 22.2857 7.43393V11.0968C22.2856 16.4719 18.4918 21.0997 13.2212 22.1539H13.2209C12.4228 22.3137 11.6011 22.3137 10.803 22.1541Z" fill="#52B69A"/>
        <path fill-rule="evenodd" clip-rule="evenodd" d="M8.58726 10.2207C8.93949 10.2207 9.22503 10.5062 9.22503 10.8585V14.283C9.22503 14.6352 8.93949 14.9208 8.58726 14.9208C8.23503 14.9208 7.94949 14.6352 7.94949 14.283V10.8585C7.94949 10.5062 8.23503 10.2207 8.58726 10.2207Z" fill="white"/>
        <path fill-rule="evenodd" clip-rule="evenodd" d="M12.0119 10.1255C12.3641 10.1255 12.6496 10.411 12.6496 10.7633V14.2829C12.6496 14.6352 12.3641 14.9207 12.0119 14.9207C11.6596 14.9207 11.3741 14.6352 11.3741 14.2829V10.7633C11.3741 10.411 11.6596 10.1255 12.0119 10.1255Z" fill="white"/>
        <path fill-rule="evenodd" clip-rule="evenodd" d="M12.0094 6.7959L12.0118 6.7959C14.2554 6.7959 16.0741 8.61469 16.0741 10.8582V14.2828C16.0741 14.635 15.7885 14.9206 15.4363 14.9206C15.0841 14.9206 14.7985 14.635 14.7985 14.2828V10.8582C14.7985 9.31952 13.5515 8.07208 12.013 8.07143C11.5041 8.07357 11.0058 8.21653 10.5732 8.48447C10.2737 8.66994 9.88062 8.57755 9.69515 8.2781C9.50968 7.97866 9.60208 7.58556 9.90152 7.40009C10.5348 7.00784 11.2644 6.79871 12.0094 6.7959Z" fill="white"/>
        </symbol>
        <symbol id="icon-hero-section-button" fill="currentColor" viewBox="0 0 24 24">
        <path fill-rule="evenodd" clip-rule="evenodd" d="M10.803 22.1541C5.53226 21.0998 1.73827 16.472 1.73828 11.0968V7.43393C1.73828 4.2817 4.29367 1.72632 7.44589 1.72632H16.5781C19.7302 1.72632 22.2858 4.2817 22.2858 7.43393V11.0968C22.2856 16.4719 18.4919 21.0997 13.2212 22.1539H13.2209C12.4229 22.3137 11.6011 22.3137 10.803 22.1541Z" fill="white"/>
        <path fill-rule="evenodd" clip-rule="evenodd" d="M8.58747 10.2206C8.9397 10.2206 9.22524 10.5061 9.22524 10.8583V14.2829C9.22524 14.6351 8.9397 14.9207 8.58747 14.9207C8.23524 14.9207 7.94971 14.6351 7.94971 14.2829V10.8583C7.94971 10.5061 8.23524 10.2206 8.58747 10.2206Z" fill="#52B69A"/>
        <path fill-rule="evenodd" clip-rule="evenodd" d="M12.012 10.1254C12.3643 10.1254 12.6498 10.4109 12.6498 10.7631V14.2828C12.6498 14.6351 12.3643 14.9206 12.012 14.9206C11.6598 14.9206 11.3743 14.6351 11.3743 14.2828V10.7631C11.3743 10.4109 11.6598 10.1254 12.012 10.1254Z" fill="#52B69A"/>
        <path fill-rule="evenodd" clip-rule="evenodd" d="M12.0095 6.7959L12.0119 6.7959C14.2555 6.7959 16.0742 8.61469 16.0742 10.8582V14.2828C16.0742 14.635 15.7886 14.9206 15.4364 14.9206C15.0842 14.9206 14.7986 14.635 14.7986 14.2828V10.8582C14.7986 9.31952 13.5516 8.07208 12.0131 8.07143C11.5042 8.07357 11.0059 8.21653 10.5733 8.48447C10.2738 8.66994 9.88074 8.57755 9.69527 8.2781C9.5098 7.97866 9.6022 7.58556 9.90164 7.40009C10.5349 7.00784 11.2646 6.79871 12.0095 6.7959Z" fill="#52B69A"/>
        </symbol>
        <symbol id="icon-hero-install-section" fill="currentColor" viewBox="0 0 57 57">
        <path fill-rule="evenodd" clip-rule="evenodd" d="M26.5122 50.23C15.7493 48.0773 8.00192 38.6273 8.00195 27.651V20.1714C8.00195 13.7345 13.2201 8.51636 19.657 8.51636H38.305C44.7417 8.51636 49.9601 13.7345 49.9601 20.1714V27.651C49.9598 38.6269 42.2129 48.0769 31.4502 50.2297H31.4497C29.82 50.5559 28.1419 50.5559 26.5122 50.23Z" fill="#52B69A"/>
        <path fill-rule="evenodd" clip-rule="evenodd" d="M21.9879 25.8621C22.7071 25.8621 23.2902 26.4451 23.2902 27.1644V34.1574C23.2902 34.8766 22.7071 35.4597 21.9879 35.4597C21.2686 35.4597 20.6855 34.8766 20.6855 34.1574V27.1644C20.6855 26.4451 21.2686 25.8621 21.9879 25.8621Z" fill="white"/>
        <path fill-rule="evenodd" clip-rule="evenodd" d="M28.981 25.6677C29.7003 25.6677 30.2834 26.2508 30.2834 26.9701V34.1573C30.2834 34.8765 29.7003 35.4596 28.981 35.4596C28.2618 35.4596 27.6787 34.8765 27.6787 34.1573V26.9701C27.6787 26.2508 28.2618 25.6677 28.981 25.6677Z" fill="white"/>
        <path fill-rule="evenodd" clip-rule="evenodd" d="M28.9762 18.8689L28.9811 18.8689C33.5625 18.8689 37.2763 22.5829 37.2763 27.1643V34.1573C37.2763 34.8765 36.6932 35.4596 35.974 35.4596C35.2547 35.4596 34.6717 34.8765 34.6717 34.1573V27.1643C34.6717 24.0222 32.1253 21.4749 28.9835 21.4735C27.9445 21.4779 26.9268 21.7698 26.0434 22.317C25.432 22.6957 24.6292 22.507 24.2505 21.8956C23.8718 21.2841 24.0605 20.4814 24.6719 20.1027C25.9651 19.3017 27.455 18.8746 28.9762 18.8689Z" fill="white"/>
        </symbol>
        <symbol id="icon-logo-metamask" fill="currentColor" viewBox="0 0 16 14">
        <path d="M14.6932 0L8.89209 4.3266L9.96486 1.77397L14.6932 0Z" fill="#E2761B"/>
        <path d="M1.30114 0L7.05562 4.36758L6.03533 1.77397L1.30114 0ZM12.606 10.029L11.061 12.406L14.3668 13.3194L15.3171 10.0817L12.606 10.029ZM0.688965 10.0817L1.63347 13.3194L4.93924 12.406L3.39421 10.029L0.688965 10.0817Z" fill="#E4761B"/>
        <path d="M4.75224 6.01277L3.83105 7.41203L7.1135 7.5584L6.99689 4.01632L4.75224 6.01277ZM11.2413 6.01277L8.96753 3.97534L8.89173 7.5584L12.1683 7.41203L11.2413 6.01277ZM4.93881 12.4061L6.90944 11.44L5.207 10.1052L4.93881 12.4061ZM9.08413 11.44L11.0606 12.4061L10.7866 10.1052L9.08413 11.44Z" fill="#E4761B"/>
        <path d="M11.0612 12.406L9.08478 11.4399L9.2422 12.7338L9.2247 13.2783L11.0612 12.406ZM4.93945 12.406L6.77599 13.2783L6.76433 12.7338L6.91009 11.4399L4.93945 12.406Z" fill="#D7C1B3"/>
        <path d="M6.80478 9.2504L5.16064 8.76446L6.32087 8.23169L6.80478 9.2504ZM9.18936 9.2504L9.67328 8.23169L10.8393 8.76446L9.18936 9.2504Z" fill="#233447"/>
        <path d="M4.93907 12.4061L5.21892 10.0291L3.39404 10.0818L4.93907 12.4061ZM10.781 10.0291L11.0609 12.4061L12.6059 10.0818L10.781 10.0291ZM12.1686 7.41211L8.89199 7.55848L9.19517 9.25048L9.67908 8.23176L10.8451 8.76454L12.1686 7.41211ZM5.16062 8.76454L6.32667 8.23176L6.80475 9.25048L7.11376 7.55848L3.83131 7.41211L5.16062 8.76454Z" fill="#CD6116"/>
        <path d="M3.83105 7.41211L5.207 10.1053L5.16036 8.76454L3.83105 7.41211ZM10.8449 8.76454L10.7866 10.1053L12.1683 7.41211L10.8449 8.76454ZM7.1135 7.55848L6.80449 9.25048L7.18929 11.2469L7.27675 8.61817L7.1135 7.55848ZM8.89173 7.55848L8.73431 8.61232L8.80428 11.2469L9.19491 9.25048L8.89173 7.55848Z" fill="#E4751F"/>
        <path d="M9.1952 9.25034L8.80457 11.2468L9.08442 11.44L10.7869 10.1051L10.8452 8.7644L9.1952 9.25034ZM5.16064 8.7644L5.20729 10.1051L6.90973 11.44L7.18958 11.2468L6.80478 9.25034L5.16064 8.7644Z" fill="#F6851B"/>
        <path d="M9.2247 13.2784L9.2422 12.7339L9.09644 12.6051H6.89842L6.76433 12.7339L6.77599 13.2784L4.93945 12.406L5.58078 12.9329L6.88093 13.8404H9.11393L10.4199 12.9329L11.0612 12.406L9.2247 13.2784Z" fill="#C0AD9E"/>
        <path d="M9.08412 11.44L8.80427 11.2468H7.18928L6.90943 11.44L6.76367 12.7339L6.89777 12.6051H9.09578L9.24154 12.7339L9.08412 11.44Z" fill="#131313" fill-opacity="0.67"/>
        <path d="M14.938 4.60763L15.4336 2.21892L14.6932 0L9.08444 4.18023L11.2416 6.01275L14.2909 6.90851L14.9672 6.11813L14.6757 5.90736L15.1421 5.47997L14.7806 5.19895L15.247 4.84181L14.938 4.60763ZM0.566406 2.21892L1.06198 4.60763L0.747145 4.84181L1.21357 5.19895L0.85792 5.47997L1.32434 5.90736L1.03283 6.11813L1.70331 6.90851L4.75254 6.01275L6.90975 4.18023L1.30102 0L0.566406 2.21892Z" fill="#763D16"/>
        <path d="M14.291 6.90847L11.2418 6.01271L12.1688 7.41197L10.787 10.1051L12.606 10.0817H15.3171L14.291 6.90847ZM4.75267 6.01271L1.70343 6.90847L0.688965 10.0817H3.39421L5.20743 10.1051L3.83148 7.41197L4.75267 6.01271ZM8.89216 7.55834L9.08456 4.18019L9.97076 1.77393H6.03533L6.90987 4.18019L7.11393 7.55834L7.18389 8.62389L7.18972 11.2468H8.80471L8.81637 8.62389L8.89216 7.55834Z" fill="#F6851B"/>
        </symbol>
        <symbol id="icon-eye" fill="currentColor" viewBox="0 0 24 23">
            <path d="M11.817 4.42993C7.10158 4.42993 3.07464 7.3629 1.44312 11.503C3.07464 15.6431 7.10158 18.5761 11.817 18.5761C16.5323 18.5761 20.5593 15.6431 22.1908 11.503C20.5593 7.3629 16.5323 4.42993 11.817 4.42993ZM11.817 16.2184C9.21407 16.2184 7.10158 14.1059 7.10158 11.503C7.10158 8.90012 9.21407 6.78762 11.817 6.78762C14.4199 6.78762 16.5323 8.90012 16.5323 11.503C16.5323 14.1059 14.4199 16.2184 11.817 16.2184ZM11.817 8.67378C10.2515 8.67378 8.98773 9.9375 8.98773 11.503C8.98773 13.0685 10.2515 14.3322 11.817 14.3322C13.3825 14.3322 14.6462 13.0685 14.6462 11.503C14.6462 9.9375 13.3825 8.67378 11.817 8.67378Z" fill="#242629"/>
        </symbol>
        <symbol id="icon-bold" fill="currentColor" viewBox="0 0 24 23">
            <path d="M8.04428 20.9743L8.98736 14.3728H4.27197L12.7597 2.11279H14.6458L13.7027 9.65741H19.3612L9.93044 20.9743H8.04428Z" fill="#242629"/>
        </symbol>
        <symbol id="icon-polygon" fill="currentColor" viewBox="0 0 49 49">
            <rect x="0.414551" y="0.414551" width="48" height="48" rx="24" fill="black"/>
            <mask id="mask0_8427_853" style="mask-type:alpha" maskUnits="userSpaceOnUse" x="11" y="11" width="27" height="27">
                <rect x="11.604" y="11.6042" width="26.0663" height="26.0664" fill="#D9D9D9"/>
            </mask>
            <g mask="url(#mask0_8427_853)">
                <path d="M23.4969 25.3978L21.9763 23.8773C21.7591 23.66 21.5057 23.5514 21.2161 23.5514C20.9264 23.5514 20.673 23.66 20.4558 23.8773C20.2386 24.0945 20.13 24.3524 20.13 24.6511C20.13 24.9498 20.2386 25.2077 20.4558 25.4249L22.7366 27.7329C22.9538 27.9501 23.2072 28.0587 23.4969 28.0587C23.7865 28.0587 24.0399 27.9501 24.2571 27.7329L28.8731 23.117C29.0903 22.8998 29.1989 22.6418 29.1989 22.3431C29.1989 22.0445 29.0903 21.7865 28.8731 21.5693C28.6558 21.3521 28.3979 21.2435 28.0992 21.2435C27.8005 21.2435 27.5426 21.3521 27.3254 21.5693L23.4969 25.3978ZM24.6373 35.3899C24.5106 35.3899 24.3929 35.3808 24.2843 35.3627C24.1757 35.3446 24.0671 35.3175 23.9585 35.2813C21.5147 34.4667 19.5688 32.9597 18.1207 30.7604C16.6726 28.561 15.9485 26.1943 15.9485 23.66V18.5282C15.9485 18.0757 16.0797 17.6684 16.3422 17.3064C16.6047 16.9443 16.9441 16.6819 17.3604 16.5189L23.877 14.0752C24.1304 13.9847 24.3838 13.9395 24.6373 13.9395C24.8907 13.9395 25.1441 13.9847 25.3975 14.0752L31.9141 16.5189C32.3305 16.6819 32.6699 16.9443 32.9323 17.3064C33.1948 17.6684 33.3261 18.0757 33.3261 18.5282V23.66C33.3261 26.1943 32.602 28.561 31.1539 30.7604C29.7057 32.9597 27.7598 34.4667 25.3161 35.2813C25.2075 35.3175 25.0989 35.3446 24.9903 35.3627C24.8816 35.3808 24.764 35.3899 24.6373 35.3899Z" fill="#D1FD51"/>
            </g>        </symbol>
        <symbol id="icon-halborn" fill="none" viewBox="0 0 38 38">
            <g id="logos" filter="url(#filter0_dd_8427_857)">
                <rect x="6.46191" y="4.91919" width="24" height="24" rx="12" fill="#D1FD51" shape-rendering="crispEdges"/>
                <path id="Vector" d="M23.607 12L22.7536 15.8575H14.7764L15.6298 12H13.2367L11 22.1097H13.3932L14.7764 15.8575L16.6396 18.2524H22.2238L21.3702 22.1097H23.7634L26 12H23.607Z" fill="black"/>
                <rect x="6.96191" y="5.41919" width="23" height="23" rx="11.5" stroke="black" shape-rendering="crispEdges"/>
            </g>
            <defs>
                <filter id="filter0_dd_8427_857" x="0.461914" y="0.919189" width="36" height="36" filterUnits="userSpaceOnUse" color-interpolation-filters="sRGB">
                    <feFlood flood-opacity="0" result="BackgroundImageFix"/>
                    <feColorMatrix in="SourceAlpha" type="matrix" values="0 0 0 0 0 0 0 0 0 0 0 0 0 0 0 0 0 0 127 0" result="hardAlpha"/>
                    <feOffset dy="1"/>
                    <feGaussianBlur stdDeviation="0.5"/>
                    <feComposite in2="hardAlpha" operator="out"/>
                    <feColorMatrix type="matrix" values="0 0 0 0 0 0 0 0 0 0 0 0 0 0 0 0 0 0 0.04 0"/>
                    <feBlend mode="normal" in2="BackgroundImageFix" result="effect1_dropShadow_8427_857"/>
                    <feColorMatrix in="SourceAlpha" type="matrix" values="0 0 0 0 0 0 0 0 0 0 0 0 0 0 0 0 0 0 127 0" result="hardAlpha"/>
                    <feOffset dy="2"/>
                    <feGaussianBlur stdDeviation="3"/>
                    <feComposite in2="hardAlpha" operator="out"/>
                    <feColorMatrix type="matrix" values="0 0 0 0 0 0 0 0 0 0 0 0 0 0 0 0 0 0 0.05 0"/>
                    <feBlend mode="normal" in2="effect1_dropShadow_8427_857" result="effect2_dropShadow_8427_857"/>
                    <feBlend mode="normal" in="SourceGraphic" in2="effect2_dropShadow_8427_857" result="shape"/>
                </filter>
            </defs>
        </symbol>
        <symbol id="icon-polygon-badge" fill="none" viewBox="0 0 38 38">

        <rect x="0.414551" y="0.414551" width="36.8291" height="36.8291" rx="18.4145" fill="#52B69A"/>
        <mask id="mask0_8427_841" style="mask-type:alpha" maskUnits="userSpaceOnUse" x="9" y="9" width="20" height="20">
            <rect x="9" y="9" width="20" height="20" fill="#D9D9D9"/>
        </mask>
        <g mask="url(#mask0_8427_841)">
            <path d="M16.4998 20.8751C16.2082 20.8751 15.9616 20.7744 15.7603 20.573C15.5589 20.3716 15.4582 20.1251 15.4582 19.8334C15.4582 19.5417 15.5589 19.2952 15.7603 19.0938C15.9616 18.8924 16.2082 18.7917 16.4998 18.7917C16.7915 18.7917 17.038 18.8924 17.2394 19.0938C17.4408 19.2952 17.5415 19.5417 17.5415 19.8334C17.5415 20.1251 17.4408 20.3716 17.2394 20.573C17.038 20.7744 16.7915 20.8751 16.4998 20.8751ZM21.4998 20.8751C21.2082 20.8751 20.9616 20.7744 20.7603 20.573C20.5589 20.3716 20.4582 20.1251 20.4582 19.8334C20.4582 19.5417 20.5589 19.2952 20.7603 19.0938C20.9616 18.8924 21.2082 18.7917 21.4998 18.7917C21.7915 18.7917 22.038 18.8924 22.2394 19.0938C22.4408 19.2952 22.5415 19.5417 22.5415 19.8334C22.5415 20.1251 22.4408 20.3716 22.2394 20.573C22.038 20.7744 21.7915 20.8751 21.4998 20.8751ZM18.9998 25.6667C20.8609 25.6667 22.4373 25.0209 23.729 23.7292C25.0207 22.4376 25.6665 20.8612 25.6665 19.0001C25.6665 18.6667 25.6457 18.3438 25.604 18.0313C25.5623 17.7188 25.4859 17.4167 25.3748 17.1251C25.0832 17.1945 24.7915 17.2466 24.4998 17.2813C24.2082 17.3161 23.9026 17.3334 23.5832 17.3334C22.3193 17.3334 21.1248 17.0626 19.9998 16.5209C18.8748 15.9792 17.9165 15.2223 17.1248 14.2501C16.6804 15.3334 16.045 16.2744 15.2186 17.073C14.3922 17.8716 13.4304 18.4723 12.3332 18.8751V19.0001C12.3332 20.8612 12.979 22.4376 14.2707 23.7292C15.5623 25.0209 17.1387 25.6667 18.9998 25.6667ZM18.9998 27.3334C17.8471 27.3334 16.7637 27.1147 15.7498 26.6772C14.7359 26.2397 13.854 25.6459 13.104 24.8959C12.354 24.1459 11.7603 23.264 11.3228 22.2501C10.8853 21.2362 10.6665 20.1529 10.6665 19.0001C10.6665 17.8473 10.8853 16.764 11.3228 15.7501C11.7603 14.7362 12.354 13.8542 13.104 13.1042C13.854 12.3542 14.7359 11.7605 15.7498 11.323C16.7637 10.8855 17.8471 10.6667 18.9998 10.6667C20.1526 10.6667 21.2359 10.8855 22.2498 11.323C23.2637 11.7605 24.1457 12.3542 24.8957 13.1042C25.6457 13.8542 26.2394 14.7362 26.6769 15.7501C27.1144 16.764 27.3332 17.8473 27.3332 19.0001C27.3332 20.1529 27.1144 21.2362 26.6769 22.2501C26.2394 23.264 25.6457 24.1459 24.8957 24.8959C24.1457 25.6459 23.2637 26.2397 22.2498 26.6772C21.2359 27.1147 20.1526 27.3334 18.9998 27.3334Z" fill="white"/>
        </g>
        </symbol>
        <symbol id="icon-shield-check" fill="none" viewBox="0 0 40 40">
            <path fill-rule="evenodd" clip-rule="evenodd" d="M20.0001 2.08338C16.5688 2.08338 12.8252 3.29848 9.92814 4.50664L9.8168 4.55306C8.3097 5.18125 7.31851 5.59441 6.28311 6.55476C5.46488 7.31368 4.62291 8.57705 4.2374 9.62436C3.74926 10.9505 3.74956 12.2285 3.75003 14.1876L3.75006 14.3727L3.75006 17.8288L3.75005 18.0223C3.74983 21.6829 3.74971 23.7915 4.46752 25.9945C5.02734 27.7126 6.30286 29.915 7.51458 31.2555C9.06791 32.974 10.5079 33.8001 12.9942 35.2264L13.088 35.2802C14.3218 35.988 15.5708 36.6346 16.7229 37.1076C17.8452 37.5683 18.998 37.9167 20.0001 37.9167C21.0021 37.9167 22.1549 37.5683 23.2772 37.1076C24.4294 36.6346 25.6783 35.988 26.9121 35.2802L27.0059 35.2264C29.4922 33.8001 30.9322 32.974 32.4855 31.2555C33.6972 29.915 34.9728 27.7126 35.5326 25.9945C36.2504 23.7915 36.2503 21.6829 36.2501 18.0223L36.2501 17.8288L36.2501 14.3727L36.2501 14.1876C36.2506 12.2285 36.2508 10.9505 35.7627 9.62436C35.3772 8.57705 34.5352 7.31368 33.717 6.55476C32.6816 5.5944 31.6904 5.18125 30.1833 4.55305L30.072 4.50664C27.1749 3.29848 23.4313 2.08338 20.0001 2.08338ZM26.7173 14.9495C27.2054 15.4376 27.2054 16.2291 26.7173 16.7172L19.2173 24.2172C18.7291 24.7054 17.9377 24.7054 17.4495 24.2172L14.1162 20.8839C13.628 20.3957 13.628 19.6043 14.1162 19.1161C14.6043 18.628 15.3958 18.628 15.8839 19.1161L18.3334 21.5656L24.9495 14.9495C25.4377 14.4613 26.2291 14.4613 26.7173 14.9495Z" fill="white"/>
        </symbol>
        <symbol id="icon-more" fill="none" viewBox="0 0 24 25">
        <mask id="mask0_8427_921" style="mask-type:alpha" maskUnits="userSpaceOnUse" x="0" y="0" width="24" height="25">
            <rect y="0.5" width="24" height="24" color="#0008140D"/>
        </mask>
        <g mask="url(#mask0_8427_921)">
            <path d="M6 14.5C5.45 14.5 4.97917 14.3042 4.5875 13.9125C4.19583 13.5208 4 13.05 4 12.5C4 11.95 4.19583 11.4792 4.5875 11.0875C4.97917 10.6958 5.45 10.5 6 10.5C6.55 10.5 7.02083 10.6958 7.4125 11.0875C7.80417 11.4792 8 11.95 8 12.5C8 13.05 7.80417 13.5208 7.4125 13.9125C7.02083 14.3042 6.55 14.5 6 14.5ZM12 14.5C11.45 14.5 10.9792 14.3042 10.5875 13.9125C10.1958 13.5208 10 13.05 10 12.5C10 11.95 10.1958 11.4792 10.5875 11.0875C10.9792 10.6958 11.45 10.5 12 10.5C12.55 10.5 13.0208 10.6958 13.4125 11.0875C13.8042 11.4792 14 11.95 14 12.5C14 13.05 13.8042 13.5208 13.4125 13.9125C13.0208 14.3042 12.55 14.5 12 14.5ZM18 14.5C17.45 14.5 16.9792 14.3042 16.5875 13.9125C16.1958 13.5208 16 13.05 16 12.5C16 11.95 16.1958 11.4792 16.5875 11.0875C16.9792 10.6958 17.45 10.5 18 10.5C18.55 10.5 19.0208 10.6958 19.4125 11.0875C19.8042 11.4792 20 11.95 20 12.5C20 13.05 19.8042 13.5208 19.4125 13.9125C19.0208 14.3042 18.55 14.5 18 14.5Z" fill="#000814" fill-opacity="0.5"/>
        </g>
        </symbol>
        <symbol id="icon-more-light" fill="none" viewBox="0 0 24 25">
        <mask id="mask0_8427_980" style="mask-type:alpha" maskUnits="userSpaceOnUse" x="0" y="0" width="24" height="24">
            <rect width="24" height="24" fill="#D9D9D9"/>
        </mask>
        <g mask="url(#mask0_8427_980)">
            <path d="M6 14C5.45 14 4.97917 13.8042 4.5875 13.4125C4.19583 13.0208 4 12.55 4 12C4 11.45 4.19583 10.9792 4.5875 10.5875C4.97917 10.1958 5.45 10 6 10C6.55 10 7.02083 10.1958 7.4125 10.5875C7.80417 10.9792 8 11.45 8 12C8 12.55 7.80417 13.0208 7.4125 13.4125C7.02083 13.8042 6.55 14 6 14ZM12 14C11.45 14 10.9792 13.8042 10.5875 13.4125C10.1958 13.0208 10 12.55 10 12C10 11.45 10.1958 10.9792 10.5875 10.5875C10.9792 10.1958 11.45 10 12 10C12.55 10 13.0208 10.1958 13.4125 10.5875C13.8042 10.9792 14 11.45 14 12C14 12.55 13.8042 13.0208 13.4125 13.4125C13.0208 13.8042 12.55 14 12 14ZM18 14C17.45 14 16.9792 13.8042 16.5875 13.4125C16.1958 13.0208 16 12.55 16 12C16 11.45 16.1958 10.9792 16.5875 10.5875C16.9792 10.1958 17.45 10 18 10C18.55 10 19.0208 10.1958 19.4125 10.5875C19.8042 10.9792 20 11.45 20 12C20 12.55 19.8042 13.0208 19.4125 13.4125C19.0208 13.8042 18.55 14 18 14Z" fill="#000814" fill-opacity="0.05"/>
        </g>
        </symbol>
    </defs>
</svg>
