<svg width="32" height="32" viewBox="0 0 32 32" fill="none" xmlns="http://www.w3.org/2000/svg">
<rect x="-0.00195312" width="32.0023" height="32" rx="16" fill="#343434"/>
<path d="M23.3695 11.1982L7.99609 24L20.7965 8.6279C20.9605 8.43902 21.1616 8.2859 21.3873 8.17808C21.6129 8.07025 21.8584 8.01003 22.1084 8.00115C22.3583 7.99227 22.6075 8.03493 22.8402 8.12647C23.073 8.21801 23.2845 8.35648 23.4614 8.53325C23.6384 8.71002 23.7771 8.92132 23.8688 9.154C23.9606 9.38668 24.0035 9.63575 23.9949 9.88573C23.9863 10.1357 23.9263 10.3812 23.8187 10.607C23.7111 10.8328 23.5582 11.0341 23.3695 11.1982Z" fill="white"/>
<path d="M8.93956 15.2175L15.4118 10.3635C15.5438 10.264 15.6529 10.1373 15.7318 9.992C15.8107 9.84671 15.8575 9.68618 15.869 9.52126C15.8805 9.35634 15.8565 9.19087 15.7986 9.03601C15.7407 8.88116 15.6503 8.74054 15.5334 8.62364C15.4165 8.50673 15.2759 8.41628 15.121 8.35838C14.9662 8.30048 14.8007 8.27648 14.6358 8.28801C14.4708 8.29954 14.3103 8.34632 14.165 8.4252C14.0197 8.50408 13.8931 8.61322 13.7936 8.74525L8.93956 15.2175Z" fill="white"/>
<path d="M16.7766 23.0565L23.2488 18.2025C23.3809 18.103 23.49 17.977 23.5689 17.8317C23.6478 17.6864 23.6946 17.5259 23.7061 17.361C23.7176 17.1961 23.6936 17.0306 23.6357 16.8758C23.5778 16.7209 23.4874 16.5803 23.3705 16.4634C23.2536 16.3465 23.1129 16.256 22.9581 16.1981C22.8032 16.1402 22.6378 16.1162 22.4728 16.1278C22.3079 16.1393 22.1474 16.1861 22.0021 16.2649C21.8568 16.3438 21.7301 16.453 21.6306 16.585L16.7766 23.0565Z" fill="white"/>
</svg>
