<svg width="32" height="32" viewBox="0 0 32 32" fill="none" xmlns="http://www.w3.org/2000/svg">
<rect x="-0.00195312" width="32.0023" height="32" rx="16" fill="#343434"/>
<path fill-rule="evenodd" clip-rule="evenodd" d="M5.91602 15.9238L15.9162 5.92383L25.916 15.9242L15.9162 25.9238L5.91602 15.9238ZM7.33006 15.2169L15.2093 7.33785L12.5829 12.5905L7.33006 15.2169ZM7.53409 15.6739L12.2102 13.3359L11.0412 15.6739H7.53409ZM12.9556 12.9632L11.6002 15.6739H13.4162C14.0129 15.6739 14.5852 15.4369 15.0073 15.0149C15.4292 14.593 15.6662 14.0206 15.6662 13.4239V11.6079L12.9556 12.9632ZM7.5341 16.1739H11.0412L12.2102 18.5119L7.5341 16.1739ZM11.6002 16.1739L12.9556 18.8846L15.6662 20.2399V18.4239C15.6662 17.8272 15.4292 17.2549 15.0073 16.8329C14.5852 16.4109 14.0129 16.1739 13.4162 16.1739H11.6002ZM7.33047 16.6312L12.5829 19.2573L15.2091 24.5096L7.33047 16.6312ZM13.3283 19.63L15.6662 24.3059V20.7989L13.3283 19.63ZM24.5017 16.6313L16.6237 24.5092L19.2497 19.2572L24.5017 16.6313ZM16.1663 24.306L18.5043 19.63L16.1663 20.799V24.306ZM24.2984 16.1739L19.6224 18.5119L20.7914 16.1739H24.2984ZM18.8771 18.8846L20.2324 16.1739H18.4163C18.1208 16.1739 17.8282 16.2321 17.5553 16.3452C17.2823 16.4583 17.0342 16.624 16.8253 16.8329C16.6164 17.0419 16.4506 17.2899 16.3375 17.5629C16.2245 17.8359 16.1663 18.1285 16.1663 18.4239V20.24L18.8771 18.8846ZM24.2985 15.6739H20.7915L19.6224 13.3359L24.2985 15.6739ZM20.2324 15.6739L18.8771 12.9632L16.1663 11.6079V13.4239C16.1663 13.7194 16.2245 14.012 16.3375 14.285C16.4506 14.5579 16.6164 14.806 16.8253 15.0149C17.2473 15.4369 17.8196 15.6739 18.4163 15.6739H20.2324ZM24.5021 15.2167L19.2497 12.5906L16.6235 7.33826L24.5021 15.2167ZM18.5043 12.2179L16.1663 7.54179V11.0489L18.5043 12.2179ZM15.6662 11.0489V7.54196L13.3282 12.2179L15.6662 11.0489Z" fill="white"/>
</svg>
