<svg width="32" height="32" viewBox="0 0 32 32" fill="none" xmlns="http://www.w3.org/2000/svg">
<rect x="-0.00195312" width="32.0023" height="32" rx="16" fill="#FFFCF0"/>
<g clip-path="url(#clip0_2164_13293)">
<path d="M23.0209 19.5604C23.1893 19.8558 23.1639 20.1389 22.8616 20.563C22.7905 20.6626 22.7722 20.7519 22.7888 20.8878L22.7904 20.9002C22.7958 20.9405 22.8022 20.9753 22.8155 21.0373L22.8467 21.1785L22.8566 21.2251C22.877 21.3238 22.8878 21.3927 22.8939 21.4718L22.8954 21.493C22.9061 21.6566 22.888 21.8113 22.8332 21.9654C22.7146 22.2994 22.4324 22.6009 21.9497 22.9017L21.9117 22.9252C21.6769 23.0684 21.4268 23.1751 21.1556 23.2533L21.1134 23.2653C20.812 23.3495 20.5757 23.3846 20.072 23.4345L19.8911 23.4522C19.3522 23.5065 19.1252 23.56 18.9437 23.6899L18.9365 23.6952C18.7194 23.8552 18.6012 24.1557 18.5962 24.7085L18.5959 24.7612C18.5912 25.2526 18.3666 25.633 17.9428 25.8592C17.5579 26.0646 17.0166 26.1399 16.3136 26.0991C14.9753 26.0213 12.9973 25.5162 10.3671 24.5851L10.0517 24.4734L10.1859 24.1661C10.8897 22.5551 10.5882 20.6511 9.25137 18.4326L8.86381 17.7883C8.47781 17.1445 8.32216 16.8747 8.13117 16.5201L8.06502 16.3965L8.02879 16.328C7.69436 15.6912 7.46303 15.1451 7.31262 14.6133C6.81663 12.8597 7.2069 11.1807 8.72122 8.85303C10.5863 5.98617 14.0076 5.37915 18.9034 6.98523C21.4745 7.85436 22.7722 9.87889 22.7722 12.9864V13.0578L22.7412 13.122C22.4052 13.8191 22.4052 14.3892 22.7212 14.8717C22.827 15.0332 22.9541 15.2058 23.1361 15.4385L23.2035 15.5243L23.4681 15.8586C23.7437 16.2084 23.8547 16.3589 23.9743 16.5488L24.0062 16.6001L24.0244 16.6301C24.2455 16.9985 24.3293 17.2956 24.2212 17.5703C24.1484 17.7553 24.0046 17.8932 23.8056 18.0031C23.6681 18.079 23.5124 18.1386 23.3008 18.2039L23.2532 18.2182C23.1855 18.2385 23.0817 18.2691 23.0252 18.2859L22.9766 18.3005L22.95 18.3088C22.8984 18.3251 22.8558 18.3396 22.821 18.3529L22.8353 18.3736C22.8489 18.3933 22.8653 18.4163 22.8848 18.4433L22.9169 18.4875L22.9375 18.516C23.0405 18.6604 23.0946 18.7568 23.1313 18.8845C23.1912 19.0928 23.1588 19.303 23.0258 19.497L23.0178 19.5084C23.015 19.5124 23.0123 19.5163 23.0099 19.5199L23.0033 19.5302L23.0209 19.5604ZM22.1496 12.833C22.1092 10.0706 20.9686 8.34115 18.7075 7.57682C14.0531 6.04992 10.926 6.60475 9.24169 9.19368C7.81794 11.3822 7.46914 12.8827 7.9105 14.4432C8.05027 14.9373 8.27099 15.4553 8.59654 16.0714L8.65775 16.1862C8.86782 16.5777 9.02588 16.8505 9.49244 17.627L9.78324 18.1101C11.1348 20.3531 11.5086 22.3572 10.8793 24.1045C13.3063 24.9491 15.1334 25.4061 16.3496 25.4768L16.3972 25.4794C16.9721 25.5083 17.3917 25.4472 17.6509 25.3089C17.8702 25.1918 17.9712 25.0225 17.9745 24.7584L17.9746 24.7224C17.9785 23.9692 18.1742 23.4749 18.5827 23.1825C18.76 23.0556 18.9679 22.9732 19.2211 22.9179L19.2449 22.9128C19.3992 22.8802 19.5475 22.8602 19.799 22.8349L20.0286 22.8124C20.4853 22.7669 20.6952 22.7352 20.9515 22.6634L20.9838 22.6542C21.204 22.5907 21.4034 22.5057 21.5887 22.3926L21.6216 22.3723C21.9944 22.1402 22.1828 21.9392 22.2478 21.7562C22.2917 21.6326 22.2868 21.528 22.2332 21.2829L22.2112 21.1834L22.2055 21.157C22.1902 21.0855 22.1822 21.0408 22.1745 20.9837L22.1725 20.9682C22.1379 20.6901 22.1838 20.4484 22.3469 20.2134L22.3654 20.1871C22.4175 20.1129 22.454 20.0503 22.4768 19.999C22.4926 19.9636 22.4999 19.9382 22.5019 19.9211L22.5023 19.9176C22.5029 19.9097 22.5025 19.9066 22.4897 19.8841L22.4635 19.8391L22.4531 19.821C22.3339 19.6084 22.3376 19.3988 22.5033 19.1586L22.5135 19.1441L22.5179 19.1375C22.5569 19.0765 22.5418 19.0304 22.4181 18.8594L22.3504 18.7663L22.3284 18.7355C22.3058 18.7036 22.2928 18.6837 22.2767 18.6575L22.2581 18.6265C22.2045 18.5347 22.1696 18.4466 22.1562 18.3504C22.1526 18.3242 22.1507 18.2978 22.1507 18.2714C22.1507 18.0733 22.2656 17.9393 22.4384 17.8438C22.5264 17.7952 22.6283 17.7563 22.776 17.7102L22.8308 17.6935C22.8797 17.6789 22.9816 17.6489 23.0536 17.6275L23.1181 17.608L23.1481 17.5987C23.4575 17.5009 23.6154 17.4119 23.6431 17.3415C23.644 17.3392 23.645 17.333 23.6447 17.3206C23.6439 17.2988 23.6385 17.2698 23.6276 17.2341C23.6027 17.1532 23.553 17.0512 23.4783 16.9291L23.4552 16.8919C23.3504 16.7248 23.2493 16.5868 22.9987 16.2683L22.7161 15.911L22.6609 15.8408L22.6134 15.78C22.4485 15.568 22.326 15.4014 22.2199 15.2415L22.2017 15.2139C21.772 14.5576 21.757 13.7887 22.1388 12.9426L22.1505 12.917L22.1496 12.833Z" fill="#FF6800"/>
<path fill-rule="evenodd" clip-rule="evenodd" d="M9.51757 18.2713C7.4404 14.8243 6.31971 13.1152 8.98173 9.02334C10.7564 6.29543 14.0306 5.71451 18.8044 7.28056C21.2426 8.10476 22.4617 10.0067 22.4617 12.9864C22.0811 13.776 22.0811 14.4615 22.4617 15.0428C23.0327 15.9147 24.1287 16.9569 23.9324 17.4559C23.7362 17.9548 22.4617 17.9548 22.4617 18.2713C22.4617 18.5879 23.0679 18.8999 22.7648 19.3278C22.4617 19.7557 23.1261 19.6565 22.6091 20.3816C22.0921 21.1067 23.3278 21.6966 21.7505 22.6589C20.1732 23.6211 18.2855 22.4329 18.2855 24.7453C18.2855 26.2868 15.6806 26.1355 10.4708 24.2912C11.2201 22.576 10.9024 20.5694 9.51757 18.2713Z" fill="#FFFCF0"/>
<path fill-rule="evenodd" clip-rule="evenodd" d="M21.6738 12.5871C21.3111 10.214 20.5876 8.85557 19.5032 8.51187C17.8767 7.99632 13.2181 6.05341 10.6887 8.21038C9.00242 9.64836 8.10118 11.5036 7.98495 13.7761C8.19696 14.6457 8.72288 15.6691 9.56269 16.8463C10.8224 18.6122 11.1881 18.2362 11.1881 17.508C11.1881 16.7797 13.5008 18.6996 14.1697 16.0804C14.6156 14.3343 15.4747 13.7053 16.747 14.1933C18.9451 14.4228 20.3168 14.2837 20.862 13.7761C21.4073 13.2684 21.6779 12.8721 21.6738 12.5871Z" fill="url(#paint0_linear_2164_13293)"/>
<path d="M14.807 15.7833C16.3338 15.7833 17.5711 14.5422 17.5711 13.0118C17.5711 11.4813 16.3338 10.2402 14.807 10.2402C13.2803 10.2402 12.043 11.4813 12.043 13.0118C12.043 14.5422 13.2803 15.7833 14.807 15.7833ZM14.807 15.491C13.4419 15.491 12.3353 14.381 12.3353 13.0118C12.3353 11.6425 13.4419 10.5325 14.807 10.5325C16.1722 10.5325 17.2788 11.6425 17.2788 13.0118C17.2788 14.381 16.1722 15.491 14.807 15.491Z" fill="white"/>
<path d="M14.8077 15.4897C16.1728 15.4897 17.2795 14.3797 17.2795 13.0105C17.2795 11.6412 16.1728 10.5312 14.8077 10.5312C13.4426 10.5312 12.3359 11.6412 12.3359 13.0105C12.3359 14.3797 13.4426 15.4897 14.8077 15.4897Z" fill="#FF6800"/>
<path d="M15.6685 13.0426L14.8072 13.5831L13.9453 13.0426L14.8072 11.5234L15.6685 13.0426ZM14.8069 13.7579L13.9453 13.2235L14.8069 14.4985L15.6685 13.2235L14.8069 13.7579Z" fill="white"/>
<path d="M9.75391 16.0878L9.91756 16.304L9.97393 16.1799C10.3258 15.405 10.6363 15.3173 11.0104 15.8664L11.0272 15.8914C11.5018 16.6084 12.0534 16.5963 12.602 15.8674L12.6537 15.7973L12.5338 15.542L12.453 15.6524C11.9925 16.2812 11.6096 16.3076 11.2247 15.7448L11.2064 15.7175C10.7218 14.9855 10.2142 15.0993 9.78978 16.0093L9.75391 16.0878ZM9.92601 16.1016L9.94193 16.0672L9.91256 16.0284L9.92078 16.1022L9.92601 16.1016ZM9.92601 16.1016L9.96474 16.0973L9.94193 16.0672L9.97429 15.9998C10.3297 15.2783 10.6687 15.2167 11.0534 15.7811L11.071 15.8072C11.5278 16.4972 12.0526 16.474 12.584 15.7483L12.445 15.7349L12.4656 15.7787C11.9928 16.4032 11.5833 16.4173 11.1817 15.8302L11.1626 15.8018C10.701 15.1045 10.2306 15.222 9.82608 16.1127L9.92078 16.1022L9.92175 16.111L9.92601 16.1016ZM12.4862 15.8227L12.4942 15.7403L12.4656 15.7787L12.4862 15.8227Z" fill="white"/>
<path d="M9.23141 13.4562C9.58801 12.671 9.90981 12.5836 10.2916 13.149L10.3032 13.1663C10.7802 13.8869 11.3317 13.8646 11.8838 13.1107L11.9086 13.0767L11.7989 12.843L11.7287 12.939C11.2615 13.5769 10.8679 13.6005 10.4765 13.0214L10.4646 13.0037C9.97916 12.2704 9.47521 12.3938 9.05069 13.3286L9.0332 13.3671L9.1824 13.5641L9.23141 13.4562ZM9.1712 13.3151L9.17923 13.3873L9.18804 13.368L9.19686 13.349L9.1712 13.3151ZM10.3347 13.0637L10.347 13.0821C10.7995 13.7657 11.3152 13.7429 11.8425 13.0228L11.7217 13.0111L11.7449 13.0605C11.2637 13.6989 10.8423 13.7116 10.4333 13.1065L10.4209 13.088C9.96444 12.3985 9.50432 12.5135 9.10287 13.3975L9.22339 13.384L9.19686 13.349C9.56994 12.549 9.92988 12.4646 10.3347 13.0637ZM11.763 13.0989L11.7699 13.0268L11.7574 13.0438L11.7449 13.0605L11.763 13.0989Z" fill="white"/>
<path d="M10.2763 10.7355C10.6329 9.95028 10.9547 9.86289 11.3365 10.4283L11.3481 10.4456C11.8252 11.1662 12.3766 11.1439 12.9287 10.39L12.9536 10.356L12.8439 10.1223L12.7736 10.2183C12.3064 10.8562 11.9129 10.8798 11.5214 10.3007L11.5095 10.283C11.0241 9.54965 10.5201 9.67306 10.0956 10.6078L10.0781 10.6464L10.2273 10.8434L10.2763 10.7355ZM10.2161 10.5944L10.2241 10.6666L10.233 10.6473L10.2418 10.6283L10.2161 10.5944ZM11.3796 10.343L11.3919 10.3614C11.8444 11.045 12.3602 11.0221 12.8874 10.3021L12.7666 10.2904L12.7898 10.3398C12.3086 10.9782 11.8872 10.9909 11.4782 10.3858L11.4658 10.3673C11.0094 9.67779 10.5492 9.7928 10.1478 10.6768L10.2683 10.6633L10.2418 10.6283C10.6149 9.82834 10.9748 9.74394 11.3796 10.343ZM12.8079 10.3782L12.8149 10.3061L12.8023 10.3231L12.7898 10.3398L12.8079 10.3782Z" fill="white"/>
<path d="M12.043 8.6933L12.2066 8.90948L12.263 8.78535C12.6096 8.02205 12.916 7.92556 13.2828 8.44773L13.3163 8.4969C13.7909 9.21384 14.3425 9.20173 14.8911 8.47289L14.9427 8.4028L14.8229 8.14745L14.742 8.25785C14.2889 8.87666 13.9108 8.91211 13.5321 8.3766L13.4954 8.323C13.0108 7.59098 12.5032 7.70477 12.0788 8.61478L12.043 8.6933ZM12.2151 8.70708L12.231 8.67264L12.2016 8.63384L12.2098 8.70766L12.2151 8.70708ZM12.2538 8.70277L12.231 8.67264L12.2638 8.60426C12.619 7.88373 12.9579 7.8224 13.3425 8.38655L13.36 8.41263C13.8168 9.1027 14.3416 9.07947 14.873 8.35379L14.734 8.34033L14.7546 8.3842C14.2819 9.00869 13.8723 9.02281 13.4708 8.43568L13.4517 8.40726C12.99 7.70994 12.5196 7.82751 12.1151 8.7182L12.2098 8.70766L12.2108 8.71642L12.2151 8.70708L12.2538 8.70277ZM14.7753 8.4282L14.7833 8.34573L14.7546 8.3842L14.7753 8.4282Z" fill="white"/>
<path d="M15.8134 9.80191C16.17 9.01669 16.4918 8.9293 16.8736 9.4947L16.8852 9.51203C17.3623 10.2326 17.9137 10.2103 18.4658 9.4564L18.4907 9.42242L18.381 9.18873L18.3107 9.28466C17.8435 9.92263 17.45 9.94623 17.0585 9.36713L17.0467 9.3494C16.5612 8.61606 16.0572 8.73946 15.6327 9.67425L15.6152 9.71276L15.7644 9.90983L15.8134 9.80191ZM15.7532 9.66078L15.7613 9.73298L15.7701 9.71369L15.7789 9.69467L15.7532 9.66078ZM16.9167 9.40941L16.929 9.42777C17.3815 10.1114 17.8973 10.0886 18.4245 9.36853L18.3037 9.35677L18.3269 9.40621C17.8457 10.0446 17.4244 10.0573 17.0153 9.45219L17.0029 9.43367C16.5465 8.7442 16.0863 8.85921 15.6849 9.74318L15.8054 9.72971L15.7789 9.69467C16.152 8.89475 16.5119 8.81034 16.9167 9.40941ZM18.345 9.44464L18.352 9.37253L18.3394 9.38951L18.3269 9.40621L18.345 9.44464Z" fill="white"/>
<path d="M17.6305 12.1106L17.6868 11.9865L17.7182 11.919C18.0573 11.207 18.3603 11.1404 18.7233 11.6731L18.7401 11.6981C19.2214 12.4251 19.7819 12.4024 20.3381 11.6428L20.3666 11.604L20.2467 11.3486L20.1658 11.459C19.7054 12.0878 19.3225 12.1143 18.9376 11.5514L18.9193 11.5242C18.4347 10.7922 17.9271 10.9059 17.5027 11.8159L17.4668 11.8945L17.6305 12.1106ZM17.6389 11.9083L17.6548 11.8738L17.6254 11.835L17.6337 11.9088L17.6389 11.9083ZM17.6776 11.9039L17.6548 11.8738L17.6872 11.8064C18.0426 11.085 18.3816 11.0233 18.7663 11.5877L18.7839 11.6138C19.2407 12.3039 19.7655 12.2806 20.2969 11.555L20.1579 11.5415L20.1785 11.5854L20.1336 11.643C19.6797 12.2102 19.2834 12.2053 18.8946 11.6368L18.8755 11.6084C18.4139 10.9111 17.9435 11.0287 17.539 11.9194L17.6337 11.9088L17.6346 11.9176L17.6389 11.9083L17.6776 11.9039ZM20.1991 11.6294L20.2071 11.5469L20.1785 11.5854L20.1991 11.6294Z" fill="white"/>
</g>
<defs>
<linearGradient id="paint0_linear_2164_13293" x1="-1118.4" y1="552.251" x2="-335.582" y2="301.785" gradientUnits="userSpaceOnUse">
<stop stop-color="#FF9900"/>
<stop offset="1" stop-color="#FFC700"/>
</linearGradient>
<clipPath id="clip0_2164_13293">
<rect width="17.193" height="20" fill="white" transform="translate(7.10938 6.11133)"/>
</clipPath>
</defs>
</svg>
