<svg width="40" height="40" viewBox="0 0 40 40" fill="none" xmlns="http://www.w3.org/2000/svg">
<path d="M35.0075 4.35352L22.001 14.0541L24.4062 8.33087L35.0075 4.35352Z" fill="#E2761B"/>
<path d="M4.98192 4.35352L17.8839 14.146L15.5963 8.33087L4.98192 4.35352ZM30.3283 26.8394L26.8643 32.1688L34.276 34.2165L36.4068 26.9575L30.3283 26.8394ZM3.60938 26.9575L5.72702 34.2165L13.1388 32.1688L9.67474 26.8394L3.60938 26.9575Z" fill="#E4761B"/>
<path d="M12.7206 17.8337L10.6553 20.9709L18.0147 21.2991L17.7533 13.3575L12.7206 17.8337ZM27.2696 17.8337L22.1716 13.2656L22.0017 21.2991L29.3481 20.9709L27.2696 17.8337ZM13.1389 32.1679L17.5572 30.002L13.7402 27.0092L13.1389 32.1679ZM22.433 30.002L26.8644 32.1679L26.25 27.0092L22.433 30.002Z" fill="#E4761B"/>
<path d="M26.8642 32.1678L22.4328 30.002L22.7857 32.9029L22.7465 34.1237L26.8642 32.1678ZM13.1387 32.1678L17.2563 34.1237L17.2302 32.9029L17.557 30.002L13.1387 32.1678Z" fill="#D7C1B3"/>
<path d="M17.321 25.0946L13.6348 24.0051L16.2361 22.8105L17.321 25.0946ZM22.6674 25.0946L23.7524 22.8105L26.3668 24.0051L22.6674 25.0946Z" fill="#233447"/>
<path d="M13.1379 32.1677L13.7653 26.8383L9.67383 26.9564L13.1379 32.1677ZM26.2359 26.8383L26.8634 32.1677L30.3274 26.9564L26.2359 26.8383ZM29.347 20.9707L22.0006 21.2989L22.6804 25.0925L23.7653 22.8084L26.3797 24.0029L29.347 20.9707ZM13.6346 24.0029L16.249 22.8084L17.3209 25.0925L18.0137 21.2989L10.6542 20.9707L13.6346 24.0029Z" fill="#CD6116"/>
<path d="M10.6553 20.9707L13.7402 27.0089L13.6357 24.0029L10.6553 20.9707ZM26.3808 24.0029L26.25 27.0089L29.3481 20.9707L26.3808 24.0029ZM18.0147 21.2989L17.3219 25.0925L18.1847 29.5686L18.3808 23.6748L18.0147 21.2989ZM22.0017 21.2989L21.6487 23.6617L21.8056 29.5686L22.6814 25.0925L22.0017 21.2989Z" fill="#E4751F"/>
<path d="M22.6805 25.0954L21.8047 29.5715L22.4322 30.0047L26.2491 27.0119L26.3799 24.0059L22.6805 25.0954ZM13.6348 24.0059L13.7393 27.0119L17.5563 30.0047L18.1838 29.5715L17.321 25.0954L13.6348 24.0059Z" fill="#F6851B"/>
<path d="M22.7465 34.1258L22.7857 32.905L22.4589 32.6162H17.5308L17.2302 32.905L17.2563 34.1258L13.1387 32.1699L14.5766 33.3513L17.4916 35.3859H22.4981L25.4263 33.3513L26.8642 32.1699L22.7465 34.1258Z" fill="#C0AD9E"/>
<path d="M22.4311 30.0015L21.8037 29.5684H18.1828L17.5553 30.0015L17.2285 32.9025L17.5292 32.6137H22.4573L22.7841 32.9025L22.4311 30.0015Z" fill="#161616"/>
<path d="M35.5562 14.6841L36.6673 9.32849L35.0072 4.35352L22.432 13.7259L27.2686 17.8345L34.1052 19.8429L35.6216 18.0708L34.968 17.5982L36.0137 16.64L35.2033 16.0099L36.249 15.2092L35.5562 14.6841ZM3.33398 9.32849L4.4451 14.6841L3.73921 15.2092L4.78497 16.0099L3.98758 16.64L5.03333 17.5982L4.37974 18.0708L5.883 19.8429L12.7196 17.8345L17.5562 13.7259L4.98104 4.35352L3.33398 9.32849Z" fill="#763D16"/>
<path d="M34.1061 19.8441L27.2695 17.8357L29.3479 20.9729L26.2499 27.0112L30.3283 26.9587H36.4068L34.1061 19.8441ZM12.7205 17.8357L5.88388 19.8441L3.60938 26.9587H9.67474L13.7401 27.0112L10.6551 20.9729L12.7205 17.8357ZM22.0015 21.3011L22.4329 13.7271L24.4198 8.33203H15.5963L17.5571 13.7271L18.0146 21.3011L18.1715 23.6901L18.1845 29.5709H21.8055L21.8316 23.6901L22.0015 21.3011Z" fill="#F6851B"/>
</svg>
