<svg width="32" height="32" viewBox="0 0 32 32" fill="none" xmlns="http://www.w3.org/2000/svg">
<rect x="-0.00195312" width="32.0023" height="32" rx="16" fill="#C8FF00"/>
<path d="M9.33876 10.1193C9.51948 8.78073 10.7505 7.84208 12.089 8.02212L21.8784 9.34093C23.2173 9.52131 24.1562 10.7523 23.9759 12.0912L22.6571 21.8807C22.477 23.2192 21.2454 24.1582 19.9072 23.9778L10.1174 22.6593C8.77891 22.479 7.83959 21.2476 8.02031 19.9091L9.33876 10.1193ZM12.183 10.1858C12.1481 10.2124 12.1255 10.2513 12.1193 10.2949L10.726 20.507C10.7202 20.5503 10.7315 20.5936 10.7585 20.6287C10.7853 20.6635 10.8236 20.686 10.8671 20.6918L12.5615 20.9215C12.6043 20.9266 12.6478 20.916 12.6828 20.8898C12.718 20.8629 12.7407 20.8244 12.7465 20.7807L13.6839 13.9103L17.9116 21.4986C17.9677 21.5991 18.0698 21.6686 18.1842 21.6843L19.9064 21.9178C19.9495 21.9236 19.9934 21.9123 20.0286 21.8858C20.0636 21.8588 20.0865 21.8203 20.0923 21.7767L21.4853 11.5646C21.4912 11.5209 21.4799 11.4777 21.4531 11.4429C21.4264 11.4078 21.3881 11.3856 21.3446 11.3798L19.6508 11.1501C19.606 11.1447 19.5638 11.1552 19.5286 11.1818C19.4936 11.2084 19.471 11.2472 19.4649 11.2909L18.5277 18.1613L14.3001 10.5731C14.2443 10.4725 14.1426 10.4026 14.0282 10.3876L12.305 10.1538C12.2605 10.1484 12.2183 10.1596 12.183 10.1858Z" fill="black"/>
</svg>
