<svg width="32" height="32" viewBox="0 0 32 32" fill="none" xmlns="http://www.w3.org/2000/svg">
<rect x="-0.00195312" width="32.0023" height="32" rx="16" fill="#2E65F5"/>
<path d="M22.8177 10.2188V14.7579L9.48438 20.1215L22.8177 10.2188Z" fill="#5BC6FA"/>
<path d="M20.3182 10.0273V17.8578C20.3182 18.952 19.8792 20.0015 19.0978 20.7752C18.3163 21.549 17.2564 21.9837 16.1513 21.9837C15.0462 21.9837 13.9863 21.549 13.2048 20.7752C12.4234 20.0015 11.9844 18.952 11.9844 17.8578V14.5582L14.4841 13.1961V17.8578C14.4607 18.0612 14.481 18.2673 14.5436 18.4624C14.6062 18.6576 14.7097 18.8374 14.8475 18.9902C14.9852 19.143 15.1539 19.2652 15.3426 19.3489C15.5314 19.4326 15.7358 19.4759 15.9426 19.4759C16.1494 19.4759 16.3539 19.4326 16.5426 19.3489C16.7314 19.2652 16.9001 19.143 17.0378 18.9902C17.1755 18.8374 17.2791 18.6576 17.3417 18.4624C17.4043 18.2673 17.4246 18.0612 17.4012 17.8578V11.6075L20.3182 10.0273Z" fill="white"/>
</svg>
