<svg width="32" height="32" viewBox="0 0 32 32" fill="none" xmlns="http://www.w3.org/2000/svg">
<rect width="32" height="32" rx="16" fill="black"/>
<path d="M22.1304 13.4116C21.7931 12.6198 21.3161 11.9094 20.6995 11.2923C20.083 10.6751 19.385 10.1977 18.594 9.85995C17.768 9.51061 16.8955 9.33594 15.9998 9.33594C15.0924 9.33594 14.2199 9.51061 13.4056 9.85995C12.6145 10.1977 11.9049 10.6751 11.2884 11.2923C10.6718 11.9094 10.1948 12.6198 9.85748 13.4116C9.50848 14.2267 9.33398 15.1001 9.33398 16.0084C9.33398 16.9051 9.50848 17.7784 9.85748 18.6052C10.1948 19.3971 10.6718 20.1074 11.2884 20.7246C11.9049 21.3417 12.6145 21.8192 13.4056 22.1452C14.2315 22.4946 15.104 22.6693 15.9998 22.6693C16.8955 22.6693 17.768 22.4946 18.594 22.1452C19.385 21.8076 20.0946 21.3301 20.7112 20.7129C21.3278 20.0957 21.8047 19.3854 22.1421 18.5936C22.4911 17.7668 22.6656 16.8934 22.6656 15.9968C22.6656 15.1001 22.4794 14.2267 22.1304 13.4116ZM13.7895 15.3796C14.057 14.3083 15.0342 13.5281 16.1859 13.5281H20.8159C21.1183 14.0987 21.3045 14.7275 21.3743 15.3796H13.7895ZM21.3743 16.6373C21.3045 17.2894 21.1067 17.9182 20.8159 18.4888H16.1859C15.0342 18.4888 14.0687 17.6969 13.7895 16.6373H21.3743ZM12.1725 12.1773C13.1962 11.1525 14.5573 10.5936 15.9998 10.5936C17.4423 10.5936 18.8034 11.1525 19.8271 12.1773C19.862 12.2122 19.8853 12.2355 19.9201 12.2704H16.1859C15.1854 12.2704 14.2548 12.6547 13.5452 13.365C12.9868 13.924 12.6262 14.6227 12.5098 15.3796H10.6253C10.7649 14.1685 11.3 13.0506 12.1725 12.1773ZM15.9998 21.4233C14.5573 21.4233 13.1962 20.8643 12.1725 19.8396C11.3 18.9662 10.7649 17.8366 10.6253 16.6373H12.5098C12.6378 17.3942 12.9984 18.0929 13.5452 18.6518C14.2548 19.3621 15.1854 19.7464 16.1859 19.7464H19.9201C19.8853 19.7813 19.862 19.8046 19.8271 19.8396C18.8034 20.8643 17.4423 21.4233 15.9998 21.4233Z" fill="white"/>
</svg>
