<svg width="32" height="32" viewBox="0 0 32 32" fill="none" xmlns="http://www.w3.org/2000/svg">
<rect x="-0.00195312" width="32.0023" height="32" rx="16" fill="#343434"/>
<mask id="mask0_2164_13339" style="mask-type:luminance" maskUnits="userSpaceOnUse" x="5" y="6" width="21" height="20">
<path d="M25.9941 6H5.99414V26H25.9941V6Z" fill="white"/>
</mask>
<g mask="url(#mask0_2164_13339)">
<path fill-rule="evenodd" clip-rule="evenodd" d="M7.26459 8.20087L6.51078 8.16094L6.50737 8.92223L6.50699 9.08095C6.50676 9.20452 6.50647 9.41795 6.50617 9.77747C6.50556 10.4965 6.50496 11.8005 6.50496 14.1404V14.441L7.39813 15.3418C7.04447 15.5662 6.68916 15.788 6.3322 16.0072L5.98717 16.2191L5.98438 21.2375L10.1041 25.3952L10.3746 25.4129C15.4296 25.746 20.6285 25.3765 25.4995 23.6817L25.9844 23.513V17.4826L24.9305 16.4198C25.1101 16.2411 25.2892 16.0608 25.4671 15.8794L25.6749 15.6673V15.3692C25.6749 15.1633 25.6755 14.0855 25.6761 13.0587L25.6775 10.7561L21.4342 6.47656L21.0119 6.61926C16.6263 8.10094 11.9227 8.4475 7.26459 8.20087ZM21.2404 7.30732L24.9579 11.0565C24.9579 11.0565 24.9555 14.957 24.9555 15.3692C24.7787 15.5494 24.6005 15.7288 24.4218 15.9067C24.2506 16.0771 24.0788 16.2464 23.9072 16.414L25.2648 17.7832V22.9957C20.511 24.6497 15.4141 25.0178 10.4215 24.6888L6.70405 20.9372L6.70645 16.627C7.11296 16.3773 7.51744 16.1243 7.91982 15.8679C8.12744 15.7355 8.33447 15.6023 8.54099 15.4682L7.22447 14.1404C7.22447 11.6568 7.22515 10.3405 7.22578 9.65211C7.22634 9.0434 7.22687 8.92547 7.22687 8.92547C7.46646 8.93818 7.7063 8.94936 7.94627 8.95884C12.4284 9.13676 16.9706 8.74993 21.2404 7.30732Z" fill="white"/>
<path fill-rule="evenodd" clip-rule="evenodd" d="M21.2434 7.30859C16.745 8.82845 11.9442 9.17646 7.22986 8.92676C7.22986 8.92676 7.22746 9.46208 7.22746 14.1417L8.54394 15.4695C7.93737 15.8635 7.32574 16.2498 6.70943 16.6283L6.70703 20.9385L10.4244 24.6901C15.4172 25.0191 20.514 24.651 25.2679 22.997V17.7845L23.9101 16.4153C24.2609 16.0726 24.6125 15.7233 24.9584 15.3705C24.9584 14.9583 24.9608 11.0577 24.9608 11.0577L21.2434 7.30859ZM23.5194 15.044V12.9542L23.517 12.9517C20.2792 13.8636 17.0415 14.2095 13.8037 14.2095C13.3289 14.2095 12.8564 14.2022 12.3815 14.1877V16.5001C12.8611 16.5146 13.3384 16.5218 13.8181 16.5218C15.4849 16.5218 17.1518 16.4299 18.8187 16.2146C16.5019 18.0941 14.1827 19.7364 11.8635 21.224V23.3138C12.511 23.3404 13.1585 23.3549 13.8061 23.3549C17.147 23.3549 20.4879 22.9849 23.8312 22.0077V19.6953C21.4064 20.4016 18.9865 20.791 16.5643 20.9531C18.881 19.2188 21.2002 17.2741 23.5194 15.044Z" fill="#0D0D0D"/>
<path d="M23.5154 12.9536V15.0435C21.1962 17.2736 18.877 19.2183 16.5602 20.9526C18.9825 20.7906 21.4024 20.4011 23.8271 19.6948C23.8271 20.4665 23.8271 21.2356 23.8271 22.0072C20.4839 22.9844 17.1429 23.3545 13.8021 23.3545C13.1545 23.3545 12.507 23.3399 11.8594 23.3134V21.2235C14.1786 19.736 16.4978 18.0936 18.8146 16.2142C17.1478 16.4294 15.4809 16.5213 13.814 16.5213C13.3343 16.5213 12.8571 16.5141 12.3775 16.4996C12.3775 15.728 12.3775 14.9588 12.3775 14.1872C12.8523 14.2017 13.3248 14.209 13.7997 14.209C17.0375 14.209 20.2752 13.8631 23.513 12.9512L23.5154 12.9536Z" fill="white"/>
</g>
</svg>
