<svg width="131" height="40" viewBox="0 0 131 40" fill="none" xmlns="http://www.w3.org/2000/svg">
<rect x="0.5" width="130" height="40" rx="8" fill="#202020"/>
<path d="M30.2973 20.3013C30.3081 19.4666 30.5298 18.6483 30.9418 17.9223C31.3538 17.1964 31.9428 16.5864 32.6539 16.1492C32.2021 15.5041 31.6062 14.9731 30.9134 14.5986C30.2205 14.224 29.4499 14.0162 28.6627 13.9916C26.9835 13.8153 25.3555 14.9964 24.4998 14.9964C23.6275 14.9964 22.31 14.0091 20.8913 14.0383C19.9736 14.0679 19.0793 14.3348 18.2954 14.8128C17.5115 15.2909 16.8649 15.9638 16.4184 16.7661C14.4844 20.1145 15.927 25.0356 17.7796 27.7422C18.7065 29.0676 19.7898 30.548 21.2072 30.4955C22.5943 30.438 23.1123 29.611 24.7866 29.611C26.4454 29.611 26.9314 30.4955 28.3776 30.4621C29.866 30.438 30.8038 29.1309 31.6981 27.793C32.3641 26.8486 32.8766 25.8049 33.2166 24.7005C32.3518 24.3347 31.6139 23.7226 31.0948 22.9403C30.5757 22.158 30.2983 21.2402 30.2973 20.3013Z" fill="white"/>
<path d="M27.5659 12.2113C28.3774 11.2371 28.7772 9.98494 28.6804 8.7207C27.4406 8.85092 26.2953 9.44348 25.4728 10.3803C25.0707 10.838 24.7627 11.3704 24.5664 11.9472C24.3702 12.524 24.2896 13.1337 24.3291 13.7417C24.9493 13.7481 25.5628 13.6137 26.1234 13.3486C26.6841 13.0835 27.1773 12.6946 27.5659 12.2113Z" fill="white"/>
<path d="M47.8311 27.1397H43.0977L41.9609 30.4961H39.9561L44.4395 18.0781H46.5225L51.0059 30.4961H48.9668L47.8311 27.1397ZM43.5879 25.5908H47.3399L45.4903 20.1436H45.4385L43.5879 25.5908Z" fill="white"/>
<path d="M60.6885 25.9695C60.6885 28.7829 59.1826 30.5905 56.9102 30.5905C56.3345 30.6207 55.762 30.4881 55.2582 30.2079C54.7544 29.9278 54.3397 29.5114 54.0616 29.0065H54.0186V33.4909H52.1602V21.4421H53.959V22.948H53.9932C54.2841 22.4455 54.7059 22.0313 55.2135 21.7495C55.7211 21.4676 56.2957 21.3287 56.876 21.3474C59.1738 21.3474 60.6885 23.1638 60.6885 25.9695ZM58.7783 25.9695C58.7783 24.1365 57.8311 22.9314 56.3858 22.9314C54.9658 22.9314 54.0108 24.1618 54.0108 25.9695C54.0108 27.7937 54.9658 29.0154 56.3858 29.0154C57.8311 29.0154 58.7783 27.8191 58.7783 25.9695Z" fill="white"/>
<path d="M70.6533 25.9694C70.6533 28.7829 69.1475 30.5905 66.875 30.5905C66.2994 30.6206 65.7269 30.488 65.2231 30.2079C64.7193 29.9278 64.3046 29.5114 64.0264 29.0065H63.9834V33.4909H62.125V21.4421H63.9238V22.948H63.958C64.249 22.4455 64.6707 22.0313 65.1783 21.7495C65.686 21.4676 66.2605 21.3287 66.8408 21.3474C69.1387 21.3474 70.6533 23.1638 70.6533 25.9694ZM68.7432 25.9694C68.7432 24.1364 67.7959 22.9314 66.3506 22.9314C64.9307 22.9314 63.9756 24.1618 63.9756 25.9694C63.9756 27.7937 64.9307 29.0153 66.3506 29.0153C67.7959 29.0153 68.7432 27.8191 68.7432 25.9694Z" fill="white"/>
<path d="M77.2393 27.0362C77.377 28.2676 78.5733 29.0762 80.208 29.0762C81.7744 29.0762 82.9014 28.2676 82.9014 27.1572C82.9014 26.1934 82.2217 25.6162 80.6123 25.2207L79.003 24.833C76.7227 24.2822 75.6641 23.2158 75.6641 21.4854C75.6641 19.3428 77.5313 17.8711 80.1826 17.8711C82.8066 17.8711 84.6055 19.3428 84.666 21.4854H82.79C82.6777 20.2461 81.6533 19.4981 80.1563 19.4981C78.6592 19.4981 77.6348 20.2549 77.6348 21.3565C77.6348 22.2344 78.2891 22.751 79.8897 23.1465L81.2578 23.4824C83.8057 24.0849 84.8643 25.1084 84.8643 26.9248C84.8643 29.248 83.0137 30.7031 80.0703 30.7031C77.3164 30.7031 75.457 29.2822 75.3369 27.0361L77.2393 27.0362Z" fill="white"/>
<path d="M88.875 19.2998V21.4424H90.5967V22.9141H88.875V27.9053C88.875 28.6807 89.2197 29.042 89.9766 29.042C90.1809 29.0384 90.385 29.0241 90.5879 28.999V30.4619C90.2476 30.5255 89.9018 30.5543 89.5557 30.5478C87.7227 30.5478 87.0078 29.8593 87.0078 28.1035V22.9141H85.6914V21.4424H87.0078V19.2998H88.875Z" fill="white"/>
<path d="M91.5938 25.9697C91.5938 23.1211 93.2715 21.3311 95.8877 21.3311C98.5127 21.3311 100.183 23.1211 100.183 25.9697C100.183 28.8262 98.5215 30.6084 95.8877 30.6084C93.2548 30.6084 91.5938 28.8262 91.5938 25.9697ZM98.2891 25.9697C98.2891 24.0156 97.3935 22.8623 95.8877 22.8623C94.3818 22.8623 93.4873 24.0244 93.4873 25.9697C93.4873 27.9316 94.3818 29.0762 95.8877 29.0762C97.3935 29.0762 98.2891 27.9316 98.2891 25.9697Z" fill="white"/>
<path d="M101.715 21.442H103.487V22.983H103.53C103.65 22.5017 103.932 22.0764 104.329 21.7785C104.725 21.4806 105.212 21.3284 105.708 21.3473C105.922 21.3465 106.136 21.3698 106.345 21.4166V23.1549C106.074 23.0723 105.792 23.0343 105.51 23.0426C105.24 23.0316 104.971 23.0792 104.721 23.1821C104.471 23.285 104.246 23.4408 104.062 23.6386C103.878 23.8365 103.739 24.0719 103.655 24.3286C103.571 24.5852 103.543 24.8571 103.573 25.1256V30.4957H101.715L101.715 21.442Z" fill="white"/>
<path d="M114.913 27.8369C114.663 29.4805 113.062 30.6084 111.015 30.6084C108.381 30.6084 106.746 28.8437 106.746 26.0127C106.746 23.1729 108.39 21.3311 110.937 21.3311C113.441 21.3311 115.017 23.0518 115.017 25.7969V26.4336H108.622V26.5459C108.593 26.8791 108.634 27.2148 108.744 27.5306C108.855 27.8464 109.031 28.1352 109.261 28.3778C109.491 28.6203 109.771 28.8111 110.081 28.9374C110.39 29.0637 110.723 29.1226 111.058 29.1103C111.497 29.1515 111.937 29.0498 112.314 28.8203C112.691 28.5909 112.984 28.246 113.148 27.8369L114.913 27.8369ZM108.631 25.1348H113.157C113.174 24.8352 113.128 24.5354 113.024 24.2541C112.919 23.9729 112.757 23.7164 112.549 23.5006C112.34 23.2849 112.09 23.1145 111.812 23.0003C111.535 22.8861 111.237 22.8305 110.937 22.8369C110.634 22.8351 110.334 22.8933 110.054 23.008C109.774 23.1227 109.519 23.2918 109.305 23.5054C109.091 23.7191 108.921 23.973 108.805 24.2527C108.689 24.5323 108.63 24.8321 108.631 25.1348Z" fill="white"/>
<path d="M43.3545 8.73138C43.7441 8.70342 44.1351 8.76228 44.4992 8.90371C44.8633 9.04515 45.1915 9.26563 45.4601 9.54925C45.7286 9.83288 45.9309 10.1726 46.0523 10.5438C46.1737 10.9151 46.2112 11.3087 46.1621 11.6962C46.1621 13.6025 45.1318 14.6982 43.3545 14.6982H41.1992V8.73138H43.3545ZM42.126 13.8544H43.251C43.5294 13.871 43.808 13.8254 44.0665 13.7208C44.3251 13.6161 44.557 13.4552 44.7455 13.2496C44.934 13.0441 45.0743 12.7991 45.1562 12.5324C45.238 12.2658 45.2594 11.9843 45.2187 11.7084C45.2564 11.4335 45.2329 11.1538 45.1498 10.8891C45.0667 10.6244 44.926 10.3814 44.738 10.1775C44.5499 9.97358 44.3191 9.81378 44.062 9.70954C43.8049 9.6053 43.528 9.55922 43.251 9.57459H42.126V13.8544Z" fill="white"/>
<path d="M47.2093 12.4448C47.181 12.1489 47.2148 11.8503 47.3086 11.5682C47.4025 11.2862 47.5542 11.0268 47.7542 10.8068C47.9541 10.5868 48.1978 10.4111 48.4697 10.2908C48.7415 10.1705 49.0355 10.1084 49.3328 10.1084C49.6301 10.1084 49.9241 10.1705 50.1959 10.2908C50.4678 10.4111 50.7115 10.5868 50.9114 10.8068C51.1114 11.0268 51.2631 11.2862 51.357 11.5682C51.4508 11.8503 51.4846 12.1489 51.4563 12.4448C51.4852 12.741 51.4517 13.04 51.3581 13.3225C51.2645 13.605 51.1129 13.8648 50.9129 14.0853C50.7129 14.3057 50.469 14.4818 50.1969 14.6023C49.9248 14.7229 49.6304 14.7851 49.3328 14.7851C49.0352 14.7851 48.7408 14.7229 48.4687 14.6023C48.1966 14.4818 47.9527 14.3057 47.7527 14.0853C47.5527 13.8648 47.4011 13.605 47.3075 13.3225C47.2139 13.04 47.1804 12.741 47.2093 12.4448ZM50.5423 12.4448C50.5423 11.4687 50.1038 10.8979 49.3343 10.8979C48.5618 10.8979 48.1273 11.4687 48.1273 12.4448C48.1273 13.4287 48.5618 13.9951 49.3343 13.9951C50.1038 13.9951 50.5423 13.4248 50.5423 12.4448Z" fill="white"/>
<path d="M57.1016 14.6982H56.1797L55.249 11.3818H55.1787L54.252 14.6982H53.3389L52.0977 10.1953H52.999L53.8057 13.6313H53.8721L54.7979 10.1953H55.6504L56.5762 13.6313H56.6465L57.4492 10.1953H58.3379L57.1016 14.6982Z" fill="white"/>
<path d="M59.3818 10.1949H60.2373V10.9102H60.3037C60.4164 10.6533 60.6064 10.4379 60.8472 10.2941C61.0881 10.1503 61.3679 10.0852 61.6475 10.1079C61.8666 10.0915 62.0866 10.1245 62.2912 10.2046C62.4958 10.2847 62.6797 10.4098 62.8294 10.5707C62.9791 10.7315 63.0907 10.924 63.1559 11.1338C63.2211 11.3436 63.2382 11.5654 63.2061 11.7827V14.6977H62.3174V12.0059C62.3174 11.2823 62.0029 10.9224 61.3457 10.9224C61.1969 10.9155 61.0484 10.9408 60.9104 10.9966C60.7723 11.0525 60.648 11.1375 60.5459 11.2459C60.4437 11.3543 60.3663 11.4834 60.3187 11.6246C60.2712 11.7657 60.2547 11.9154 60.2705 12.0635V14.6978H59.3818L59.3818 10.1949Z" fill="white"/>
<path d="M64.6221 8.4375H65.5107V14.6982H64.6221V8.4375Z" fill="white"/>
<path d="M66.7463 12.4449C66.7181 12.1489 66.7519 11.8503 66.8458 11.5683C66.9397 11.2862 67.0914 11.0268 67.2914 10.8068C67.4914 10.5869 67.7351 10.4111 68.007 10.2908C68.2788 10.1705 68.5728 10.1084 68.8701 10.1084C69.1674 10.1084 69.4614 10.1705 69.7333 10.2908C70.0052 10.4111 70.2489 10.5869 70.4489 10.8068C70.6488 11.0268 70.8006 11.2862 70.8945 11.5683C70.9883 11.8503 71.0222 12.1489 70.9939 12.4449C71.0227 12.7411 70.9892 13.0401 70.8956 13.3226C70.802 13.6051 70.6503 13.8649 70.4503 14.0853C70.2503 14.3058 70.0064 14.4819 69.7342 14.6024C69.4621 14.7229 69.1678 14.7852 68.8701 14.7852C68.5725 14.7852 68.2782 14.7229 68.006 14.6024C67.7339 14.4819 67.49 14.3058 67.29 14.0853C67.09 13.8649 66.9383 13.6051 66.8446 13.3226C66.751 13.0401 66.7175 12.7411 66.7463 12.4449ZM70.0793 12.4449C70.0793 11.4688 69.6409 10.898 68.8713 10.898C68.0989 10.898 67.6644 11.4688 67.6644 12.4449C67.6644 13.4288 68.0989 13.9952 68.8713 13.9952C69.6409 13.9952 70.0793 13.4248 70.0793 12.4449Z" fill="white"/>
<path d="M71.9297 13.4248C71.9297 12.6142 72.5332 12.147 73.6045 12.0806L74.8242 12.0102V11.6216C74.8242 11.146 74.5098 10.8774 73.9023 10.8774C73.4063 10.8774 73.0625 11.0596 72.9639 11.3779H72.1035C72.1943 10.6045 72.9219 10.1084 73.9434 10.1084C75.0723 10.1084 75.709 10.6704 75.709 11.6216V14.6982H74.8535V14.0654H74.7832C74.6405 14.2924 74.4401 14.4775 74.2025 14.6017C73.9648 14.7259 73.6985 14.7848 73.4307 14.7724C73.2416 14.7921 73.0506 14.7719 72.8698 14.7132C72.6891 14.6545 72.5226 14.5586 72.3812 14.4316C72.2398 14.3047 72.1265 14.1495 72.0488 13.9761C71.971 13.8026 71.9304 13.6149 71.9297 13.4248ZM74.8242 13.04V12.6636L73.7246 12.7339C73.1045 12.7754 72.8232 12.9863 72.8232 13.3833C72.8232 13.7886 73.1748 14.0244 73.6582 14.0244C73.7999 14.0387 73.943 14.0244 74.079 13.9823C74.215 13.9403 74.3411 13.8712 74.4499 13.7794C74.5587 13.6876 74.6479 13.5748 74.7122 13.4477C74.7765 13.3207 74.8146 13.1821 74.8242 13.04Z" fill="white"/>
<path d="M76.876 12.4448C76.876 11.022 77.6074 10.1206 78.7451 10.1206C79.0265 10.1077 79.3058 10.1751 79.5504 10.315C79.7949 10.4548 79.9945 10.6615 80.126 10.9106H80.1924V8.4375H81.0811V14.6982H80.2295V13.9868H80.1592C80.0176 14.2343 79.811 14.4383 79.5617 14.5768C79.3125 14.7153 79.0301 14.783 78.7451 14.7724C77.5996 14.7725 76.876 13.8711 76.876 12.4448ZM77.794 12.4448C77.794 13.3999 78.2442 13.9746 78.9971 13.9746C79.7461 13.9746 80.209 13.3916 80.209 12.4487C80.209 11.5103 79.7412 10.919 78.9971 10.919C78.249 10.919 77.794 11.4976 77.794 12.4448Z" fill="white"/>
<path d="M84.7581 12.4448C84.7298 12.1489 84.7636 11.8503 84.8575 11.5682C84.9513 11.2862 85.1031 11.0268 85.303 10.8068C85.503 10.5868 85.7467 10.4111 86.0185 10.2908C86.2904 10.1705 86.5844 10.1084 86.8816 10.1084C87.1789 10.1084 87.4729 10.1705 87.7447 10.2908C88.0166 10.4111 88.2603 10.5868 88.4602 10.8068C88.6602 11.0268 88.8119 11.2862 88.9058 11.5682C88.9996 11.8503 89.0335 12.1489 89.0052 12.4448C89.034 12.741 89.0006 13.04 88.907 13.3225C88.8134 13.605 88.6617 13.8648 88.4617 14.0853C88.2617 14.3057 88.0178 14.4818 87.7457 14.6023C87.4736 14.7229 87.1793 14.7851 86.8816 14.7851C86.584 14.7851 86.2897 14.7229 86.0175 14.6023C85.7454 14.4818 85.5015 14.3057 85.3015 14.0853C85.1015 13.8648 84.9499 13.605 84.8563 13.3225C84.7627 13.04 84.7292 12.741 84.7581 12.4448ZM88.0911 12.4448C88.0911 11.4687 87.6526 10.8979 86.8831 10.8979C86.1106 10.8979 85.6761 11.4687 85.6761 12.4448C85.6761 13.4287 86.1107 13.9951 86.8831 13.9951C87.6526 13.9951 88.0911 13.4248 88.0911 12.4448Z" fill="white"/>
<path d="M90.1973 10.1949H91.0527V10.9102H91.1191C91.2318 10.6533 91.4218 10.4379 91.6627 10.2941C91.9035 10.1503 92.1833 10.0852 92.4629 10.1079C92.682 10.0915 92.902 10.1245 93.1066 10.2046C93.3112 10.2847 93.4951 10.4098 93.6448 10.5707C93.7945 10.7315 93.9061 10.924 93.9713 11.1338C94.0365 11.3436 94.0536 11.5654 94.0215 11.7827V14.6977H93.1328V12.0059C93.1328 11.2823 92.8184 10.9224 92.1611 10.9224C92.0124 10.9155 91.8639 10.9408 91.7258 10.9966C91.5878 11.0525 91.4634 11.1375 91.3613 11.2459C91.2592 11.3543 91.1817 11.4834 91.1342 11.6246C91.0866 11.7657 91.0702 11.9154 91.0859 12.0635V14.6978H90.1973V10.1949Z" fill="white"/>
<path d="M99.0439 9.07422V10.2158H100.02V10.9644H99.0439V13.2798C99.0439 13.7515 99.2383 13.958 99.6807 13.958C99.7939 13.9576 99.9071 13.9508 100.02 13.9375V14.6777C99.8599 14.7063 99.6982 14.7215 99.5361 14.7231C98.5479 14.7231 98.1543 14.3755 98.1543 13.5073V10.9643H97.4395V10.2158H98.1543V9.07422H99.0439Z" fill="white"/>
<path d="M101.232 8.4375H102.113V10.919H102.184C102.302 10.6596 102.497 10.443 102.743 10.2987C102.988 10.1543 103.273 10.0893 103.557 10.1123C103.775 10.1004 103.992 10.1368 104.195 10.2189C104.397 10.3009 104.579 10.4266 104.727 10.5869C104.875 10.7473 104.986 10.9383 105.052 11.1465C105.117 11.3546 105.136 11.5747 105.107 11.791V14.6982H104.218V12.0103C104.218 11.291 103.883 10.9268 103.255 10.9268C103.102 10.9142 102.949 10.9352 102.805 10.9883C102.661 11.0413 102.531 11.1252 102.423 11.2339C102.315 11.3426 102.232 11.4737 102.18 11.6178C102.128 11.7619 102.108 11.9157 102.121 12.0683V14.6982H101.232L101.232 8.4375Z" fill="white"/>
<path d="M110.289 13.4825C110.168 13.894 109.906 14.25 109.55 14.4882C109.193 14.7263 108.764 14.8315 108.338 14.7852C108.041 14.7931 107.746 14.7362 107.474 14.6187C107.201 14.5012 106.957 14.3258 106.76 14.1046C106.562 13.8835 106.414 13.6219 106.327 13.3381C106.241 13.0543 106.217 12.755 106.257 12.461C106.218 12.1661 106.242 11.8662 106.329 11.5815C106.415 11.2969 106.562 11.0341 106.759 10.811C106.956 10.5879 107.198 10.4098 107.47 10.2886C107.742 10.1674 108.036 10.1059 108.334 10.1085C109.587 10.1085 110.342 10.9645 110.342 12.3785V12.6886H107.163V12.7384C107.149 12.9036 107.17 13.0699 107.224 13.2267C107.278 13.3834 107.364 13.5271 107.477 13.6486C107.59 13.7701 107.727 13.8666 107.879 13.932C108.032 13.9974 108.196 14.0302 108.362 14.0284C108.575 14.0539 108.79 14.0156 108.981 13.9184C109.171 13.8212 109.329 13.6694 109.433 13.4825L110.289 13.4825ZM107.163 12.0313H109.437C109.448 11.8802 109.428 11.7284 109.377 11.5857C109.326 11.443 109.246 11.3125 109.141 11.2026C109.037 11.0928 108.911 11.006 108.771 10.9478C108.631 10.8896 108.48 10.8614 108.329 10.8648C108.175 10.8629 108.023 10.8918 107.88 10.9497C107.738 11.0076 107.608 11.0935 107.5 11.2022C107.391 11.3109 107.305 11.4403 107.247 11.5827C107.19 11.7251 107.161 11.8776 107.163 12.0313Z" fill="white"/>
</svg>
