<svg width="32" height="32" viewBox="0 0 32 32" fill="none" xmlns="http://www.w3.org/2000/svg">
<rect x="-0.00195312" width="32.0023" height="32" rx="16" fill="#FB7C3F"/>
<path d="M17.6295 14.7972C17.6295 13.9057 16.9063 13.1836 16.0159 13.1836C15.1256 13.1836 14.4023 13.9068 14.4023 14.7972C14.4023 15.4206 14.7564 15.9615 15.2753 16.2297L14.6775 18.816H17.3579L16.76 16.2297C17.2778 15.9615 17.6318 15.4206 17.6318 14.7972H17.6295Z" fill="white"/>
<path d="M22.3281 18.0355C22.0147 20.4698 19.9309 22.3574 17.413 22.3574H14.6177C11.8839 22.3574 9.65975 20.1332 9.65975 17.3994V14.6041C9.65975 11.8703 11.8839 9.64608 14.6177 9.64608H17.413C19.9309 9.64608 22.0147 11.5336 22.3281 13.9679H23.9846C23.6631 10.6235 20.8387 8 17.4119 8H14.6166C10.9762 8 8.01367 10.9625 8.01367 14.6029V17.3982C8.01367 21.0398 10.9762 24.0011 14.6166 24.0011H17.4119C20.8376 24.0011 23.6619 21.3776 23.9835 18.0344H22.3269L22.3281 18.0355Z" fill="white"/>
</svg>
