<svg width="32" height="32" viewBox="0 0 32 32" fill="none" xmlns="http://www.w3.org/2000/svg">
<rect x="-0.00195312" width="32.0023" height="32" rx="16" fill="#343434"/>
<path d="M26.1875 15.6504C26.0214 13.8987 25.453 8.52004 25.4449 8.32007C25.4358 8.08582 25.1011 7.78757 25.1011 8.22065C25.1011 8.52003 24.8307 11.9584 24.8307 14.446C24.8021 14.4037 24.7849 14.3808 24.7849 14.3808H24.166C23.0544 11.6556 20.1012 9.67756 16.5921 9.55758H16.513H16.4351C16.3755 9.55758 16.3205 9.55758 16.254 9.55758C16.1921 9.55758 16.1325 9.55758 16.0729 9.55758H15.995H15.9182C12.408 9.67185 9.45363 11.6556 8.34201 14.3808H7.76901L7.72432 14.446C7.72432 11.9584 7.45271 8.52003 7.45271 8.22065C7.45271 7.78757 7.11808 8.08582 7.10891 8.32007C7.10203 8.52004 6.53591 13.8987 6.36745 15.6504C6.1235 15.975 5.99307 16.3704 5.99615 16.7759C5.99615 17.4239 6.4259 18.114 6.9542 18.114C7.08851 18.4882 7.27153 18.8432 7.49856 19.1699H8.34773C9.49374 21.9831 12.604 24 16.2552 24C19.9063 24 23.0166 21.9831 24.1626 19.1699H25.053C25.2795 18.8429 25.4625 18.488 25.5973 18.114C26.1257 18.114 26.5543 17.4284 26.5543 16.7759C26.5584 16.3709 26.4296 15.9757 26.1875 15.6504ZM16.254 23.5121C12.463 23.5121 9.39061 21.0507 9.39061 18.0134C9.39061 15.7418 11.1096 13.7924 13.5609 12.9537L14.009 14.0598C14.0475 14.1547 14.1136 14.2359 14.1988 14.2931C14.2839 14.3503 14.3842 14.3808 14.4869 14.3808H18.0326C18.1352 14.3808 18.2356 14.3503 18.3207 14.2931C18.4059 14.2359 18.4719 14.1547 18.5105 14.0598L18.9574 12.9582C21.403 13.7992 23.1163 15.7453 23.1163 18.0134C23.1163 21.0507 20.0438 23.5121 16.254 23.5121Z" fill="white"/>
<path d="M18.5324 16.3945C18.3166 16.3945 18.1097 16.48 17.9571 16.6322C17.8045 16.7843 17.7188 16.9907 17.7188 17.2058V19.1735C17.7188 19.3887 17.8045 19.5951 17.9571 19.7472C18.1097 19.8994 18.3166 19.9849 18.5324 19.9849C18.7482 19.9849 18.9552 19.8994 19.1078 19.7472C19.2604 19.5951 19.3461 19.3887 19.3461 19.1735V17.2058C19.3461 16.9907 19.2604 16.7843 19.1078 16.6322C18.9552 16.48 18.7482 16.3945 18.5324 16.3945Z" fill="white"/>
<path d="M13.9738 16.3945C13.758 16.3945 13.5511 16.48 13.3985 16.6322C13.2459 16.7843 13.1602 16.9907 13.1602 17.2058V19.1735C13.1602 19.3887 13.2459 19.5951 13.3985 19.7472C13.5511 19.8994 13.758 19.9849 13.9738 19.9849C14.1896 19.9849 14.3966 19.8994 14.5492 19.7472C14.7018 19.5951 14.7875 19.3887 14.7875 19.1735V17.2058C14.7875 16.9907 14.7018 16.7843 14.5492 16.6322C14.3966 16.48 14.1896 16.3945 13.9738 16.3945Z" fill="white"/>
<path d="M16.2654 21.813C15.7932 21.813 15.4082 21.4702 15.4082 21.0508H15.6855C15.6855 21.3193 15.9457 21.5376 16.2654 21.5376C16.5851 21.5376 16.8464 21.3193 16.8464 21.0508H17.1238C17.1238 21.4713 16.7387 21.813 16.2654 21.813Z" fill="white" stroke="white" stroke-width="0.0544722" stroke-miterlimit="10"/>
</svg>
