<svg width="131" height="40" viewBox="0 0 131 40" fill="none" xmlns="http://www.w3.org/2000/svg">
<rect x="0.5" width="130" height="40" rx="8" fill="#202020"/>
<path d="M50.2085 12.5914C50.2085 13.6275 49.9011 14.4528 49.2864 15.0676C48.5957 15.7997 47.6875 16.1658 46.5616 16.1658C45.4842 16.1658 44.5724 15.7928 43.8265 15.0468C43.0805 14.3009 42.7076 13.3823 42.7076 12.291C42.7076 11.1997 43.0805 10.281 43.8265 9.53509C44.5724 8.78914 45.4842 8.41616 46.5616 8.41616C47.1073 8.41616 47.6219 8.51286 48.1053 8.70626C48.5888 8.89965 48.986 9.17248 49.2968 9.52473L48.613 10.2085C48.3851 9.93224 48.0881 9.71812 47.722 9.56617C47.3628 9.40731 46.9761 9.32788 46.5616 9.32788C45.7535 9.32788 45.0697 9.60761 44.5103 10.1671C43.9577 10.7334 43.6814 11.4414 43.6814 12.291C43.6814 13.1405 43.9577 13.8485 44.5103 14.4149C45.0697 14.9743 45.7535 15.254 46.5616 15.254C47.3007 15.254 47.9154 15.0468 48.4058 14.6324C48.8962 14.218 49.1794 13.6482 49.2553 12.923H46.5616V12.032H50.1567C50.1912 12.2253 50.2085 12.4118 50.2085 12.5914ZM55.6973 8.58193V9.49365H52.3198V11.8455H55.3657V12.7365H52.3198V15.0883H55.6973V16H51.3666V8.58193H55.6973ZM59.5098 9.49365V16H58.5567V9.49365H56.4846V8.58193H61.5819V9.49365H59.5098ZM65.8065 16H64.8534V8.58193H65.8065V16ZM69.8298 9.49365V16H68.8766V9.49365H66.8045V8.58193H71.9019V9.49365H69.8298ZM79.8459 12.291C79.8459 13.3892 79.4798 14.3078 78.7477 15.0468C78.0086 15.7928 77.1038 16.1658 76.0333 16.1658C74.9558 16.1658 74.051 15.7928 73.3188 15.0468C72.5867 14.3078 72.2206 13.3892 72.2206 12.291C72.2206 11.1928 72.5867 10.2741 73.3188 9.53509C74.051 8.78914 74.9558 8.41616 76.0333 8.41616C77.1107 8.41616 78.0156 8.79259 78.7477 9.54545C79.4798 10.2845 79.8459 11.1997 79.8459 12.291ZM73.1945 12.291C73.1945 13.1474 73.4639 13.8554 74.0026 14.4149C74.5483 14.9743 75.2251 15.254 76.0333 15.254C76.8414 15.254 77.5148 14.9743 78.0535 14.4149C78.5992 13.8623 78.872 13.1543 78.872 12.291C78.872 11.4276 78.5992 10.7196 78.0535 10.1671C77.5148 9.60761 76.8414 9.32788 76.0333 9.32788C75.2251 9.32788 74.5483 9.60761 74.0026 10.1671C73.4639 10.7265 73.1945 11.4345 73.1945 12.291ZM81.9239 16H80.9707V8.58193H82.1311L85.7365 14.3527H85.778L85.7365 12.923V8.58193H86.6897V16H85.6951L81.9239 9.94951H81.8825L81.9239 11.3792V16Z" fill="white"/>
<path d="M65.7227 23.9151C63.6937 23.9151 62.0361 25.4605 62.0361 27.5844C62.0361 29.7083 63.6937 31.2537 65.7227 31.2537C67.7516 31.2537 69.4092 29.6997 69.4092 27.5844C69.4092 25.4692 67.7516 23.9151 65.7227 23.9151ZM65.7227 29.8119C64.6089 29.8119 63.6506 28.8967 63.6506 27.5844C63.6506 26.2721 64.6089 25.3569 65.7227 25.3569C66.8364 25.3569 67.7947 26.2635 67.7947 27.5844C67.7947 28.9054 66.8364 29.8119 65.7227 29.8119ZM57.6847 23.9151C55.6558 23.9151 53.9981 25.4605 53.9981 27.5844C53.9981 29.7083 55.6558 31.2537 57.6847 31.2537C59.7136 31.2537 61.3713 29.6997 61.3713 27.5844C61.3713 25.4692 59.7136 23.9151 57.6847 23.9151ZM57.6847 29.8119C56.5709 29.8119 55.6126 28.8967 55.6126 27.5844C55.6126 26.2721 56.5709 25.3569 57.6847 25.3569C58.7984 25.3569 59.7568 26.2635 59.7568 27.5844C59.7568 28.9054 58.7984 29.8119 57.6847 29.8119ZM48.1186 25.0375V26.5915H51.8483C51.7361 27.4635 51.4425 28.1111 51.0022 28.5514C50.4583 29.0953 49.6122 29.691 48.1272 29.691C45.8306 29.691 44.0348 27.8434 44.0348 25.5469C44.0348 23.2503 45.8306 21.4027 48.1272 21.4027C49.3618 21.4027 50.2683 21.8862 50.9331 22.5164L52.0296 21.42C51.0972 20.5307 49.8626 19.8486 48.1186 19.8486C44.9759 19.8486 42.334 22.4042 42.334 25.5555C42.334 28.7068 44.9759 31.2624 48.1186 31.2624C49.8194 31.2624 51.0972 30.7098 52.0987 29.6651C53.1261 28.6377 53.4455 27.1873 53.4455 26.0217C53.4455 25.6591 53.4196 25.3224 53.3592 25.0461H48.1186V25.0375ZM87.2378 26.2462C86.9356 25.426 86.0032 23.9065 84.0952 23.9065C82.1871 23.9065 80.633 25.3915 80.633 27.5758C80.633 29.6306 82.1871 31.2451 84.2765 31.2451C85.96 31.2451 86.9356 30.2177 87.3328 29.622L86.0809 28.7845C85.6665 29.3975 85.0967 29.8033 84.2765 29.8033C83.4563 29.8033 82.8692 29.432 82.4979 28.6895L87.4105 26.6606L87.2465 26.2462H87.2378ZM82.2303 27.4722C82.1871 26.0563 83.3268 25.331 84.147 25.331C84.7859 25.331 85.3298 25.6505 85.5111 26.1081L82.2303 27.4722ZM78.2415 31.0293H79.856V20.2371H78.2415V31.0293ZM75.5996 24.7267H75.5478C75.1852 24.295 74.4945 23.9065 73.6139 23.9065C71.7749 23.9065 70.0913 25.521 70.0913 27.5931C70.0913 29.6651 71.7749 31.2537 73.6139 31.2537C74.4859 31.2537 75.1852 30.8652 75.5478 30.4163H75.5996V30.9429C75.5996 32.3502 74.8485 33.1013 73.6398 33.1013C72.6555 33.1013 72.0425 32.3934 71.7921 31.7977L70.3849 32.3848C70.7906 33.3604 71.8612 34.5518 73.6398 34.5518C75.5305 34.5518 77.1278 33.4381 77.1278 30.7271V24.1309H75.5996V24.7267ZM73.752 29.8033C72.6382 29.8033 71.7058 28.8708 71.7058 27.5931C71.7058 26.3153 72.6382 25.3569 73.752 25.3569C74.8657 25.3569 75.7118 26.3066 75.7118 27.5931C75.7118 28.8795 74.8485 29.8033 73.752 29.8033ZM94.8009 20.2371H90.9417V31.0293H92.5562V26.9369H94.8096C96.5967 26.9369 98.3494 25.6418 98.3494 23.587C98.3494 21.5322 96.5967 20.2371 94.8096 20.2371H94.8009ZM94.8441 25.4433H92.5562V21.7394H94.8441C96.0528 21.7394 96.7349 22.7409 96.7349 23.587C96.7349 24.4331 96.0528 25.4346 94.8441 25.4346V25.4433ZM104.799 23.8892C103.633 23.8892 102.424 24.4072 101.924 25.5382L103.357 26.134C103.659 25.5382 104.229 25.3397 104.825 25.3397C105.653 25.3397 106.508 25.8404 106.517 26.7297V26.8419C106.223 26.6779 105.602 26.4275 104.833 26.4275C103.288 26.4275 101.725 27.2736 101.725 28.8536C101.725 30.2954 102.986 31.2278 104.402 31.2278C105.481 31.2278 106.085 30.7444 106.456 30.1745H106.508V31.0034H108.062V26.8678C108.062 24.9511 106.629 23.8806 104.781 23.8806L104.799 23.8892ZM104.6 29.8033C104.074 29.8033 103.34 29.5356 103.34 28.8881C103.34 28.0593 104.255 27.7398 105.049 27.7398C105.757 27.7398 106.094 27.8952 106.517 28.1024C106.396 29.104 105.533 29.8119 104.6 29.8119V29.8033ZM113.735 24.1223L111.887 28.8018H111.835L109.919 24.1223H108.183L111.058 30.6666L109.418 34.3014H111.101L115.53 24.1223H113.743H113.735ZM99.2214 31.0293H100.836V20.2371H99.2214V31.0293Z" fill="white"/>
<path d="M24.7808 21.9032L15.5859 31.6592C15.8708 32.7212 16.8378 33.4982 17.9861 33.4982C18.4437 33.4982 18.8754 33.3773 19.2466 33.1529L19.2725 33.1356L29.6157 27.1697L24.7722 21.8945L24.7808 21.9032Z" fill="#EA4335"/>
<path d="M34.0799 20.2452H34.0713L29.6077 17.6465L24.5742 22.1274L29.6249 27.1781L34.0713 24.6139C34.8483 24.1908 35.375 23.3706 35.375 22.4296C35.375 21.4885 34.8569 20.6683 34.0799 20.2539V20.2452Z" fill="#FBBC04"/>
<path d="M15.5863 13.1484C15.5345 13.3556 15.5 13.5629 15.5 13.7873V31.0288C15.5 31.2533 15.5259 31.4605 15.5863 31.6677L25.092 22.162L15.5863 13.1484Z" fill="#4285F4"/>
<path d="M24.8499 22.4037L29.6071 17.6465L19.2725 11.6548C18.9013 11.4303 18.461 11.3008 17.9861 11.3008C16.8378 11.3008 15.8708 12.0864 15.5859 13.1398L24.8499 22.3951V22.4037Z" fill="#34A853"/>
</svg>
