<svg width="32" height="32" viewBox="0 0 32 32" fill="none" xmlns="http://www.w3.org/2000/svg">
<rect x="-0.00195312" width="32.0023" height="32" rx="16" fill="#343434"/>
<g clip-path="url(#clip0_2164_13281)">
<path d="M12.8634 18.6505C12.3575 17.7743 12.3603 16.7455 12.7772 15.9033L10.7789 14.7501C10.7294 14.7218 10.6842 14.6893 10.6361 14.6582C10.6107 14.8137 10.5938 14.9705 10.5938 15.1331V19.7472C10.5938 21.354 11.8953 22.6555 13.5021 22.6555C15.0511 22.6555 16.3145 21.443 16.4021 19.9153C15.0934 20.4085 13.5827 19.9012 12.8606 18.6491L12.8634 18.6505Z" fill="#6F3FF5"/>
<path d="M13.5069 12.2327C14.5187 12.2327 15.4076 12.7499 15.9291 13.5328L17.9274 12.3797C17.9769 12.3514 18.0277 12.3274 18.0786 12.3019C17.9571 12.203 17.8285 12.1097 17.6886 12.0278L13.692 9.72002C12.3014 8.91732 10.5221 9.39357 9.71942 10.7842C8.94497 12.1253 9.36329 13.8254 10.6423 14.6648C10.8698 13.2855 12.0639 12.2313 13.5083 12.2313L13.5069 12.2327Z" fill="#FFCC00"/>
<path d="M12.7802 15.9007C13.0261 15.4046 13.4148 14.9722 13.9306 14.6755L15.9289 13.5208C15.4074 12.7379 14.5171 12.2207 13.5066 12.2207C12.0623 12.2207 10.8667 13.275 10.6406 14.6542C10.6873 14.6853 10.7339 14.7178 10.7834 14.7461L12.7817 15.8993L12.7802 15.9007Z" fill="#8C65F7"/>
<path d="M21.9008 13.4321C21.1264 12.091 19.4447 11.6035 18.0781 12.2903C19.1592 13.1763 19.4743 14.7394 18.7522 15.99C18.2462 16.8662 17.3545 17.3778 16.4147 17.4386V19.7449C16.4147 19.8014 16.4091 19.8579 16.4062 19.9145C16.5532 19.8594 16.6988 19.7944 16.8387 19.7138L20.8353 17.4061C22.2259 16.6034 22.7035 14.8241 21.8994 13.4336L21.9008 13.4321Z" fill="#02E2AC"/>
<path d="M16.4156 17.4458C15.863 17.4811 15.2949 17.3596 14.7791 17.0628L12.7808 15.9082C12.3625 16.7505 12.3611 17.7807 12.867 18.6555C13.5891 19.9061 15.0999 20.4149 16.4085 19.9217C16.4113 19.8652 16.417 19.8101 16.417 19.7521V17.4458H16.4156Z" fill="#5BF1CD"/>
<path d="M15.9297 13.5253C16.2364 13.986 16.4159 14.5386 16.4159 15.1335V17.4413C17.3542 17.3819 18.2474 16.8689 18.7533 15.9927C19.4755 14.7421 19.1603 13.1805 18.0792 12.293C18.0283 12.3184 17.9774 12.341 17.928 12.3707L15.9297 13.5239V13.5253Z" fill="#FFDB4C"/>
<path d="M15.9299 13.5273L13.9316 14.6819C13.4158 14.9801 13.0271 15.4111 12.7812 15.9072L14.7796 17.0617C15.2954 17.36 15.8635 17.4801 16.416 17.4447V15.137C16.416 14.542 16.2366 13.9895 15.9299 13.5288V13.5273Z" fill="white" fill-opacity="0.84"/>
</g>
<defs>
<clipPath id="clip0_2164_13281">
<rect width="12.9589" height="13.3333" fill="white" transform="translate(9.33008 9.33008)"/>
</clipPath>
</defs>
</svg>
