<svg width="109" height="32" viewBox="0 0 109 32" fill="none" xmlns="http://www.w3.org/2000/svg">
<path fill-rule="evenodd" clip-rule="evenodd" d="M2.31738 14.7948C2.31736 21.9617 7.37601 28.1321 14.4037 29.5378C15.4678 29.7506 16.5635 29.7506 17.6276 29.5375H17.6279C24.6554 28.1319 29.7138 21.9615 29.714 14.7948V9.91093C29.714 5.70796 26.3066 2.30078 22.1037 2.30078H9.92751C5.72456 2.30078 2.31738 5.70796 2.31738 9.91093V14.7948ZM12.3003 14.4773C12.3003 14.0077 11.9196 13.627 11.45 13.627C10.9803 13.627 10.5996 14.0077 10.5996 14.4773V19.0434C10.5996 19.513 10.9803 19.8937 11.45 19.8937C11.9196 19.8937 12.3003 19.513 12.3003 19.0434V14.4773ZM16.0164 13.5C16.486 13.5 16.8667 13.8807 16.8667 14.3504V19.0433C16.8667 19.5129 16.486 19.8936 16.0164 19.8936C15.5467 19.8936 15.166 19.5129 15.166 19.0433V14.3504C15.166 13.8807 15.5467 13.5 16.0164 13.5ZM16.0162 9.06055L16.013 9.06055C15.0197 9.06429 14.0469 9.34314 13.2025 9.86614C12.8033 10.1134 12.6801 10.6376 12.9274 11.0368C13.1746 11.4361 13.6988 11.5593 14.098 11.312C14.6748 10.9547 15.3393 10.7641 16.0178 10.7613C18.0692 10.7621 19.7318 12.4254 19.7318 14.477V19.0431C19.7318 19.5127 20.1125 19.8935 20.5822 19.8935C21.0518 19.8935 21.4325 19.5127 21.4325 19.0431V14.477C21.4325 11.4856 19.0076 9.06055 16.0162 9.06055Z" fill="#202020"/>
<path d="M37 20.3229V12.2486C37 10.5359 37.4323 9.29625 38.2968 8.52961C39.1613 7.74666 40.4744 7.35518 42.236 7.35518H44.1689V9.55724H42.97C41.8445 9.55724 41.0453 9.83453 40.5722 10.3891C40.0992 10.9437 39.8627 11.8164 39.8627 13.0071V20.3229H37Z" fill="#202020"/>
<path d="M45.376 7.35518H52.7407C53.9314 7.35518 54.8367 7.70588 55.4565 8.40727C56.0764 9.10867 56.3863 10.0303 56.3863 11.1721V18.1208C56.3863 19.5888 55.6523 20.3229 54.1842 20.3229H47.6515C45.4984 20.3229 44.4218 18.9771 44.4218 16.2857C44.4218 15.0298 44.6909 14.0429 45.2292 13.3252C45.7675 12.6075 46.5749 12.2486 47.6515 12.2486H53.5236V11.4168C53.5236 10.1771 52.9201 9.55724 51.713 9.55724H45.376V7.35518ZM53.5236 14.4507H48.7525C47.8391 14.4507 47.3823 15.0624 47.3823 16.2857C47.3823 17.5091 47.8391 18.1208 48.7525 18.1208H52.7896C53.2789 18.1208 53.5236 17.8761 53.5236 17.3868V14.4507Z" fill="#202020"/>
<path d="M58.6478 20.3229V12.2486C58.6478 10.5359 59.08 9.29625 59.9446 8.52961C60.8091 7.74666 62.1221 7.35518 63.8838 7.35518H65.8167V9.55724H64.6178C63.4923 9.55724 62.693 9.83453 62.22 10.3891C61.747 10.9437 61.5105 11.8164 61.5105 13.0071V20.3229H58.6478Z" fill="#202020"/>
<path d="M66.9389 20.3229V7.35518H69.8016V20.3229H66.9389ZM69.8016 5.64247H66.9389V3H69.8016V5.64247Z" fill="#202020"/>
<path d="M89.8888 7.0371L85.5092 18.4633C85.2156 19.1974 84.9057 19.7275 84.5794 20.0537C84.2532 20.3636 83.7476 20.5186 83.0625 20.5186C82.3774 20.5186 81.8717 20.3636 81.5455 20.0537C81.2193 19.7275 80.9094 19.1974 80.6158 18.4633L76.2361 7.0371C76.0893 6.66194 75.9507 6.47436 75.8202 6.47436C75.6407 6.47436 75.551 6.64563 75.551 6.98817L75.6244 20.3229H72.3948V5.25099C72.3948 3.75033 73.3164 3 75.1595 3C76.0404 3 76.6928 3.18758 77.1169 3.56275C77.541 3.93791 77.8917 4.48435 78.169 5.20206L82.5976 16.6283C82.7933 17.0524 82.9483 17.2644 83.0625 17.2644C83.1767 17.2644 83.3316 17.0524 83.5274 16.6283L87.9559 5.20206C88.2332 4.48435 88.5839 3.93791 89.008 3.56275C89.4321 3.18758 90.0846 3 90.9654 3C92.8086 3 93.7302 3.75033 93.7302 5.25099V20.3229H90.5005L90.5984 6.98817C90.5984 6.64563 90.5005 6.47436 90.3048 6.47436C90.1743 6.47436 90.0356 6.66194 89.8888 7.0371Z" fill="#202020"/>
<path d="M108.024 20.3229H100.83C99.819 20.3229 98.9789 20.1842 98.3102 19.9069C97.6577 19.6296 97.1602 19.1974 96.8177 18.6101C96.4751 18.0066 96.2386 17.3378 96.1081 16.6038C95.9939 15.8698 95.9368 14.94 95.9368 13.8145C95.9368 11.3026 96.4099 9.57355 97.3559 8.62748C98.3183 7.68141 99.9332 7.20838 102.2 7.20838C104.223 7.20838 105.765 7.58354 106.825 8.33387C107.901 9.06789 108.44 10.4054 108.44 12.3465C108.44 13.9777 107.771 14.7932 106.433 14.7932H98.8974C98.8974 15.9187 99.0768 16.7588 99.4356 17.3134C99.8108 17.8517 100.561 18.1208 101.687 18.1208H108.024V20.3229ZM98.8974 12.5912H104.843C105.267 12.5912 105.479 12.3384 105.479 11.8327C105.479 11.0334 105.161 10.4299 104.525 10.0221C103.905 9.61433 103.13 9.41043 102.2 9.41043C100.993 9.41043 100.137 9.66326 99.6314 10.1689C99.142 10.6583 98.8974 11.4657 98.8974 12.5912Z" fill="#202020"/>
<path d="M40.0278 24.377C40.353 24.6881 40.5156 25.0769 40.5156 25.5435C40.5156 26.0101 40.353 26.4013 40.0278 26.7171C39.7026 27.0282 39.2855 27.1837 38.7765 27.1837H38.0059V28.9229H37.1787V23.9033H38.7765C39.2855 23.9033 39.7026 24.0612 40.0278 24.377ZM39.4481 26.1657C39.6178 26.0007 39.7026 25.7933 39.7026 25.5435C39.7026 25.2937 39.6178 25.0887 39.4481 24.9285C39.2831 24.7635 39.0569 24.681 38.7694 24.681H38.0059V26.406H38.7694C39.0569 26.406 39.2831 26.3259 39.4481 26.1657Z" fill="#202020"/>
<path d="M44.0315 28.4634C43.678 28.8168 43.2397 28.9936 42.7166 28.9936C42.1934 28.9936 41.7527 28.8168 41.3945 28.4634C41.041 28.1051 40.8643 27.6692 40.8643 27.1554C40.8643 26.6417 41.041 26.2081 41.3945 25.8546C41.7527 25.4964 42.1934 25.3173 42.7166 25.3173C43.2397 25.3173 43.678 25.4964 44.0315 25.8546C44.3897 26.2081 44.5688 26.6417 44.5688 27.1554C44.5688 27.6692 44.3897 28.1051 44.0315 28.4634ZM42.7166 28.2725C43.0229 28.2725 43.2751 28.1664 43.473 27.9543C43.6757 27.7375 43.777 27.4712 43.777 27.1554C43.777 26.8397 43.6757 26.5757 43.473 26.3636C43.2751 26.1468 43.0229 26.0384 42.7166 26.0384C42.4055 26.0384 42.1486 26.1468 41.946 26.3636C41.748 26.5757 41.649 26.8397 41.649 27.1554C41.649 27.4712 41.748 27.7375 41.946 27.9543C42.1486 28.1664 42.4055 28.2725 42.7166 28.2725Z" fill="#202020"/>
<path d="M48.3351 28.9229L47.5574 26.6393L46.7868 28.9229H46.0516L44.8638 25.388H45.6839L46.4475 27.8271L47.2605 25.388H47.8544L48.6532 27.8271L49.4309 25.388H50.2581L49.0704 28.9229H48.3351Z" fill="#202020"/>
<path d="M52.4099 28.9936C51.8726 28.9936 51.4295 28.8216 51.0808 28.4775C50.7367 28.1334 50.5647 27.6927 50.5647 27.1554C50.5647 26.6323 50.7391 26.1963 51.0878 25.8475C51.4366 25.494 51.8773 25.3173 52.4099 25.3173C52.9001 25.3173 53.3054 25.4728 53.6259 25.7839C53.9511 26.095 54.1137 26.5239 54.1137 27.0706C54.1137 27.1649 54.1113 27.2497 54.1066 27.3251H51.3282C51.3471 27.6126 51.4578 27.8459 51.6605 28.025C51.8632 28.1994 52.1153 28.2866 52.417 28.2866C52.8694 28.2866 53.2064 28.1075 53.4279 27.7493L54.0218 28.1735C53.6824 28.7202 53.1451 28.9936 52.4099 28.9936ZM51.3636 26.7595H53.329C53.2865 26.5144 53.1758 26.3236 52.9967 26.1869C52.8223 26.0455 52.6173 25.9748 52.3816 25.9748C52.1365 25.9748 51.9174 26.0431 51.7241 26.1798C51.5356 26.3165 51.4154 26.5097 51.3636 26.7595Z" fill="#202020"/>
<path d="M54.9131 28.9229V25.388H55.6908V26.0172C55.7568 25.8192 55.877 25.659 56.0514 25.5365C56.2305 25.4139 56.4214 25.3526 56.624 25.3526C56.7466 25.3526 56.8479 25.3621 56.928 25.3809V26.1798C56.8149 26.1374 56.6853 26.1162 56.5392 26.1162C56.3035 26.1162 56.1032 26.2128 55.9383 26.406C55.7733 26.5946 55.6908 26.8585 55.6908 27.1979V28.9229H54.9131Z" fill="#202020"/>
<path d="M59.0723 28.9936C58.535 28.9936 58.092 28.8216 57.7432 28.4775C57.3991 28.1334 57.2271 27.6927 57.2271 27.1554C57.2271 26.6323 57.4015 26.1963 57.7503 25.8475C58.099 25.494 58.5397 25.3173 59.0723 25.3173C59.5625 25.3173 59.9678 25.4728 60.2883 25.7839C60.6135 26.095 60.7761 26.5239 60.7761 27.0706C60.7761 27.1649 60.7738 27.2497 60.7691 27.3251H57.9906C58.0095 27.6126 58.1203 27.8459 58.3229 28.025C58.5256 28.1994 58.7777 28.2866 59.0794 28.2866C59.5319 28.2866 59.8689 28.1075 60.0904 27.7493L60.6842 28.1735C60.3449 28.7202 59.8076 28.9936 59.0723 28.9936ZM58.026 26.7595H59.9914C59.949 26.5144 59.8382 26.3236 59.6591 26.1869C59.4847 26.0455 59.2797 25.9748 59.044 25.9748C58.799 25.9748 58.5798 26.0431 58.3866 26.1798C58.198 26.3165 58.0778 26.5097 58.026 26.7595Z" fill="#202020"/>
<path d="M63.0249 28.9936C62.5441 28.9936 62.1388 28.8145 61.8089 28.4563C61.4837 28.0981 61.3211 27.6645 61.3211 27.1554C61.3211 26.6464 61.4837 26.2128 61.8089 25.8546C62.1388 25.4964 62.5441 25.3173 63.0249 25.3173C63.2653 25.3173 63.4868 25.3715 63.6894 25.4799C63.8921 25.5836 64.0476 25.7108 64.156 25.8617V23.6205H64.9337V28.9229H64.156V28.4492C64.0476 28.6 63.8921 28.7296 63.6894 28.8381C63.4868 28.9417 63.2653 28.9936 63.0249 28.9936ZM62.4098 27.9614C62.6078 28.1782 62.8599 28.2866 63.1663 28.2866C63.4726 28.2866 63.7248 28.1782 63.9227 27.9614C64.1207 27.7446 64.2197 27.4759 64.2197 27.1554C64.2197 26.8349 64.1207 26.5663 63.9227 26.3495C63.7248 26.1327 63.4726 26.0243 63.1663 26.0243C62.8599 26.0243 62.6078 26.1327 62.4098 26.3495C62.2119 26.5663 62.1129 26.8349 62.1129 27.1554C62.1129 27.4759 62.2119 27.7446 62.4098 27.9614Z" fill="#202020"/>
<path d="M69.5671 28.9936C69.3267 28.9936 69.1028 28.9417 68.8954 28.8381C68.6928 28.7296 68.5372 28.6 68.4288 28.4492V28.9229H67.6512V23.6205H68.4288V25.8617C68.5372 25.7108 68.6928 25.5836 68.8954 25.4799C69.1028 25.3715 69.3267 25.3173 69.5671 25.3173C70.0478 25.3173 70.4508 25.4964 70.776 25.8546C71.1059 26.2128 71.2709 26.6464 71.2709 27.1554C71.2709 27.6645 71.1059 28.0981 70.776 28.4563C70.4508 28.8145 70.0478 28.9936 69.5671 28.9936ZM69.4257 28.2866C69.732 28.2866 69.9842 28.1782 70.1821 27.9614C70.3801 27.7446 70.4791 27.4759 70.4791 27.1554C70.4791 26.8349 70.3801 26.5663 70.1821 26.3495C69.9842 26.1327 69.732 26.0243 69.4257 26.0243C69.1146 26.0243 68.8601 26.1327 68.6621 26.3495C68.4642 26.5663 68.3652 26.8349 68.3652 27.1554C68.3652 27.4759 68.4642 27.7446 68.6621 27.9614C68.8601 28.1782 69.1146 28.2866 69.4257 28.2866Z" fill="#202020"/>
<path d="M73.1112 30.4005H72.2557L73.0122 28.732L71.4922 25.388H72.3477L73.4293 27.8907L74.5181 25.388H75.3806L73.1112 30.4005Z" fill="#202020"/>
<path d="M77.4273 28.9229V25.388H78.205V26.0172C78.271 25.8192 78.3912 25.659 78.5656 25.5365C78.7447 25.4139 78.9356 25.3526 79.1382 25.3526C79.2608 25.3526 79.3621 25.3621 79.4422 25.3809V26.1798C79.3291 26.1374 79.1995 26.1162 79.0534 26.1162C78.8177 26.1162 78.6174 26.2128 78.4525 26.406C78.2875 26.5946 78.205 26.8585 78.205 27.1979V28.9229H77.4273Z" fill="#202020"/>
<path d="M81.445 28.9936C80.9642 28.9936 80.5589 28.8145 80.229 28.4563C79.9038 28.0981 79.7411 27.6645 79.7411 27.1554C79.7411 26.6464 79.9038 26.2128 80.229 25.8546C80.5589 25.4964 80.9642 25.3173 81.445 25.3173C81.6853 25.3173 81.9069 25.3715 82.1095 25.4799C82.3122 25.5836 82.4677 25.7108 82.5761 25.8617V25.388H83.3538V28.9229H82.5761V28.4492C82.4677 28.6 82.3122 28.7296 82.1095 28.8381C81.9069 28.9417 81.6853 28.9936 81.445 28.9936ZM80.8299 27.9614C81.0279 28.1782 81.28 28.2866 81.5864 28.2866C81.8927 28.2866 82.1449 28.1782 82.3428 27.9614C82.5408 27.7446 82.6398 27.4759 82.6398 27.1554C82.6398 26.8349 82.5408 26.5663 82.3428 26.3495C82.1449 26.1327 81.8927 26.0243 81.5864 26.0243C81.28 26.0243 81.0279 26.1327 80.8299 26.3495C80.6319 26.5663 80.533 26.8349 80.533 27.1554C80.533 27.4759 80.6319 27.7446 80.8299 27.9614Z" fill="#202020"/>
<path d="M84.4074 28.9229V25.388H85.185V26.0172C85.251 25.8192 85.3712 25.659 85.5456 25.5365C85.7247 25.4139 85.9156 25.3526 86.1183 25.3526C86.2408 25.3526 86.3421 25.3621 86.4223 25.3809V26.1798C86.3091 26.1374 86.1795 26.1162 86.0334 26.1162C85.7978 26.1162 85.5974 26.2128 85.4325 26.406C85.2675 26.5946 85.185 26.8585 85.185 27.1979V28.9229H84.4074Z" fill="#202020"/>
<path d="M87.4819 24.6174C87.3405 24.6174 87.218 24.5679 87.1143 24.4689C87.0106 24.3652 86.9587 24.2403 86.9587 24.0942C86.9587 23.9528 87.0106 23.8326 87.1143 23.7337C87.218 23.63 87.3405 23.5781 87.4819 23.5781C87.628 23.5781 87.7505 23.63 87.8495 23.7337C87.9485 23.8326 87.998 23.9528 87.998 24.0942C87.998 24.2403 87.9485 24.3652 87.8495 24.4689C87.7505 24.5679 87.628 24.6174 87.4819 24.6174ZM87.0931 28.9229V25.388H87.8707V28.9229H87.0931Z" fill="#202020"/>
<path d="M93.4192 28.9229V26.9363C93.4192 26.6488 93.365 26.4249 93.2566 26.2646C93.1529 26.1044 92.9973 26.0243 92.79 26.0243C92.5402 26.0243 92.3399 26.1209 92.189 26.3141C92.0382 26.5074 91.9581 26.7784 91.9487 27.1272V28.9229H91.171V26.9363C91.171 26.6488 91.1168 26.4249 91.0084 26.2646C90.9047 26.1044 90.7492 26.0243 90.5418 26.0243C90.2826 26.0243 90.0752 26.1256 89.9196 26.3283C89.7688 26.5309 89.6934 26.8161 89.6934 27.1837V28.9229H88.9157V25.388H89.6934V25.8687C89.9102 25.5011 90.2449 25.3173 90.6973 25.3173C91.2299 25.3173 91.5952 25.5506 91.7931 26.0172C91.8921 25.7957 92.0429 25.6237 92.2456 25.5011C92.453 25.3786 92.6792 25.3173 92.9243 25.3173C93.3202 25.3173 93.6313 25.4516 93.8575 25.7203C94.0837 25.9889 94.1969 26.3518 94.1969 26.809V28.9229H93.4192Z" fill="#202020"/>
<path d="M98.1043 28.4634C97.7508 28.8168 97.3125 28.9936 96.7893 28.9936C96.2661 28.9936 95.8255 28.8168 95.4673 28.4634C95.1138 28.1051 94.937 27.6692 94.937 27.1554C94.937 26.6417 95.1138 26.2081 95.4673 25.8546C95.8255 25.4964 96.2661 25.3173 96.7893 25.3173C97.3125 25.3173 97.7508 25.4964 98.1043 25.8546C98.4625 26.2081 98.6416 26.6417 98.6416 27.1554C98.6416 27.6692 98.4625 28.1051 98.1043 28.4634ZM96.7893 28.2725C97.0957 28.2725 97.3478 28.1664 97.5458 27.9543C97.7484 27.7375 97.8498 27.4712 97.8498 27.1554C97.8498 26.8397 97.7484 26.5757 97.5458 26.3636C97.3478 26.1468 97.0957 26.0384 96.7893 26.0384C96.4782 26.0384 96.2214 26.1468 96.0187 26.3636C95.8208 26.5757 95.7218 26.8397 95.7218 27.1554C95.7218 27.4712 95.8208 27.7375 96.0187 27.9543C96.2214 28.1664 96.4782 28.2725 96.7893 28.2725Z" fill="#202020"/>
</svg>
