<svg viewBox="0 0 33 32" fill="none" xmlns="http://www.w3.org/2000/svg">
<path d="M28.2065 16.7071L19.2065 25.7071C19.0189 25.8947 18.7644 26.0001 18.499 26.0001C18.2337 26.0001 17.9792 25.8947 17.7915 25.7071C17.6039 25.5194 17.4985 25.2649 17.4985 24.9996C17.4985 24.7342 17.6039 24.4797 17.7915 24.2921L25.0853 16.9996H5.49902C5.23381 16.9996 4.97945 16.8942 4.79192 16.7067C4.60438 16.5192 4.49902 16.2648 4.49902 15.9996C4.49902 15.7344 4.60438 15.48 4.79192 15.2925C4.97945 15.1049 5.23381 14.9996 5.49902 14.9996H25.0853L17.7915 7.70708C17.6039 7.51944 17.4985 7.26494 17.4985 6.99958C17.4985 6.73422 17.6039 6.47972 17.7915 6.29208C17.9792 6.10444 18.2337 5.99902 18.499 5.99902C18.7644 5.99902 19.0189 6.10444 19.2065 6.29208L28.2065 15.2921C28.2995 15.385 28.3733 15.4952 28.4236 15.6166C28.4739 15.738 28.4998 15.8682 28.4998 15.9996C28.4998 16.131 28.4739 16.2611 28.4236 16.3825C28.3733 16.5039 28.2995 16.6142 28.2065 16.7071Z" fill="currentColor"/>
</svg>
