<svg viewBox="0 0 21 20" fill="none" xmlns="http://www.w3.org/2000/svg">
<path d="M17.1925 10.1823C17.2506 10.2404 17.2967 10.3093 17.3282 10.3852C17.3597 10.4611 17.3758 10.5424 17.3758 10.6245C17.3758 10.7066 17.3597 10.788 17.3282 10.8639C17.2967 10.9397 17.2506 11.0087 17.1925 11.0667L10.9425 17.3167C10.8845 17.3748 10.8156 17.4209 10.7397 17.4524C10.6638 17.4838 10.5825 17.5 10.5003 17.5C10.4182 17.5 10.3369 17.4838 10.261 17.4524C10.1851 17.4209 10.1162 17.3748 10.0582 17.3167L3.80816 11.0667C3.69088 10.9494 3.625 10.7904 3.625 10.6245C3.625 10.4587 3.69088 10.2996 3.80816 10.1823C3.92544 10.0651 4.0845 9.99917 4.25035 9.99917C4.4162 9.99917 4.57526 10.0651 4.69253 10.1823L10.5003 15.9909L16.3082 10.1823C16.3662 10.1242 16.4351 10.0781 16.511 10.0467C16.5869 10.0152 16.6682 9.99902 16.7503 9.99902C16.8325 9.99902 16.9138 10.0152 16.9897 10.0467C17.0656 10.0781 17.1345 10.1242 17.1925 10.1823Z" fill="currentColor" fill-opacity="0.56"/>
<path d="M10.2427 11.2572C10.2765 11.291 10.3166 11.3178 10.3607 11.3361C10.4049 11.3544 10.4522 11.3639 10.5 11.3639C10.5477 11.3639 10.5951 11.3544 10.6392 11.3361C10.6833 11.3178 10.7234 11.291 10.7572 11.2572L14.3934 7.62107C14.4616 7.55284 14.4999 7.46031 14.4999 7.36382C14.4999 7.26733 14.4616 7.17479 14.3934 7.10656C14.3251 7.03833 14.2326 7 14.1361 7C14.0396 7 13.9471 7.03833 13.8788 7.10656L10.5 10.4859L7.12107 7.10656C7.05284 7.03833 6.96031 7 6.86382 7C6.76733 7 6.67479 7.03833 6.60656 7.10656C6.53833 7.17479 6.5 7.26733 6.5 7.36382C6.5 7.46031 6.53833 7.55284 6.60656 7.62107L10.2427 11.2572Z" fill="currentColor" fill-opacity="0.56"/>
</svg>
