<svg viewBox="0 0 24 24" fill="none" xmlns="http://www.w3.org/2000/svg">
<path d="M21.1875 3.1875H2.8125C1.26169 3.1875 0 4.44919 0 6V18C0 19.5508 1.26169 20.8125 2.8125 20.8125H21.1875C22.7383 20.8125 24 19.5508 24 18V6C24 4.44919 22.7383 3.1875 21.1875 3.1875ZM22.125 18C22.125 18.5169 21.7044 18.9375 21.1875 18.9375H2.8125C2.29556 18.9375 1.875 18.5169 1.875 18V12.8963H7.54594C7.96983 14.9539 9.79537 16.5057 11.9766 16.5057C14.1578 16.5057 15.9833 14.9539 16.4072 12.8963H22.125V18ZM9.32812 11.9823C9.32812 10.5219 10.5162 9.33384 11.9766 9.33384C13.4369 9.33384 14.625 10.5219 14.625 11.9823C14.625 13.4426 13.4369 14.6307 11.9766 14.6307C10.5162 14.6307 9.32812 13.4426 9.32812 11.9823ZM22.125 11.0213H16.3973C15.9555 8.98711 14.1412 7.45884 11.9766 7.45884C9.81192 7.45884 7.99762 8.98711 7.55583 11.0213H1.875V6C1.875 5.48306 2.29556 5.0625 2.8125 5.0625H21.1875C21.7044 5.0625 22.125 5.48306 22.125 6V11.0213Z" fill="currentColor"/>
</svg>
