<svg width="113" height="32" viewBox="0 0 113 32" fill="none" xmlns="http://www.w3.org/2000/svg">
<path fill-rule="evenodd" clip-rule="evenodd" d="M2.31836 14.7948C2.31834 21.9617 7.37699 28.1321 14.4046 29.5378C15.4688 29.7506 16.5645 29.7506 17.6285 29.5375H17.6289C24.6564 28.1319 29.7147 21.9615 29.715 14.7948V9.91093C29.715 5.70796 26.3076 2.30078 22.1047 2.30078H9.92849C5.72553 2.30078 2.31836 5.70796 2.31836 9.91093V14.7948ZM12.3013 14.4773C12.3013 14.0077 11.9206 13.627 11.4509 13.627C10.9813 13.627 10.6006 14.0077 10.6006 14.4773V19.0434C10.6006 19.513 10.9813 19.8937 11.4509 19.8937C11.9206 19.8937 12.3013 19.513 12.3013 19.0434V14.4773ZM16.0173 13.5C16.487 13.5 16.8677 13.8807 16.8677 14.3504V19.0433C16.8677 19.5129 16.487 19.8936 16.0173 19.8936C15.5477 19.8936 15.167 19.5129 15.167 19.0433V14.3504C15.167 13.8807 15.5477 13.5 16.0173 13.5ZM16.0171 9.06055L16.0139 9.06055C15.0207 9.06429 14.0479 9.34314 13.2035 9.86614C12.8042 10.1134 12.681 10.6376 12.9283 11.0368C13.1756 11.4361 13.6998 11.5593 14.099 11.312C14.6758 10.9547 15.3403 10.7641 16.0187 10.7613C18.0701 10.7621 19.7328 12.4254 19.7328 14.477V19.0431C19.7328 19.5127 20.1135 19.8935 20.5832 19.8935C21.0528 19.8935 21.4335 19.5127 21.4335 19.0431V14.477C21.4335 11.4856 19.0086 9.06055 16.0171 9.06055Z" fill="currentColor"/>
<path d="M98.8166 17.202C97.7775 17.202 96.8802 16.9861 96.1245 16.5542C95.3733 16.1179 94.7953 15.5017 94.3904 14.7055C93.9856 13.9049 93.7832 12.9625 93.7832 11.8785C93.7832 10.8124 93.9856 9.87681 94.3904 9.07164C94.7998 8.26199 95.371 7.63225 96.1042 7.18244C96.8374 6.72813 97.6988 6.50098 98.6884 6.50098C99.3271 6.50098 99.9299 6.60443 100.497 6.81135C101.068 7.01376 101.572 7.32863 102.008 7.75595C102.449 8.18327 102.795 8.72754 103.047 9.38876C103.299 10.0455 103.425 10.8282 103.425 11.7368V12.4857H94.9302V10.8394H101.084C101.079 10.3716 100.978 9.95552 100.78 9.59118C100.582 9.22233 100.305 8.9322 99.9501 8.72079C99.5993 8.50938 99.1899 8.40368 98.7221 8.40368C98.2228 8.40368 97.7843 8.52512 97.4064 8.76802C97.0286 9.00642 96.734 9.32129 96.5226 9.71262C96.3156 10.0995 96.2099 10.5245 96.2054 10.9878V12.425C96.2054 13.0277 96.3156 13.545 96.536 13.9768C96.7565 14.4041 97.0646 14.7325 97.4604 14.9619C97.8562 15.1868 98.3195 15.2993 98.8503 15.2993C99.2057 15.2993 99.5273 15.2498 99.8152 15.1508C100.103 15.0474 100.353 14.8967 100.564 14.6988C100.776 14.5009 100.935 14.2557 101.043 13.9633L103.324 14.2197C103.18 14.8225 102.905 15.3488 102.501 15.7986C102.1 16.2439 101.587 16.5902 100.962 16.8376C100.337 17.0805 99.6217 17.202 98.8166 17.202Z" fill="currentColor"/>
<path d="M77.1191 3.18164H80.1824L84.2846 13.1944H84.4466L88.5488 3.18164H91.612V16.9998H89.21V7.50657H89.0819L85.263 16.9593H83.4682L79.6493 7.48633H79.5211V16.9998H77.1191V3.18164Z" fill="currentColor"/>
<path d="M72.0561 16.9998V6.63619H74.4986V16.9998H72.0561ZM73.2841 5.16531C72.8973 5.16531 72.5644 5.03711 72.2855 4.78072C72.0066 4.51983 71.8672 4.20721 71.8672 3.84286C71.8672 3.47402 72.0066 3.1614 72.2855 2.90501C72.5644 2.64412 72.8973 2.51367 73.2841 2.51367C73.6754 2.51367 74.0083 2.64412 74.2827 2.90501C74.5616 3.1614 74.701 3.47402 74.701 3.84286C74.701 4.20721 74.5616 4.51983 74.2827 4.78072C74.0083 5.03711 73.6754 5.16531 73.2841 5.16531Z" fill="currentColor"/>
<path d="M64.5234 16.9994V6.63574H66.8917V8.36301H66.9996C67.1886 7.76477 67.5124 7.30371 67.9712 6.97985C68.4345 6.65149 68.9631 6.4873 69.5568 6.4873C69.6918 6.4873 69.8424 6.49405 70.0089 6.50755C70.1798 6.51654 70.3215 6.53229 70.4339 6.55478V8.80158C70.3305 8.7656 70.1663 8.73411 69.9414 8.70712C69.721 8.67563 69.5073 8.65989 69.3004 8.65989C68.8551 8.65989 68.4548 8.7566 68.0994 8.95002C67.7486 9.13894 67.4719 9.40208 67.2695 9.73944C67.0671 10.0768 66.9659 10.4659 66.9659 10.9067V16.9994H64.5234Z" fill="currentColor"/>
<path d="M56.595 17.2087C55.9383 17.2087 55.3468 17.0918 54.8205 16.8579C54.2987 16.6195 53.8849 16.2686 53.579 15.8053C53.2776 15.342 53.127 14.7707 53.127 14.0915C53.127 13.5068 53.2349 13.0232 53.4508 12.6409C53.6667 12.2586 53.9614 11.9527 54.3347 11.7233C54.708 11.4939 55.1286 11.3207 55.5964 11.2037C56.0687 11.0823 56.5568 10.9946 57.0605 10.9406C57.6678 10.8776 58.1603 10.8214 58.5382 10.7719C58.916 10.718 59.1904 10.637 59.3613 10.529C59.5368 10.4166 59.6245 10.2434 59.6245 10.0095V9.96902C59.6245 9.46073 59.4738 9.06715 59.1724 8.78826C58.871 8.50938 58.437 8.36994 57.8702 8.36994C57.272 8.36994 56.7974 8.50038 56.4466 8.76127C56.1002 9.02216 55.8663 9.33028 55.7449 9.68564L53.4643 9.36177C53.6442 8.73204 53.9411 8.20576 54.3549 7.78294C54.7688 7.35562 55.2748 7.03625 55.873 6.82484C56.4713 6.60893 57.1325 6.50098 57.8567 6.50098C58.356 6.50098 58.853 6.55945 59.3478 6.6764C59.8426 6.79335 60.2947 6.98677 60.704 7.25666C61.1133 7.52205 61.4417 7.88414 61.6891 8.34295C61.941 8.80176 62.0669 9.37527 62.0669 10.0635V16.9996H59.7189V15.5759H59.638C59.4895 15.8638 59.2804 16.1337 59.0105 16.3856C58.7451 16.633 58.41 16.8331 58.0051 16.9861C57.6048 17.1345 57.1348 17.2087 56.595 17.2087ZM57.2292 15.414C57.7195 15.414 58.1446 15.3173 58.5044 15.1238C58.8643 14.9259 59.1409 14.665 59.3343 14.3412C59.5323 14.0173 59.6312 13.6642 59.6312 13.2819V12.0606C59.5547 12.1236 59.4243 12.1821 59.2399 12.2361C59.06 12.29 58.8575 12.3373 58.6326 12.3778C58.4077 12.4182 58.1851 12.4542 57.9647 12.4857C57.7443 12.5172 57.5531 12.5442 57.3912 12.5667C57.0268 12.6162 56.7007 12.6971 56.4128 12.8096C56.1249 12.922 55.8978 13.0795 55.7314 13.2819C55.5649 13.4798 55.4817 13.7362 55.4817 14.051C55.4817 14.5009 55.6459 14.8405 55.9743 15.0699C56.3026 15.2993 56.7209 15.414 57.2292 15.414Z" fill="currentColor"/>
<path d="M41.3633 16.9998V3.18164H46.5451C47.6067 3.18164 48.4973 3.36606 49.217 3.73491C49.9412 4.10375 50.4877 4.62103 50.8565 5.28675C51.2299 5.94798 51.4165 6.7194 51.4165 7.60103C51.4165 8.48716 51.2276 9.25633 50.8498 9.90856C50.4764 10.5563 49.9254 11.0578 49.1967 11.4132C48.468 11.764 47.5729 11.9395 46.5114 11.9395H42.8207V9.86133H46.174C46.7947 9.86133 47.303 9.77586 47.6989 9.60494C48.0947 9.42951 48.3871 9.17537 48.576 8.84251C48.7694 8.50515 48.8661 8.09132 48.8661 7.60103C48.8661 7.11074 48.7694 6.69241 48.576 6.34606C48.3826 5.99521 48.088 5.72982 47.6921 5.54989C47.2963 5.36547 46.7857 5.27326 46.1605 5.27326H43.8665V16.9998H41.3633ZM48.5018 10.7385L51.9226 16.9998H49.1293L45.7692 10.7385H48.5018Z" fill="currentColor"/>
<path d="M110.739 28.0905C110.345 28.0905 109.999 27.9967 109.702 27.8092C109.407 27.6217 109.176 27.3594 109.009 27.0223C108.844 26.6852 108.762 26.2912 108.762 25.8405C108.762 25.3859 108.844 24.9891 109.009 24.6501C109.176 24.3111 109.407 24.0479 109.702 23.8604C109.999 23.6729 110.345 23.5791 110.739 23.5791C111.133 23.5791 111.478 23.6729 111.773 23.8604C112.07 24.0479 112.301 24.3111 112.466 24.6501C112.633 24.9891 112.716 25.3859 112.716 25.8405C112.716 26.2912 112.633 26.6852 112.466 27.0223C112.301 27.3594 112.07 27.6217 111.773 27.8092C111.478 27.9967 111.133 28.0905 110.739 28.0905ZM110.739 27.4882C111.038 27.4882 111.284 27.4115 111.478 27.2581C111.671 27.1047 111.814 26.903 111.907 26.653C111.999 26.403 112.046 26.1321 112.046 25.8405C112.046 25.5488 111.999 25.277 111.907 25.0251C111.814 24.7732 111.671 24.5696 111.478 24.4143C111.284 24.259 111.038 24.1814 110.739 24.1814C110.44 24.1814 110.194 24.259 110 24.4143C109.807 24.5696 109.664 24.7732 109.571 25.0251C109.479 25.277 109.432 25.5488 109.432 25.8405C109.432 26.1321 109.479 26.403 109.571 26.653C109.664 26.903 109.807 27.1047 110 27.2581C110.194 27.4115 110.44 27.4882 110.739 27.4882Z" fill="#8D8D8D"/>
<path d="M102.012 27.9996V23.6359H102.659V24.3177H102.716C102.807 24.0848 102.954 23.9039 103.157 23.7751C103.359 23.6444 103.603 23.5791 103.887 23.5791C104.175 23.5791 104.414 23.6444 104.605 23.7751C104.799 23.9039 104.949 24.0848 105.057 24.3177H105.103C105.214 24.0924 105.382 23.9134 105.605 23.7808C105.829 23.6463 106.097 23.5791 106.409 23.5791C106.8 23.5791 107.119 23.7013 107.367 23.9456C107.615 24.188 107.739 24.5658 107.739 25.0791V27.9996H107.069V25.0791C107.069 24.7571 106.98 24.527 106.804 24.3888C106.628 24.2505 106.421 24.1814 106.182 24.1814C105.875 24.1814 105.638 24.2742 105.469 24.4598C105.301 24.6435 105.216 24.8765 105.216 25.1586V27.9996H104.534V25.0109C104.534 24.7628 104.454 24.563 104.293 24.4115C104.132 24.2581 103.925 24.1814 103.671 24.1814C103.497 24.1814 103.334 24.2278 103.182 24.3206C103.033 24.4134 102.911 24.5422 102.819 24.7069C102.728 24.8698 102.682 25.0583 102.682 25.2723V27.9996H102.012Z" fill="#8D8D8D"/>
<path d="M100.115 28V23.6364H100.785V28H100.115ZM100.456 22.9091C100.325 22.9091 100.212 22.8646 100.118 22.7756C100.025 22.6866 99.9785 22.5795 99.9785 22.4545C99.9785 22.3295 100.025 22.2225 100.118 22.1335C100.212 22.0445 100.325 22 100.456 22C100.586 22 100.698 22.0445 100.791 22.1335C100.886 22.2225 100.933 22.3295 100.933 22.4545C100.933 22.5795 100.886 22.6866 100.791 22.7756C100.698 22.8646 100.586 22.9091 100.456 22.9091Z" fill="#8D8D8D"/>
<path d="M97.1367 28.0002V23.6365H97.7844V24.2956H97.8299C97.9094 24.0797 98.0534 23.9045 98.2617 23.7701C98.4701 23.6356 98.7049 23.5684 98.9663 23.5684C99.0155 23.5684 99.0771 23.5693 99.1509 23.5712C99.2248 23.5731 99.2807 23.5759 99.3185 23.5797V24.2615C99.2958 24.2559 99.2437 24.2473 99.1623 24.236C99.0827 24.2227 98.9985 24.2161 98.9094 24.2161C98.6973 24.2161 98.5079 24.2606 98.3413 24.3496C98.1765 24.4367 98.0458 24.5579 97.9492 24.7132C97.8545 24.8667 97.8072 25.0418 97.8072 25.2388V28.0002H97.1367Z" fill="#8D8D8D"/>
<path d="M93.9144 28.1018C93.6379 28.1018 93.387 28.0497 93.1616 27.9456C92.9362 27.8395 92.7572 27.6871 92.6246 27.4882C92.4921 27.2874 92.4258 27.045 92.4258 26.7609C92.4258 26.5109 92.475 26.3083 92.5735 26.153C92.672 25.9958 92.8036 25.8727 92.9684 25.7836C93.1332 25.6946 93.315 25.6283 93.5138 25.5848C93.7146 25.5393 93.9163 25.5033 94.119 25.4768C94.3841 25.4427 94.5991 25.4172 94.7638 25.4001C94.9305 25.3812 95.0517 25.3499 95.1275 25.3064C95.2051 25.2628 95.244 25.1871 95.244 25.0791V25.0564C95.244 24.7761 95.1673 24.5583 95.0138 24.403C94.8623 24.2477 94.6322 24.17 94.3235 24.17C94.0034 24.17 93.7525 24.2401 93.5707 24.3802C93.3888 24.5204 93.261 24.67 93.1871 24.8291L92.5508 24.6018C92.6644 24.3367 92.8159 24.1302 93.0053 23.9825C93.1966 23.8329 93.4049 23.7287 93.6303 23.67C93.8576 23.6094 94.0811 23.5791 94.3008 23.5791C94.4409 23.5791 94.6019 23.5961 94.7837 23.6302C94.9674 23.6624 95.1445 23.7297 95.315 23.8319C95.4873 23.9342 95.6303 24.0886 95.744 24.295C95.8576 24.5014 95.9144 24.778 95.9144 25.1246V27.9996H95.244V27.4086H95.2099C95.1644 27.5033 95.0887 27.6047 94.9826 27.7126C94.8765 27.8206 94.7354 27.9124 94.5593 27.9882C94.3832 28.064 94.1682 28.1018 93.9144 28.1018ZM94.0167 27.4996C94.2818 27.4996 94.5053 27.4475 94.6871 27.3433C94.8709 27.2391 95.0091 27.1047 95.1019 26.9399C95.1966 26.7751 95.244 26.6018 95.244 26.42V25.8064C95.2156 25.8405 95.1531 25.8717 95.0565 25.9001C94.9618 25.9266 94.8519 25.9503 94.7269 25.9711C94.6038 25.9901 94.4835 26.0071 94.3661 26.0223C94.2506 26.0355 94.1568 26.0469 94.0849 26.0564C93.9106 26.0791 93.7477 26.116 93.5962 26.1672C93.4466 26.2164 93.3254 26.2912 93.2326 26.3916C93.1417 26.4901 93.0962 26.6246 93.0962 26.795C93.0962 27.028 93.1824 27.2041 93.3548 27.3234C93.529 27.4408 93.7496 27.4996 94.0167 27.4996Z" fill="#8D8D8D"/>
<path d="M87.6035 27.9998V22.1816H89.5694C90.024 22.1816 90.3971 22.2593 90.6887 22.4146C90.9804 22.568 91.1963 22.7792 91.3365 23.0481C91.4766 23.3171 91.5467 23.6229 91.5467 23.9657C91.5467 24.3085 91.4766 24.6125 91.3365 24.8777C91.1963 25.1428 90.9814 25.3511 90.6916 25.5027C90.4018 25.6523 90.0315 25.7271 89.5808 25.7271H87.9899V25.0907H89.5581C89.8687 25.0907 90.1187 25.0453 90.3081 24.9544C90.4994 24.8635 90.6376 24.7347 90.7228 24.568C90.81 24.3994 90.8535 24.1987 90.8535 23.9657C90.8535 23.7328 90.81 23.5292 90.7228 23.3549C90.6357 23.1807 90.4965 23.0462 90.3052 22.9515C90.1139 22.8549 89.8611 22.8066 89.5467 22.8066H88.3081V27.9998H87.6035ZM90.3422 25.3862L91.774 27.9998H90.9558L89.5467 25.3862H90.3422Z" fill="#8D8D8D"/>
<path d="M81.2415 29.6367C81.1278 29.6367 81.0265 29.6272 80.9375 29.6083C80.8485 29.5913 80.7869 29.5742 80.7528 29.5572L80.9233 28.9663C81.0862 29.0079 81.2301 29.0231 81.3551 29.0117C81.4801 29.0004 81.5909 28.9445 81.6875 28.8441C81.786 28.7456 81.8759 28.5856 81.9574 28.364L82.0824 28.0231L80.4688 23.6367H81.196L82.4006 27.114H82.446L83.6506 23.6367H84.3778L82.5256 28.6367C82.4422 28.8621 82.339 29.0487 82.2159 29.1964C82.0928 29.346 81.9498 29.4568 81.7869 29.5288C81.6259 29.6007 81.4441 29.6367 81.2415 29.6367Z" fill="#8D8D8D"/>
<path d="M76.0879 27.9998V22.1816H76.7583V24.3294H76.8152C76.8644 24.2536 76.9326 24.157 77.0197 24.0396C77.1087 23.9203 77.2356 23.8142 77.4004 23.7214C77.5671 23.6267 77.7924 23.5794 78.0765 23.5794C78.444 23.5794 78.7678 23.6712 79.0481 23.8549C79.3284 24.0386 79.5472 24.2991 79.7044 24.6362C79.8616 24.9733 79.9402 25.371 79.9402 25.8294C79.9402 26.2915 79.8616 26.6921 79.7044 27.0311C79.5472 27.3682 79.3294 27.6296 79.051 27.8152C78.7726 27.9989 78.4515 28.0907 78.0879 28.0907C77.8076 28.0907 77.5832 28.0443 77.4146 27.9515C77.246 27.8568 77.1163 27.7498 77.0254 27.6305C76.9345 27.5093 76.8644 27.4089 76.8152 27.3294H76.7356V27.9998H76.0879ZM76.747 25.818C76.747 26.1476 76.7953 26.4383 76.8919 26.6902C76.9885 26.9402 77.1296 27.1362 77.3152 27.2782C77.5008 27.4184 77.728 27.4885 77.997 27.4885C78.2773 27.4885 78.5112 27.4146 78.6987 27.2669C78.8881 27.1172 79.0301 26.9165 79.1248 26.6646C79.2214 26.4108 79.2697 26.1286 79.2697 25.818C79.2697 25.5112 79.2224 25.2347 79.1277 24.9885C79.0349 24.7404 78.8938 24.5443 78.7044 24.4004C78.5169 24.2546 78.2811 24.1816 77.997 24.1816C77.7243 24.1816 77.4951 24.2508 77.3095 24.389C77.1239 24.5254 76.9837 24.7167 76.889 24.9629C76.7943 25.2072 76.747 25.4922 76.747 25.818Z" fill="#8D8D8D"/>
<path d="M70.4265 28.0907C70.0629 28.0907 69.7418 27.9989 69.4634 27.8152C69.185 27.6296 68.9672 27.3682 68.81 27.0311C68.6528 26.6921 68.5742 26.2915 68.5742 25.8294C68.5742 25.371 68.6528 24.9733 68.81 24.6362C68.9672 24.2991 69.186 24.0386 69.4663 23.8549C69.7466 23.6712 70.0704 23.5794 70.4379 23.5794C70.7219 23.5794 70.9464 23.6267 71.1112 23.7214C71.2778 23.8142 71.4047 23.9203 71.4918 24.0396C71.5808 24.157 71.65 24.2536 71.6992 24.3294H71.756V22.1816H72.4265V27.9998H71.7788V27.3294H71.6992C71.65 27.4089 71.5799 27.5093 71.489 27.6305C71.3981 27.7498 71.2683 27.8568 71.0998 27.9515C70.9312 28.0443 70.7068 28.0907 70.4265 28.0907ZM70.5174 27.4885C70.7863 27.4885 71.0136 27.4184 71.1992 27.2782C71.3848 27.1362 71.5259 26.9402 71.6225 26.6902C71.7191 26.4383 71.7674 26.1476 71.7674 25.818C71.7674 25.4922 71.7201 25.2072 71.6254 24.9629C71.5307 24.7167 71.3905 24.5254 71.2049 24.389C71.0193 24.2508 70.7901 24.1816 70.5174 24.1816C70.2333 24.1816 69.9966 24.2546 69.8072 24.4004C69.6197 24.5443 69.4786 24.7404 69.3839 24.9885C69.2911 25.2347 69.2447 25.5112 69.2447 25.818C69.2447 26.1286 69.292 26.4108 69.3867 26.6646C69.4833 26.9165 69.6254 27.1172 69.8129 27.2669C70.0023 27.4146 70.2371 27.4885 70.5174 27.4885Z" fill="#8D8D8D"/>
<path d="M65.9521 28.0905C65.5316 28.0905 65.1689 27.9977 64.864 27.8121C64.561 27.6246 64.3271 27.3632 64.1623 27.028C63.9994 26.6908 63.918 26.2988 63.918 25.8518C63.918 25.4049 63.9994 25.0109 64.1623 24.67C64.3271 24.3272 64.5562 24.0602 64.8498 23.8689C65.1452 23.6757 65.4899 23.5791 65.8839 23.5791C66.1112 23.5791 66.3356 23.617 66.5572 23.6927C66.7788 23.7685 66.9805 23.8916 67.1623 24.0621C67.3441 24.2306 67.489 24.4541 67.5969 24.7325C67.7049 25.0109 67.7589 25.3537 67.7589 25.7609V26.045H64.3952V25.4655H67.0771C67.0771 25.2193 67.0278 24.9996 66.9293 24.8064C66.8327 24.6132 66.6945 24.4607 66.5146 24.349C66.3365 24.2372 66.1263 24.1814 65.8839 24.1814C65.6168 24.1814 65.3858 24.2477 65.1907 24.3802C64.9975 24.5109 64.8488 24.6814 64.7447 24.8916C64.6405 25.1018 64.5884 25.3272 64.5884 25.5677V25.9541C64.5884 26.2836 64.6452 26.563 64.7589 26.7922C64.8744 27.0194 65.0344 27.1927 65.239 27.3121C65.4435 27.4295 65.6812 27.4882 65.9521 27.4882C66.1282 27.4882 66.2873 27.4636 66.4293 27.4143C66.5733 27.3632 66.6973 27.2874 66.8015 27.1871C66.9057 27.0848 66.9862 26.9579 67.043 26.8064L67.6907 26.9882C67.6225 27.2079 67.5079 27.4011 67.3469 27.5677C67.186 27.7325 66.9871 27.8613 66.7504 27.9541C66.5136 28.045 66.2475 28.0905 65.9521 28.0905Z" fill="#8D8D8D"/>
<path d="M61.2773 28.0002V23.6365H61.9251V24.2956H61.9705C62.0501 24.0797 62.194 23.9045 62.4023 23.7701C62.6107 23.6356 62.8455 23.5684 63.1069 23.5684C63.1561 23.5684 63.2177 23.5693 63.2915 23.5712C63.3654 23.5731 63.4213 23.5759 63.4592 23.5797V24.2615C63.4364 24.2559 63.3844 24.2473 63.3029 24.236C63.2234 24.2227 63.1391 24.2161 63.0501 24.2161C62.838 24.2161 62.6486 24.2606 62.4819 24.3496C62.3171 24.4367 62.1864 24.5579 62.0898 24.7132C61.9951 24.8667 61.9478 25.0418 61.9478 25.2388V28.0002H61.2773Z" fill="#8D8D8D"/>
<path d="M58.4521 28.0905C58.0316 28.0905 57.6689 27.9977 57.364 27.8121C57.061 27.6246 56.8271 27.3632 56.6623 27.028C56.4994 26.6908 56.418 26.2988 56.418 25.8518C56.418 25.4049 56.4994 25.0109 56.6623 24.67C56.8271 24.3272 57.0562 24.0602 57.3498 23.8689C57.6452 23.6757 57.9899 23.5791 58.3839 23.5791C58.6112 23.5791 58.8356 23.617 59.0572 23.6927C59.2788 23.7685 59.4805 23.8916 59.6623 24.0621C59.8441 24.2306 59.989 24.4541 60.0969 24.7325C60.2049 25.0109 60.2589 25.3537 60.2589 25.7609V26.045H56.8952V25.4655H59.5771C59.5771 25.2193 59.5278 24.9996 59.4293 24.8064C59.3327 24.6132 59.1945 24.4607 59.0146 24.349C58.8365 24.2372 58.6263 24.1814 58.3839 24.1814C58.1168 24.1814 57.8858 24.2477 57.6907 24.3802C57.4975 24.5109 57.3488 24.6814 57.2447 24.8916C57.1405 25.1018 57.0884 25.3272 57.0884 25.5677V25.9541C57.0884 26.2836 57.1452 26.563 57.2589 26.7922C57.3744 27.0194 57.5344 27.1927 57.739 27.3121C57.9435 27.4295 58.1812 27.4882 58.4521 27.4882C58.6282 27.4882 58.7873 27.4636 58.9293 27.4143C59.0733 27.3632 59.1973 27.2874 59.3015 27.1871C59.4057 27.0848 59.4862 26.9579 59.543 26.8064L60.1907 26.9882C60.1225 27.2079 60.0079 27.4011 59.8469 27.5677C59.686 27.7325 59.4871 27.8613 59.2504 27.9541C59.0136 28.045 58.7475 28.0905 58.4521 28.0905Z" fill="#8D8D8D"/>
<path d="M51.2592 28.0004L49.9297 23.6367H50.6342L51.5774 26.9776H51.6229L52.5547 23.6367H53.2706L54.1911 26.9663H54.2365L55.1797 23.6367H55.8842L54.5547 28.0004H53.8956L52.9411 24.6481H52.8729L51.9183 28.0004H51.2592Z" fill="#8D8D8D"/>
<path d="M47.4187 28.0905C47.0247 28.0905 46.6791 27.9967 46.3817 27.8092C46.0863 27.6217 45.8552 27.3594 45.6886 27.0223C45.5238 26.6852 45.4414 26.2912 45.4414 25.8405C45.4414 25.3859 45.5238 24.9891 45.6886 24.6501C45.8552 24.3111 46.0863 24.0479 46.3817 23.8604C46.6791 23.6729 47.0247 23.5791 47.4187 23.5791C47.8126 23.5791 48.1573 23.6729 48.4528 23.8604C48.7501 24.0479 48.9812 24.3111 49.146 24.6501C49.3126 24.9891 49.396 25.3859 49.396 25.8405C49.396 26.2912 49.3126 26.6852 49.146 27.0223C48.9812 27.3594 48.7501 27.6217 48.4528 27.8092C48.1573 27.9967 47.8126 28.0905 47.4187 28.0905ZM47.4187 27.4882C47.7179 27.4882 47.9641 27.4115 48.1573 27.2581C48.3505 27.1047 48.4935 26.903 48.5863 26.653C48.6791 26.403 48.7255 26.1321 48.7255 25.8405C48.7255 25.5488 48.6791 25.277 48.5863 25.0251C48.4935 24.7732 48.3505 24.5696 48.1573 24.4143C47.9641 24.259 47.7179 24.1814 47.4187 24.1814C47.1194 24.1814 46.8732 24.259 46.68 24.4143C46.4869 24.5696 46.3439 24.7732 46.2511 25.0251C46.1583 25.277 46.1119 25.5488 46.1119 25.8405C46.1119 26.1321 46.1583 26.403 46.2511 26.653C46.3439 26.903 46.4869 27.1047 46.68 27.2581C46.8732 27.4115 47.1194 27.4882 47.4187 27.4882Z" fill="#8D8D8D"/>
<path d="M40.7051 27.9998V22.1816H42.671C43.1274 22.1816 43.5005 22.264 43.7903 22.4288C44.082 22.5917 44.2979 22.8123 44.438 23.0907C44.5782 23.3691 44.6483 23.6797 44.6483 24.0225C44.6483 24.3654 44.5782 24.6769 44.438 24.9572C44.2998 25.2375 44.0858 25.461 43.796 25.6277C43.5062 25.7924 43.135 25.8748 42.6824 25.8748H41.2733V25.2498H42.6596C42.9721 25.2498 43.2231 25.1958 43.4125 25.0879C43.6019 24.9799 43.7392 24.8341 43.8244 24.6504C43.9115 24.4648 43.9551 24.2555 43.9551 24.0225C43.9551 23.7896 43.9115 23.5813 43.8244 23.3975C43.7392 23.2138 43.6009 23.0699 43.4096 22.9657C43.2183 22.8597 42.9645 22.8066 42.6483 22.8066H41.4096V27.9998H40.7051Z" fill="#8D8D8D"/>
</svg>
