<svg width="110" height="32" viewBox="0 0 110 32" fill="none" xmlns="http://www.w3.org/2000/svg">
<path fill-rule="evenodd" clip-rule="evenodd" d="M2.30859 14.7958C2.30857 21.9627 7.36723 28.1331 14.3949 29.5387C15.459 29.7515 16.5547 29.7515 17.6188 29.5385H17.6192C24.6467 28.1329 29.705 21.9625 29.7052 14.7957V9.9119C29.7052 5.70894 26.2979 2.30176 22.095 2.30176H9.91874C5.71578 2.30176 2.30859 5.70894 2.30859 9.9119V14.7958ZM12.2906 14.4779C12.2906 14.0083 11.9098 13.6276 11.4402 13.6276C10.9706 13.6276 10.5898 14.0083 10.5898 14.4779V19.044C10.5898 19.5136 10.9706 19.8943 11.4402 19.8943C11.9098 19.8943 12.2906 19.5136 12.2906 19.044V14.4779ZM16.0066 13.501C16.4762 13.501 16.857 13.8817 16.857 14.3513V19.0443C16.857 19.5139 16.4762 19.8946 16.0066 19.8946C15.537 19.8946 15.1562 19.5139 15.1562 19.0443V14.3513C15.1562 13.8817 15.537 13.501 16.0066 13.501ZM16.0054 9.06152L16.0022 9.06153C15.009 9.06527 14.0362 9.34412 13.1918 9.86711C12.7925 10.1144 12.6693 10.6385 12.9166 11.0378C13.1639 11.4371 13.688 11.5602 14.0873 11.313C14.6641 10.9557 15.3286 10.7651 16.007 10.7622C18.0584 10.7631 19.7211 12.4263 19.7211 14.478V19.0441C19.7211 19.5137 20.1018 19.8944 20.5715 19.8944C21.0411 19.8944 21.4218 19.5137 21.4218 19.0441V14.478C21.4218 11.4866 18.9969 9.06152 16.0054 9.06152Z" fill="#202020"/>
<path d="M39.9961 18.7066V10.8832C39.9961 9.22369 40.4149 8.02253 41.2526 7.2797C42.0902 6.52107 43.3625 6.14176 45.0694 6.14176H46.9423V8.27541H45.7807C44.6901 8.27541 43.9157 8.54409 43.4573 9.08145C42.999 9.61882 42.7698 10.4644 42.7698 11.6181V18.7066H39.9961Z" fill="#202020"/>
<path d="M48.1119 6.14176H55.2478C56.4015 6.14176 57.2787 6.48156 57.8793 7.16117C58.4799 7.84077 58.7802 8.73375 58.7802 9.84008V16.5729C58.7802 17.9954 58.069 18.7066 56.6465 18.7066H50.3167C48.2305 18.7066 47.1873 17.4027 47.1873 14.7949C47.1873 13.5779 47.4481 12.6217 47.9697 11.9263C48.4912 11.2309 49.2736 10.8832 50.3167 10.8832H56.0064V10.0772C56.0064 8.87599 55.4216 8.27541 54.2521 8.27541H48.1119V6.14176ZM56.0064 13.0168H51.3835C50.4985 13.0168 50.0559 13.6095 50.0559 14.7949C50.0559 15.9802 50.4985 16.5729 51.3835 16.5729H55.2952C55.7694 16.5729 56.0064 16.3359 56.0064 15.8617V13.0168Z" fill="#202020"/>
<path d="M60.9714 18.7066V10.8832C60.9714 9.22369 61.3902 8.02253 62.2279 7.2797C63.0656 6.52107 64.3378 6.14176 66.0448 6.14176H67.9176V8.27541H66.756C65.6654 8.27541 64.891 8.54409 64.4327 9.08145C63.9743 9.61882 63.7452 10.4644 63.7452 11.6181V18.7066H60.9714Z" fill="#202020"/>
<path d="M69.005 18.7066V6.14176H71.7788V18.7066H69.005ZM71.7788 4.48225H69.005V1.92188H71.7788V4.48225Z" fill="#202020"/>
<path d="M91.242 5.83356L86.9984 16.9048C86.7139 17.616 86.4136 18.1297 86.0975 18.4458C85.7815 18.7461 85.2915 18.8962 84.6277 18.8962C83.9639 18.8962 83.4739 18.7461 83.1579 18.4458C82.8418 18.1297 82.5415 17.616 82.257 16.9048L78.0134 5.83356C77.8711 5.47005 77.7368 5.2883 77.6104 5.2883C77.4365 5.2883 77.3496 5.45425 77.3496 5.78615L77.4207 18.7066H74.2914V4.10294C74.2914 2.6489 75.1843 1.92188 76.9703 1.92188C77.8237 1.92188 78.4559 2.10363 78.8668 2.46714C79.2778 2.83065 79.6176 3.36011 79.8863 4.05552L84.1773 15.1268C84.3669 15.5377 84.5171 15.7432 84.6277 15.7432C84.7383 15.7432 84.8885 15.5377 85.0781 15.1268L89.3691 4.05552C89.6378 3.36011 89.9776 2.83065 90.3885 2.46714C90.7995 2.10363 91.4317 1.92188 92.2851 1.92188C94.0711 1.92188 94.964 2.6489 94.964 4.10294V18.7066H91.8347L91.9295 5.78615C91.9295 5.45425 91.8347 5.2883 91.645 5.2883C91.5186 5.2883 91.3843 5.47005 91.242 5.83356Z" fill="#202020"/>
<path d="M108.813 18.7066H101.844C100.864 18.7066 100.05 18.5722 99.4017 18.3036C98.7695 18.0349 98.2875 17.616 97.9556 17.0471C97.6237 16.4623 97.3945 15.8143 97.2681 15.1031C97.1574 14.3919 97.1021 13.491 97.1021 12.4005C97.1021 9.96652 97.5605 8.29121 98.4771 7.37453C99.4096 6.45785 100.974 5.99951 103.171 5.99951C105.131 5.99951 106.625 6.36302 107.652 7.09005C108.695 7.80126 109.217 9.09726 109.217 10.978C109.217 12.5585 108.569 13.3487 107.273 13.3487H99.9707C99.9707 14.4393 100.145 15.2532 100.492 15.7906C100.856 16.3122 101.583 16.5729 102.673 16.5729H108.813V18.7066ZM99.9707 11.2151H105.732C106.142 11.2151 106.348 10.9701 106.348 10.4802C106.348 9.70574 106.04 9.12096 105.423 8.72584C104.823 8.33072 104.072 8.13316 103.171 8.13316C102.002 8.13316 101.172 8.37814 100.682 8.86809C100.208 9.34223 99.9707 10.1246 99.9707 11.2151Z" fill="#202020"/>
<path d="M43.4232 23.2614C43.7912 23.6134 43.9752 24.0534 43.9752 24.5814C43.9752 25.1094 43.7912 25.5521 43.4232 25.9094C43.0552 26.2614 42.5832 26.4374 42.0072 26.4374H41.1352V28.4054H40.1992V22.7254H42.0072C42.5832 22.7254 43.0552 22.9041 43.4232 23.2614ZM42.7672 25.2854C42.9592 25.0988 43.0552 24.8641 43.0552 24.5814C43.0552 24.2988 42.9592 24.0668 42.7672 23.8854C42.5806 23.6988 42.3246 23.6054 41.9992 23.6054H41.1352V25.5574H41.9992C42.3246 25.5574 42.5806 25.4668 42.7672 25.2854Z" fill="#202020" fill-opacity="0.56"/>
<path d="M47.9537 27.8854C47.5537 28.2854 47.0577 28.4854 46.4657 28.4854C45.8737 28.4854 45.3751 28.2854 44.9697 27.8854C44.5697 27.4801 44.3697 26.9868 44.3697 26.4054C44.3697 25.8241 44.5697 25.3334 44.9697 24.9334C45.3751 24.5281 45.8737 24.3254 46.4657 24.3254C47.0577 24.3254 47.5537 24.5281 47.9537 24.9334C48.3591 25.3334 48.5617 25.8241 48.5617 26.4054C48.5617 26.9868 48.3591 27.4801 47.9537 27.8854ZM46.4657 27.6694C46.8124 27.6694 47.0977 27.5494 47.3217 27.3094C47.5511 27.0641 47.6657 26.7628 47.6657 26.4054C47.6657 26.0481 47.5511 25.7494 47.3217 25.5094C47.0977 25.2641 46.8124 25.1414 46.4657 25.1414C46.1137 25.1414 45.8231 25.2641 45.5937 25.5094C45.3697 25.7494 45.2577 26.0481 45.2577 26.4054C45.2577 26.7628 45.3697 27.0641 45.5937 27.3094C45.8231 27.5494 46.1137 27.6694 46.4657 27.6694Z" fill="#202020" fill-opacity="0.56"/>
<path d="M52.8235 28.4054L51.9435 25.8214L51.0715 28.4054H50.2395L48.8955 24.4054H49.8235L50.6875 27.1654L51.6075 24.4054H52.2795L53.1835 27.1654L54.0635 24.4054H54.9995L53.6555 28.4054H52.8235Z" fill="#202020" fill-opacity="0.56"/>
<path d="M57.4345 28.4854C56.8265 28.4854 56.3251 28.2908 55.9305 27.9014C55.5411 27.5121 55.3465 27.0134 55.3465 26.4054C55.3465 25.8134 55.5438 25.3201 55.9385 24.9254C56.3331 24.5254 56.8318 24.3254 57.4345 24.3254C57.9891 24.3254 58.4478 24.5014 58.8105 24.8534C59.1785 25.2054 59.3625 25.6908 59.3625 26.3094C59.3625 26.4161 59.3598 26.5121 59.3545 26.5974H56.2105C56.2318 26.9228 56.3571 27.1868 56.5865 27.3894C56.8158 27.5868 57.1011 27.6854 57.4425 27.6854C57.9545 27.6854 58.3358 27.4828 58.5865 27.0774L59.2585 27.5574C58.8745 28.1761 58.2665 28.4854 57.4345 28.4854ZM56.2505 25.9574H58.4745C58.4265 25.6801 58.3011 25.4641 58.0985 25.3094C57.9011 25.1494 57.6691 25.0694 57.4025 25.0694C57.1251 25.0694 56.8771 25.1468 56.6585 25.3014C56.4451 25.4561 56.3091 25.6748 56.2505 25.9574Z" fill="#202020" fill-opacity="0.56"/>
<path d="M60.2671 28.4054V24.4054H61.1471V25.1174C61.2218 24.8934 61.3578 24.7121 61.5551 24.5734C61.7578 24.4348 61.9738 24.3654 62.2031 24.3654C62.3418 24.3654 62.4564 24.3761 62.5471 24.3974V25.3014C62.4191 25.2534 62.2724 25.2294 62.1071 25.2294C61.8404 25.2294 61.6138 25.3388 61.4271 25.5574C61.2404 25.7708 61.1471 26.0694 61.1471 26.4534V28.4054H60.2671Z" fill="#202020" fill-opacity="0.56"/>
<path d="M64.9735 28.4854C64.3655 28.4854 63.8642 28.2908 63.4695 27.9014C63.0802 27.5121 62.8855 27.0134 62.8855 26.4054C62.8855 25.8134 63.0829 25.3201 63.4775 24.9254C63.8722 24.5254 64.3709 24.3254 64.9735 24.3254C65.5282 24.3254 65.9869 24.5014 66.3495 24.8534C66.7175 25.2054 66.9015 25.6908 66.9015 26.3094C66.9015 26.4161 66.8989 26.5121 66.8935 26.5974H63.7495C63.7709 26.9228 63.8962 27.1868 64.1255 27.3894C64.3549 27.5868 64.6402 27.6854 64.9815 27.6854C65.4935 27.6854 65.8749 27.4828 66.1255 27.0774L66.7975 27.5574C66.4135 28.1761 65.8055 28.4854 64.9735 28.4854ZM63.7895 25.9574H66.0135C65.9655 25.6801 65.8402 25.4641 65.6375 25.3094C65.4402 25.1494 65.2082 25.0694 64.9415 25.0694C64.6642 25.0694 64.4162 25.1468 64.1975 25.3014C63.9842 25.4561 63.8482 25.6748 63.7895 25.9574Z" fill="#202020" fill-opacity="0.56"/>
<path d="M69.4462 28.4854C68.9022 28.4854 68.4435 28.2828 68.0702 27.8774C67.7022 27.4721 67.5182 26.9814 67.5182 26.4054C67.5182 25.8294 67.7022 25.3388 68.0702 24.9334C68.4435 24.5281 68.9022 24.3254 69.4462 24.3254C69.7182 24.3254 69.9688 24.3868 70.1982 24.5094C70.4275 24.6268 70.6035 24.7708 70.7262 24.9414V22.4054H71.6062V28.4054H70.7262V27.8694C70.6035 28.0401 70.4275 28.1868 70.1982 28.3094C69.9688 28.4268 69.7182 28.4854 69.4462 28.4854ZM68.7502 27.3174C68.9742 27.5628 69.2595 27.6854 69.6062 27.6854C69.9528 27.6854 70.2382 27.5628 70.4622 27.3174C70.6862 27.0721 70.7982 26.7681 70.7982 26.4054C70.7982 26.0428 70.6862 25.7388 70.4622 25.4934C70.2382 25.2481 69.9528 25.1254 69.6062 25.1254C69.2595 25.1254 68.9742 25.2481 68.7502 25.4934C68.5262 25.7388 68.4142 26.0428 68.4142 26.4054C68.4142 26.7681 68.5262 27.0721 68.7502 27.3174Z" fill="#202020" fill-opacity="0.56"/>
<path d="M76.8492 28.4854C76.5772 28.4854 76.3238 28.4268 76.0892 28.3094C75.8598 28.1868 75.6838 28.0401 75.5612 27.8694V28.4054H74.6812V22.4054H75.5612V24.9414C75.6838 24.7708 75.8598 24.6268 76.0892 24.5094C76.3238 24.3868 76.5772 24.3254 76.8492 24.3254C77.3932 24.3254 77.8492 24.5281 78.2172 24.9334C78.5905 25.3388 78.7772 25.8294 78.7772 26.4054C78.7772 26.9814 78.5905 27.4721 78.2172 27.8774C77.8492 28.2828 77.3932 28.4854 76.8492 28.4854ZM76.6892 27.6854C77.0358 27.6854 77.3212 27.5628 77.5452 27.3174C77.7692 27.0721 77.8812 26.7681 77.8812 26.4054C77.8812 26.0428 77.7692 25.7388 77.5452 25.4934C77.3212 25.2481 77.0358 25.1254 76.6892 25.1254C76.3372 25.1254 76.0492 25.2481 75.8252 25.4934C75.6012 25.7388 75.4892 26.0428 75.4892 26.4054C75.4892 26.7681 75.6012 27.0721 75.8252 27.3174C76.0492 27.5628 76.3372 27.6854 76.6892 27.6854Z" fill="#202020" fill-opacity="0.56"/>
<path d="M80.8596 30.0774H79.8916L80.7476 28.1894L79.0276 24.4054H79.9956L81.2196 27.2374L82.4516 24.4054H83.4276L80.8596 30.0774Z" fill="#202020" fill-opacity="0.56"/>
<path d="M85.7437 28.4054V24.4054H86.6237V25.1174C86.6983 24.8934 86.8343 24.7121 87.0317 24.5734C87.2343 24.4348 87.4503 24.3654 87.6797 24.3654C87.8183 24.3654 87.933 24.3761 88.0237 24.3974V25.3014C87.8957 25.2534 87.749 25.2294 87.5837 25.2294C87.317 25.2294 87.0903 25.3388 86.9037 25.5574C86.717 25.7708 86.6237 26.0694 86.6237 26.4534V28.4054H85.7437Z" fill="#202020" fill-opacity="0.56"/>
<path d="M90.2899 28.4854C89.7459 28.4854 89.2872 28.2828 88.9139 27.8774C88.5459 27.4721 88.3619 26.9814 88.3619 26.4054C88.3619 25.8294 88.5459 25.3388 88.9139 24.9334C89.2872 24.5281 89.7459 24.3254 90.2899 24.3254C90.5619 24.3254 90.8126 24.3868 91.0419 24.5094C91.2712 24.6268 91.4472 24.7708 91.5699 24.9414V24.4054H92.4499V28.4054H91.5699V27.8694C91.4472 28.0401 91.2712 28.1868 91.0419 28.3094C90.8126 28.4268 90.5619 28.4854 90.2899 28.4854ZM89.5939 27.3174C89.8179 27.5628 90.1032 27.6854 90.4499 27.6854C90.7966 27.6854 91.0819 27.5628 91.3059 27.3174C91.5299 27.0721 91.6419 26.7681 91.6419 26.4054C91.6419 26.0428 91.5299 25.7388 91.3059 25.4934C91.0819 25.2481 90.7966 25.1254 90.4499 25.1254C90.1032 25.1254 89.8179 25.2481 89.5939 25.4934C89.3699 25.7388 89.2579 26.0428 89.2579 26.4054C89.2579 26.7681 89.3699 27.0721 89.5939 27.3174Z" fill="#202020" fill-opacity="0.56"/>
<path d="M93.6421 28.4054V24.4054H94.5221V25.1174C94.5968 24.8934 94.7328 24.7121 94.9301 24.5734C95.1328 24.4348 95.3488 24.3654 95.5781 24.3654C95.7168 24.3654 95.8314 24.3761 95.9221 24.3974V25.3014C95.7941 25.2534 95.6474 25.2294 95.4821 25.2294C95.2154 25.2294 94.9888 25.3388 94.8021 25.5574C94.6154 25.7708 94.5221 26.0694 94.5221 26.4534V28.4054H93.6421Z" fill="#202020" fill-opacity="0.56"/>
<path d="M97.1212 23.5334C96.9612 23.5334 96.8225 23.4774 96.7052 23.3654C96.5878 23.2481 96.5292 23.1068 96.5292 22.9414C96.5292 22.7814 96.5878 22.6454 96.7052 22.5334C96.8225 22.4161 96.9612 22.3574 97.1212 22.3574C97.2865 22.3574 97.4252 22.4161 97.5372 22.5334C97.6492 22.6454 97.7052 22.7814 97.7052 22.9414C97.7052 23.1068 97.6492 23.2481 97.5372 23.3654C97.4252 23.4774 97.2865 23.5334 97.1212 23.5334ZM96.6812 28.4054V24.4054H97.5612V28.4054H96.6812Z" fill="#202020" fill-opacity="0.56"/>
<path d="M103.84 28.4054V26.1574C103.84 25.8321 103.778 25.5788 103.656 25.3974C103.538 25.2161 103.362 25.1254 103.128 25.1254C102.845 25.1254 102.618 25.2348 102.448 25.4534C102.277 25.6721 102.186 25.9788 102.176 26.3734V28.4054H101.296V26.1574C101.296 25.8321 101.234 25.5788 101.112 25.3974C100.994 25.2161 100.818 25.1254 100.584 25.1254C100.29 25.1254 100.056 25.2401 99.8797 25.4694C99.709 25.6988 99.6237 26.0214 99.6237 26.4374V28.4054H98.7437V24.4054H99.6237V24.9494C99.869 24.5334 100.248 24.3254 100.76 24.3254C101.362 24.3254 101.776 24.5894 102 25.1174C102.112 24.8668 102.282 24.6721 102.512 24.5334C102.746 24.3948 103.002 24.3254 103.28 24.3254C103.728 24.3254 104.08 24.4774 104.336 24.7814C104.592 25.0854 104.72 25.4961 104.72 26.0134V28.4054H103.84Z" fill="#202020" fill-opacity="0.56"/>
<path d="M109.141 27.8854C108.741 28.2854 108.245 28.4854 107.653 28.4854C107.061 28.4854 106.563 28.2854 106.157 27.8854C105.757 27.4801 105.557 26.9868 105.557 26.4054C105.557 25.8241 105.757 25.3334 106.157 24.9334C106.563 24.5281 107.061 24.3254 107.653 24.3254C108.245 24.3254 108.741 24.5281 109.141 24.9334C109.547 25.3334 109.749 25.8241 109.749 26.4054C109.749 26.9868 109.547 27.4801 109.141 27.8854ZM107.653 27.6694C108 27.6694 108.285 27.5494 108.509 27.3094C108.739 27.0641 108.853 26.7628 108.853 26.4054C108.853 26.0481 108.739 25.7494 108.509 25.5094C108.285 25.2641 108 25.1414 107.653 25.1414C107.301 25.1414 107.011 25.2641 106.781 25.5094C106.557 25.7494 106.445 26.0481 106.445 26.4054C106.445 26.7628 106.557 27.0641 106.781 27.3094C107.011 27.5494 107.301 27.6694 107.653 27.6694Z" fill="#202020" fill-opacity="0.56"/>
</svg>
