<svg viewBox="0 0 32 32" fill="none" xmlns="http://www.w3.org/2000/svg">
<path fill-rule="evenodd" clip-rule="evenodd" d="M2.30859 14.7958C2.30857 21.9627 7.36723 28.1331 14.3949 29.5387C15.459 29.7515 16.5547 29.7515 17.6188 29.5385H17.6192C24.6467 28.1329 29.705 21.9625 29.7052 14.7957V9.9119C29.7052 5.70894 26.2979 2.30176 22.095 2.30176H9.91874C5.71578 2.30176 2.30859 5.70894 2.30859 9.9119V14.7958ZM16.0022 9.06153L16.0054 9.06152C18.9969 9.06152 21.4218 11.4866 21.4218 14.478V19.0441C21.4218 19.5137 21.0411 19.8944 20.5715 19.8944C20.1018 19.8944 19.7211 19.5137 19.7211 19.0441V14.478C19.7211 12.4263 18.0584 10.7631 16.007 10.7622C15.3286 10.7651 14.6641 10.9557 14.0873 11.313C13.688 11.5602 13.1639 11.4371 12.9166 11.0378C12.6693 10.6385 12.7925 10.1144 13.1918 9.86712C14.0362 9.34412 15.009 9.06527 16.0022 9.06153ZM16.857 14.3513C16.857 13.8817 16.4762 13.501 16.0066 13.501C15.537 13.501 15.1562 13.8817 15.1562 14.3513V19.0443C15.1562 19.5139 15.537 19.8946 16.0066 19.8946C16.4762 19.8946 16.857 19.5139 16.857 19.0443V14.3513ZM12.2906 14.4773C12.2906 14.0077 11.9098 13.627 11.4402 13.627C10.9706 13.627 10.5898 14.0077 10.5898 14.4773V19.0434C10.5898 19.513 10.9706 19.8937 11.4402 19.8937C11.9098 19.8937 12.2906 19.513 12.2906 19.0434V14.4773Z" fill="currentColor"/>
</svg>
