<svg width="33" height="32" viewBox="0 0 33 32" fill="none" xmlns="http://www.w3.org/2000/svg">
<g clip-path="url(#clip0_2164_5681)">
<path d="M16.4932 -0.00195312C8.15052 -0.00195312 1.36328 6.78528 1.36328 15.1279V16.5692C1.36328 17.3064 1.96299 17.9061 2.7002 17.9061C2.7512 17.9061 2.80144 17.9016 2.85135 17.896L15.776 31.6872C15.9619 31.8854 16.2215 31.998 16.4932 31.998C16.7649 31.998 17.0245 31.8856 17.2104 31.6872L30.1399 17.8907C30.203 17.9002 30.267 17.9061 30.3321 17.9061C31.044 17.9061 31.623 17.3269 31.623 16.6152V15.1279C31.623 6.78528 24.8358 -0.00195312 16.4932 -0.00195312ZM11.0329 17.7499L14.1403 27.067L4.31758 16.5857C5.00771 15.8014 6.00879 15.3357 7.07528 15.3357C8.32701 15.3357 9.48088 15.9648 10.162 17.0187C10.3759 17.3498 10.6806 17.6006 11.0329 17.7499ZM13.0173 17.4863C13.1814 17.3564 13.3258 17.1997 13.4428 17.0185C14.1239 15.9647 15.2777 15.3355 16.5295 15.3355C17.7811 15.3355 18.935 15.9647 19.616 17.0184C19.7339 17.2008 19.8795 17.3585 20.045 17.4889L16.5011 27.9325L13.0173 17.4863ZM22.0336 17.7468C22.3828 17.597 22.6847 17.3475 22.8971 17.0186C23.5782 15.9648 24.732 15.3356 25.9838 15.3356C27.0335 15.3356 28.0173 15.7859 28.7055 16.5464L18.8849 27.0254L22.0336 17.7468ZM16.4932 1.96394C23.6176 1.96394 29.4383 7.65246 29.6511 14.7262C28.6449 13.8648 27.3502 13.3698 25.9838 13.3698C24.0684 13.3698 22.3029 14.3284 21.2567 15.9353C20.2105 14.3285 18.4449 13.3698 16.5296 13.3698C14.6141 13.3698 12.8486 14.3284 11.8024 15.9353C10.7563 14.3285 8.99061 13.3698 7.07528 13.3698C5.67666 13.3698 4.35045 13.8902 3.33343 14.7919C3.51255 7.68806 9.34709 1.96394 16.4932 1.96394Z" fill="#202020"/>
</g>
<defs>
<clipPath id="clip0_2164_5681">
<rect width="32" height="32" fill="white" transform="translate(0.5)"/>
</clipPath>
</defs>
</svg>
