<svg width="32" height="32" viewBox="0 0 32 32" fill="none" xmlns="http://www.w3.org/2000/svg">
<path d="M24.999 14C24.999 14.2652 24.8937 14.5196 24.7061 14.7071C24.5186 14.8946 24.2642 15 23.999 15H18.999C18.7338 15 18.4795 14.8946 18.2919 14.7071C18.1044 14.5196 17.999 14.2652 17.999 14C17.999 13.7348 18.1044 13.4804 18.2919 13.2929C18.4795 13.1054 18.7338 13 18.999 13H23.999C24.2642 13 24.5186 13.1054 24.7061 13.2929C24.8937 13.4804 24.999 13.7348 24.999 14ZM23.999 17H18.999C18.7338 17 18.4795 17.1054 18.2919 17.2929C18.1044 17.4804 17.999 17.7348 17.999 18C17.999 18.2652 18.1044 18.5196 18.2919 18.7071C18.4795 18.8946 18.7338 19 18.999 19H23.999C24.2642 19 24.5186 18.8946 24.7061 18.7071C24.8937 18.5196 24.999 18.2652 24.999 18C24.999 17.7348 24.8937 17.4804 24.7061 17.2929C24.5186 17.1054 24.2642 17 23.999 17ZM28.999 7V25C28.999 25.5304 28.7883 26.0391 28.4132 26.4142C28.0382 26.7893 27.5295 27 26.999 27H4.99902C4.46859 27 3.95988 26.7893 3.58481 26.4142C3.20974 26.0391 2.99902 25.5304 2.99902 25V7C2.99902 6.46957 3.20974 5.96086 3.58481 5.58579C3.95988 5.21071 4.46859 5 4.99902 5H26.999C27.5295 5 28.0382 5.21071 28.4132 5.58579C28.7883 5.96086 28.999 6.46957 28.999 7ZM26.999 25V7H4.99902V25H26.999ZM16.9665 20.75C17.0328 21.0069 16.9944 21.2797 16.8596 21.5082C16.7248 21.7368 16.5047 21.9024 16.2478 21.9688C15.9908 22.0351 15.7181 21.9966 15.4895 21.8618C15.261 21.727 15.0953 21.5069 15.029 21.25C14.7003 19.9675 13.3965 19 11.9978 19C10.599 19 9.29652 19.9675 8.96652 21.25C8.90022 21.5069 8.73457 21.727 8.50601 21.8618C8.27745 21.9966 8.0047 22.0351 7.74777 21.9688C7.49085 21.9024 7.27078 21.7368 7.13599 21.5082C7.0012 21.2797 6.96272 21.0069 7.02902 20.75C7.35352 19.5422 8.12059 18.5007 9.17777 17.8325C8.61598 17.274 8.23266 16.5614 8.07638 15.7848C7.92011 15.0082 7.99793 14.2027 8.29998 13.4704C8.60203 12.7381 9.11471 12.112 9.77302 11.6714C10.4313 11.2309 11.2056 10.9957 11.9978 10.9957C12.7899 10.9957 13.5642 11.2309 14.2225 11.6714C14.8808 12.112 15.3935 12.7381 15.6956 13.4704C15.9976 14.2027 16.0754 15.0082 15.9192 15.7848C15.7629 16.5614 15.3796 17.274 14.8178 17.8325C15.8761 18.4997 16.6439 19.5416 16.9678 20.75H16.9665ZM11.999 17C12.3946 17 12.7813 16.8827 13.1102 16.6629C13.4391 16.4432 13.6954 16.1308 13.8468 15.7654C13.9982 15.3999 14.0378 14.9978 13.9606 14.6098C13.8834 14.2219 13.6929 13.8655 13.4132 13.5858C13.1335 13.3061 12.7772 13.1156 12.3892 13.0384C12.0012 12.9613 11.5991 13.0009 11.2337 13.1522C10.8682 13.3036 10.5558 13.56 10.3361 13.8889C10.1163 14.2178 9.99902 14.6044 9.99902 15C9.99902 15.5304 10.2097 16.0391 10.5848 16.4142C10.9599 16.7893 11.4686 17 11.999 17Z" fill="black"/>
</svg>
