<svg width="32" height="32" viewBox="0 0 32 32" fill="none" xmlns="http://www.w3.org/2000/svg">
<path d="M16.5 2.99902C13.1859 3.00266 10.0086 4.32079 7.66518 6.66421C5.32177 9.00762 4.00364 12.1849 4 15.499V25.999C4 26.5295 4.21071 27.0382 4.58579 27.4132C4.96086 27.7883 5.46957 27.999 6 27.999H16.5C19.8152 27.999 22.9946 26.6821 25.3388 24.3379C27.683 21.9937 29 18.8142 29 15.499C29 12.1838 27.683 9.00439 25.3388 6.66019C22.9946 4.31598 19.8152 2.99902 16.5 2.99902ZM16.5 25.999H6V15.499C6 13.4223 6.61581 11.3923 7.76957 9.66554C8.92332 7.93882 10.5632 6.59301 12.4818 5.79829C14.4004 5.00357 16.5116 4.79563 18.5484 5.20078C20.5852 5.60592 22.4562 6.60595 23.9246 8.0744C25.3931 9.54285 26.3931 11.4138 26.7982 13.4506C27.2034 15.4874 26.9955 17.5986 26.2007 19.5172C25.406 21.4358 24.0602 23.0757 22.3335 24.2295C20.6068 25.3832 18.5767 25.999 16.5 25.999ZM18 15.999C18 16.2957 17.912 16.5857 17.7472 16.8324C17.5824 17.0791 17.3481 17.2713 17.074 17.3848C16.7999 17.4984 16.4983 17.5281 16.2074 17.4702C15.9164 17.4123 15.6491 17.2695 15.4393 17.0597C15.2296 16.8499 15.0867 16.5826 15.0288 16.2917C14.9709 16.0007 15.0006 15.6991 15.1142 15.425C15.2277 15.1509 15.42 14.9166 15.6666 14.7518C15.9133 14.587 16.2033 14.499 16.5 14.499C16.8978 14.499 17.2794 14.6571 17.5607 14.9384C17.842 15.2197 18 15.6012 18 15.999ZM12.5 15.999C12.5 16.2957 12.412 16.5857 12.2472 16.8324C12.0824 17.0791 11.8481 17.2713 11.574 17.3848C11.2999 17.4984 10.9983 17.5281 10.7074 17.4702C10.4164 17.4123 10.1491 17.2695 9.93934 17.0597C9.72956 16.8499 9.5867 16.5826 9.52882 16.2917C9.47094 16.0007 9.50065 15.6991 9.61418 15.425C9.72771 15.1509 9.91997 14.9166 10.1666 14.7518C10.4133 14.587 10.7033 14.499 11 14.499C11.3978 14.499 11.7794 14.6571 12.0607 14.9384C12.342 15.2197 12.5 15.6012 12.5 15.999ZM23.5 15.999C23.5 16.2957 23.412 16.5857 23.2472 16.8324C23.0824 17.0791 22.8481 17.2713 22.574 17.3848C22.2999 17.4984 21.9983 17.5281 21.7074 17.4702C21.4164 17.4123 21.1491 17.2695 20.9393 17.0597C20.7296 16.8499 20.5867 16.5826 20.5288 16.2917C20.4709 16.0007 20.5007 15.6991 20.6142 15.425C20.7277 15.1509 20.92 14.9166 21.1666 14.7518C21.4133 14.587 21.7033 14.499 22 14.499C22.3978 14.499 22.7794 14.6571 23.0607 14.9384C23.342 15.2197 23.5 15.6012 23.5 15.999Z" fill="black"/>
</svg>
