<svg width="33" height="32" viewBox="0 0 33 32" fill="none" xmlns="http://www.w3.org/2000/svg">
<path d="M30.3986 12.1564C30.2735 11.772 30.0376 11.4333 29.7204 11.1828C29.4032 10.9323 29.0189 10.7813 28.6161 10.7488L21.2411 10.1538L18.3936 3.2676C18.2396 2.89237 17.9775 2.57141 17.6406 2.34552C17.3037 2.11963 16.9073 1.99902 16.5017 1.99902C16.0961 1.99902 15.6996 2.11963 15.3628 2.34552C15.0259 2.57141 14.7638 2.89237 14.6098 3.2676L11.7648 10.1526L4.38606 10.7488C3.98253 10.783 3.59805 10.9354 3.28078 11.1871C2.96351 11.4388 2.72757 11.7785 2.60251 12.1637C2.47746 12.5488 2.46885 12.9624 2.57777 13.3524C2.68669 13.7425 2.90829 14.0917 3.21481 14.3563L8.83981 19.2101L7.12606 26.4676C7.03022 26.8619 7.05368 27.2758 7.19348 27.6567C7.33328 28.0376 7.58311 28.3684 7.91126 28.6071C8.23941 28.8457 8.63107 28.9815 9.03653 28.9972C9.44199 29.0129 9.84297 28.9077 10.1886 28.6951L16.5011 24.8101L22.8173 28.6951C23.163 28.9052 23.5632 29.0083 23.9674 28.9915C24.3716 28.9746 24.7618 28.8386 25.0888 28.6004C25.4158 28.3623 25.6651 28.0327 25.8052 27.6531C25.9453 27.2736 25.9699 26.8611 25.8761 26.4676L24.1561 19.2088L29.7811 14.3551C30.0901 14.0909 30.3137 13.7409 30.4236 13.3495C30.5335 12.9581 30.5248 12.5428 30.3986 12.1564ZM28.4811 12.8401L22.3936 18.0901C22.2547 18.2098 22.1515 18.3653 22.095 18.5396C22.0386 18.714 22.0312 18.9005 22.0736 19.0788L23.9336 26.9289C23.9384 26.9397 23.9389 26.9519 23.9349 26.9631C23.9309 26.9743 23.9229 26.9835 23.9123 26.9888C23.8898 27.0063 23.8836 27.0026 23.8648 26.9888L17.0248 22.7826C16.8673 22.6857 16.686 22.6345 16.5011 22.6345C16.3161 22.6345 16.1348 22.6857 15.9773 22.7826L9.13731 26.9914C9.11856 27.0026 9.11356 27.0063 9.08981 26.9914C9.07926 26.986 9.07118 26.9768 9.06722 26.9656C9.06327 26.9544 9.06375 26.9422 9.06856 26.9314L10.9286 19.0814C10.971 18.903 10.9635 18.7165 10.9071 18.5421C10.8507 18.3678 10.7474 18.2123 10.6086 18.0926L4.52106 12.8426C4.50606 12.8301 4.49231 12.8188 4.50481 12.7801C4.51731 12.7414 4.52731 12.7463 4.54606 12.7438L12.5361 12.0989C12.7193 12.0831 12.8947 12.0172 13.0429 11.9082C13.1911 11.7993 13.3064 11.6516 13.3761 11.4813L16.4536 4.0301C16.4636 4.00885 16.4673 3.99885 16.4973 3.99885C16.5273 3.99885 16.5311 4.00885 16.5411 4.0301L19.6261 11.4813C19.6964 11.6516 19.8124 11.7992 19.9613 11.9077C20.1102 12.0162 20.2862 12.0815 20.4698 12.0963L28.4598 12.7414C28.4786 12.7414 28.4898 12.7414 28.5011 12.7776C28.5123 12.8139 28.5011 12.8276 28.4811 12.8401Z" fill="white"/>
</svg>
