<svg width="72" height="60" viewBox="0 0 72 60" fill="none" xmlns="http://www.w3.org/2000/svg">
<path d="M65.883 21.8057L63.8012 17.1347L62.6386 17.6537C56.1489 12.4206 43.1401 12.3941 30.3585 18.2522C17.9154 23.955 9.45728 33.507 8.63523 41.7566L7.18164 42.4054C7.18164 42.4054 8.79584 45.8903 9.24746 46.9726C9.28444 47.0734 9.3219 47.174 9.36203 47.2739C9.36249 47.2764 9.3633 47.2793 9.36353 47.281L9.36481 47.2805C9.41331 47.4008 9.46264 47.5209 9.51567 47.6397C13.57 56.7362 29.4749 58.3272 45.0403 51.1933C60.6057 44.0595 69.9373 30.9021 65.883 21.8057Z" fill="#0C0C0C"/>
<path d="M54.9287 38.6209L56.9987 43.5704C62.4596 38.8164 65.9608 33.3464 66.6885 28.3075C65.7276 26.2075 64.5713 23.5762 64.5713 23.5762L54.9287 38.6209Z" fill="#2E2E2E"/>
<path d="M7.81317 42.8125L7.4502 42.9868C7.92879 44.0252 8.91109 46.1663 9.24757 46.9729C9.28455 47.0737 9.32201 47.1743 9.36214 47.2742C9.3626 47.2767 9.36341 47.2796 9.36364 47.2813L9.36492 47.2807C9.41342 47.4011 9.46275 47.5211 9.51578 47.64C10.0316 48.7973 10.7402 49.8326 11.6147 50.7445L7.81317 42.8125Z" fill="#202020"/>
<path d="M11.6002 40.9941L10.6914 41.4305L16.746 54.0637C17.181 54.2354 17.6295 54.3932 18.091 54.5375L11.6002 40.9941Z" fill="#202020"/>
<path d="M15.3864 39.1758L14.4775 39.6122L22.0415 55.3944C22.4296 55.4461 22.8235 55.4902 23.2228 55.5266L15.3864 39.1758Z" fill="#202020"/>
<path d="M19.1735 37.3574L18.2646 37.7938L26.8211 55.6471C27.1845 55.6395 27.5508 55.6264 27.9201 55.6075L19.1735 37.3574Z" fill="#202020"/>
<path d="M22.9596 35.5391L22.0508 35.9754L31.3055 55.2854C31.6511 55.2377 31.9987 55.1848 32.3479 55.1279L22.9596 35.5391Z" fill="#202020"/>
<path d="M26.7467 33.7207L25.8379 34.1571L35.5778 54.4795C35.9094 54.4004 36.2422 54.3162 36.5757 54.229L26.7467 33.7207Z" fill="#202020"/>
<path d="M30.5338 31.9023L29.625 32.3387L39.6753 53.309C39.9952 53.2028 40.3152 53.094 40.6359 52.9805L30.5338 31.9023Z" fill="#202020"/>
<path d="M34.32 30.084L33.4111 30.5204L43.6193 51.8198C43.9275 51.689 44.2357 51.5539 44.5439 51.4164L34.32 30.084Z" fill="#202020"/>
<path d="M38.1071 28.2656L37.1982 28.702L47.42 50.03C47.7197 49.8744 48.0168 49.7166 48.311 49.5565L38.1071 28.2656Z" fill="#202020"/>
<path d="M41.8951 26.4512L40.9863 26.8875L51.0769 47.9417C51.3652 47.761 51.6505 47.5785 51.9323 47.394L41.8951 26.4512Z" fill="#202020"/>
<path d="M45.6822 24.6328L44.7734 25.0692L54.5799 45.5305C54.8555 45.3223 55.1284 45.1127 55.3961 44.9009L45.6822 24.6328Z" fill="#202020"/>
<path d="M49.4684 22.8145L48.5596 23.2508L57.9074 42.7552C58.1686 42.5141 58.4254 42.2716 58.6767 42.0274L49.4684 22.8145Z" fill="#202020"/>
<path d="M53.2555 20.9961L52.3467 21.4325L61.0217 39.5331C61.2644 39.2493 61.5012 38.9645 61.7301 38.6785L53.2555 20.9961Z" fill="#202020"/>
<path d="M57.0426 19.1777L56.1338 19.6141L63.8398 35.693C64.0553 35.3424 64.2595 34.9912 64.453 34.6399L57.0426 19.1777Z" fill="#202020"/>
<path d="M59.9199 17.7959L66.1301 30.7532C66.287 30.2466 66.4186 29.7423 66.5235 29.2415L60.8288 17.3594L59.9199 17.7959Z" fill="#202020"/>
<path d="M43.1074 46.1892C58.6361 38.9754 67.8684 25.903 63.7284 16.9912C59.5884 8.07936 43.6439 6.70287 28.1152 13.9167C12.5865 21.1305 3.35416 34.203 7.49414 43.1148C11.6341 52.0266 27.5787 53.4031 43.1074 46.1892Z" fill="#202020"/>
<path d="M41.124 43.9604C54.0475 37.9568 61.7309 27.0775 58.2855 19.6608C54.8401 12.2442 41.5705 11.0986 28.6471 17.1022C15.7236 23.1058 8.04013 33.9851 11.4855 41.4017C14.931 48.8184 28.2006 49.9639 41.124 43.9604Z" fill="#3F3F3F"/>
<path d="M41.8652 43.4721C54.7886 37.4685 62.4721 26.5892 59.0267 19.1726C55.5813 11.7559 42.3117 10.6103 29.3882 16.6139C16.4648 22.6175 8.78135 33.4968 12.2268 40.9135C15.6722 48.3301 28.9417 49.4757 41.8652 43.4721Z" fill="#0C0C0C"/>
<path d="M41.2288 43.8389C54.0791 37.8693 61.7191 27.0515 58.2931 19.6767C54.8672 12.3019 41.6726 11.1628 28.8223 17.1324C15.972 23.1021 8.33197 33.9199 11.7579 41.2946C15.1839 48.6694 28.3784 49.8086 41.2288 43.8389Z" fill="#2E2E2E"/>
<path d="M41.1052 43.571C53.9552 37.6015 61.6424 26.8864 58.2752 19.638C54.908 12.3896 41.7614 11.3528 28.9114 17.3222C16.0615 23.2917 8.37422 34.0068 11.7414 41.2552C15.1087 48.5036 28.2553 49.5404 41.1052 43.571Z" fill="#2E2E2E"/>
<path fill-rule="evenodd" clip-rule="evenodd" d="M22.4428 28.7844L29.0143 24.9907C30.4082 24.1859 31.7473 23.7901 33.0312 23.8032C34.3151 23.8163 35.6227 24.2072 36.954 24.9757L39.6552 26.5351L37.8629 27.5698L35.7165 26.3307C34.8659 25.8396 34.0363 25.6212 33.2274 25.6754C32.4186 25.7296 31.5296 26.0364 30.5605 26.5959L24.6062 30.0333L22.4428 28.7844ZM30.4063 33.3817C28.7792 32.4423 29.0607 31.3404 31.2513 30.0758C32.2735 29.4856 33.2801 29.1393 34.271 29.037C35.2619 28.9346 36.1642 29.1183 36.9777 29.588L41.4153 32.1498L42.0924 31.7588C43.1014 31.1764 43.1497 30.6219 42.2375 30.0953L39.3783 28.4446L41.1706 27.41L44.8064 29.5089C45.7063 30.0284 46.1049 30.5882 46.0024 31.1881C45.9 31.7881 45.3842 32.3563 44.4549 32.8928L38.7995 36.1577C37.6046 36.8475 36.4525 36.8721 35.3431 36.2317L30.4063 33.3817ZM33.0304 32.8273L36.0813 34.5886C36.4511 34.802 36.8352 34.7938 37.2335 34.5639L39.6232 33.1843L36.0175 31.1028C35.3272 30.7043 34.4842 30.7925 33.4885 31.3673C32.4928 31.9421 32.3401 32.4288 33.0304 32.8273Z" fill="#CDFD4A"/>
<path d="M13.8231 40.0344L13.8211 40.0289C13.6698 39.6149 13.5443 39.191 13.4479 38.7692L14.1752 38.4915C14.2689 38.901 14.3907 39.3126 14.5374 39.715L14.5389 39.7181L14.5387 39.7182C14.5388 39.7187 14.5389 39.7191 14.5392 39.7194L14.4873 39.7417L13.8276 40.0441L13.8231 40.0344ZM14.4653 41.1996L15.1555 40.8352C15.3924 41.1904 15.6642 41.5323 15.9631 41.8513L15.3008 42.2509C14.9917 41.9208 14.7105 41.5671 14.4653 41.1996ZM13.2349 37.4385C13.1924 36.9809 13.181 36.513 13.2008 36.0476L13.9351 35.8475C13.9159 36.2989 13.9269 36.7529 13.9681 37.1972L13.2349 37.4385ZM16.3284 43.1866L16.956 42.7554C17.3155 43.0362 17.7087 43.2998 18.1248 43.5389L17.5379 43.9974C17.1074 43.7499 16.7005 43.4771 16.3284 43.1866ZM13.3601 34.6028C13.4472 34.1108 13.5697 33.6096 13.7242 33.1134L14.4411 33.0089C14.2918 33.4886 14.1734 33.9729 14.0892 34.4484L13.3601 34.6028ZM18.9174 44.6752L19.4578 44.194C19.9262 44.3894 20.4256 44.5647 20.942 44.715L20.4528 45.2141C19.9186 45.0588 19.402 44.8774 18.9174 44.6752ZM14.3003 31.5921C14.5278 31.0817 14.7932 30.5644 15.0893 30.0545L15.7577 30.0583C15.4723 30.5498 15.2163 31.0486 14.9969 31.5408L14.3003 31.5921ZM22.129 45.6096L22.5624 45.0973C23.1212 45.2008 23.7068 45.2816 24.3029 45.3375L23.9293 45.8581C23.3129 45.8003 22.7072 45.7167 22.129 45.6096ZM16.0861 28.5178C16.4499 28.0105 16.8518 27.4995 17.2801 26.9992L17.8697 27.113C17.4566 27.5954 17.0693 28.088 16.7186 28.5771L16.0861 28.5178ZM25.8366 45.9578L26.1468 45.4338C26.7745 45.4417 27.4237 45.4254 28.0765 45.385L27.8329 45.9072C27.1575 45.949 26.4859 45.9661 25.8366 45.9578ZM18.6556 25.5159C19.1384 25.0331 19.6559 24.5512 20.1939 24.0834L20.6817 24.2993C20.1622 24.7509 19.6625 25.2162 19.1966 25.6821L18.6556 25.5159ZM29.8993 45.7066L30.0738 45.1911C30.7463 45.1026 31.4346 44.989 32.1197 44.8533L32.0162 45.3571C31.3073 45.4975 30.5951 45.615 29.8993 45.7066ZM21.8752 22.7149C22.4526 22.2744 23.0596 21.8393 23.6794 21.422L24.0513 21.7263C23.4518 22.1302 22.8647 22.5508 22.3064 22.977L21.8752 22.7149ZM34.1628 44.8614L34.194 44.3743C34.8851 44.1924 35.5861 43.9854 36.2771 43.7588L36.3185 44.2245C35.6033 44.4589 34.878 44.6731 34.1628 44.8614ZM25.5867 20.2143C26.2335 19.8293 26.9036 19.4547 27.5785 19.1006L27.8266 19.4789C27.1729 19.8218 26.5237 20.1847 25.8974 20.5574L25.5867 20.2143ZM38.4618 43.453L38.3488 43.0132C39.0304 42.7457 39.717 42.4538 40.3895 42.1455L40.4397 42.1224L40.6246 42.5317L40.5733 42.5553C39.877 42.8745 39.167 43.1763 38.4618 43.453ZM29.8204 18.4991L29.6376 18.0889L29.6629 18.0773C30.3483 17.7631 31.0486 17.464 31.7452 17.1876L31.8629 17.6256C31.1881 17.8934 30.5097 18.1832 29.8467 18.487L29.8204 18.4991ZM42.4291 41.1396C43.0801 40.795 43.7256 40.4294 44.3479 40.053L44.6668 40.3912C44.023 40.7807 43.3551 41.1589 42.6816 41.5155L42.4291 41.1396ZM33.9353 16.867L33.8851 16.4043C34.6013 16.164 35.326 15.9429 36.0392 15.7474L36.0205 16.2313C35.3302 16.4204 34.6287 16.6343 33.9353 16.867ZM46.1773 38.8719C46.7677 38.4654 47.3471 38.0399 47.8995 37.6074L48.3422 37.8604C47.7706 38.308 47.1709 38.7483 46.5599 39.1689L46.1773 38.8719ZM38.0993 15.726L38.1885 15.2251C38.9027 15.0743 39.6174 14.9468 40.3128 14.8461L40.1521 15.3597C39.4802 15.4571 38.7896 15.5803 38.0993 15.726ZM49.498 36.272C50.0062 35.8185 50.4973 35.3498 50.9577 34.8788L51.5064 35.0372C51.0301 35.5244 50.5221 36.0094 49.9963 36.4786L49.498 36.272ZM42.158 15.1395L42.3905 14.618C43.0726 14.5679 43.7484 14.544 44.399 14.5471L44.0954 15.0711C43.468 15.0682 42.8161 15.0912 42.158 15.1395ZM52.2648 33.4415C52.6723 32.9582 53.0568 32.4645 53.4077 31.9738L54.0407 32.0322C53.6777 32.5397 53.2801 33.0504 52.8586 33.5502L52.2648 33.4415ZM45.9419 15.1585L46.3142 14.6378C46.9321 14.6947 47.5376 14.7798 48.1136 14.8904L47.6763 15.402C47.121 15.2953 46.5375 15.2134 45.9419 15.1585ZM54.3753 30.49C54.6666 29.996 54.9301 29.496 55.1584 29.0042L55.8517 28.9603C55.6155 29.4693 55.343 29.9864 55.0416 30.4974L54.3753 30.49ZM49.2797 15.7987L49.7766 15.3019C50.3013 15.4633 50.8095 15.6526 51.2872 15.8649L50.7375 16.3421C50.2765 16.1373 49.786 15.9545 49.2797 15.7987ZM55.7487 27.5306C55.912 27.0447 56.0435 26.5578 56.1397 26.0836L56.8671 25.9386C56.7676 26.4293 56.6314 26.933 56.4624 27.4358L55.7487 27.5306ZM52.0398 17.0221L52.6347 16.5685C53.0498 16.8213 53.4464 17.1008 53.8137 17.3991L53.1813 17.8264C52.8256 17.5373 52.4415 17.2667 52.0398 17.0221ZM56.3269 24.6776C56.355 24.2191 56.3487 23.7645 56.3084 23.326L57.0416 23.0849C57.0834 23.5386 57.0898 24.0092 57.0608 24.4836L56.3269 24.6776ZM54.1625 18.7407L54.825 18.3414C55.1289 18.6665 55.4142 19.0161 55.6731 19.3805L54.9873 19.7512C54.7354 19.3966 54.4578 19.0567 54.1625 18.7407ZM56.0849 22.0417C55.9798 21.6382 55.841 21.2416 55.6723 20.8627L55.6628 20.845L56.366 20.5021L56.3818 20.5325C56.5571 20.9256 56.7012 21.3373 56.8104 21.756L56.0849 22.0417Z" fill="#202020"/>
<g opacity="0.24">
<path d="M64.5711 23.576L23.804 16.1602C19.5748 18.61 15.9578 21.4932 13.1416 24.5467L60.1588 33.0996C62.5659 29.9373 64.1018 26.672 64.5711 23.576Z" fill="#CDFD4A"/>
<path d="M58.6657 34.9203L11.5826 26.3555C10.5516 27.6404 9.66344 28.9456 8.93164 30.2525L54.9288 38.6198C56.3034 37.4245 57.5533 36.1853 58.6657 34.9203Z" fill="#CDFD4A"/>
</g>
<path d="M48.6216 7.57388C47.8058 6.36535 46.9247 3.82337 46.7483 2.7793C46.7483 2.7793 45.682 6.35814 44.77 7.57388C43.7088 8.98874 40.0537 9.61795 40.0537 9.61795C40.0537 9.61795 43.7088 10.2009 44.77 11.5119C45.682 12.6384 46.8137 15.6748 46.8137 15.6748C46.9902 14.7074 47.8057 12.6317 48.6215 11.5119C49.5766 10.2009 52.8662 9.61795 52.8662 9.61795C52.8662 9.61795 49.5766 8.98874 48.6216 7.57388Z" fill="#CDFD4A"/>
</svg>
