<svg width="81" height="83" viewBox="0 0 81 83" fill="none" xmlns="http://www.w3.org/2000/svg">
<path d="M41.2214 42.6648L57.4951 14.2916L62.3301 22.6661L46.0564 51.0392L41.2214 42.6648Z" fill="#202020"/>
<path d="M8.2175 42.6648L24.4912 14.2916L57.4949 14.2918L41.2212 42.6649L8.2175 42.6648Z" fill="#6A6A6A"/>
<path d="M36.8974 14.2916L20.6237 42.6648L30.6477 42.6648L46.9214 14.2917L36.8974 14.2916Z" fill="#E0FF8B"/>
<path d="M18.9058 24.029L51.856 24.1224L46.8606 32.832L13.9266 32.7107L18.9058 24.029Z" fill="#CDFD4A"/>
<path d="M41.2205 42.6642L46.0555 51.0387L13.0518 51.0385L8.2168 42.6641L41.2205 42.6642Z" fill="#424242"/>
<path d="M56.1677 68.2675L71.6259 41.3179L62.61 25.9718L47.1527 52.921L56.1677 68.2675Z" fill="#202020"/>
<path d="M47.1481 52.9299L15.8105 52.9297L24.8206 68.2675L56.1685 68.2676C56.1685 68.2676 47.1534 52.9211 47.1481 52.9299Z" fill="#424242"/>
<path d="M46.0545 51.0358L46.56 51.9114L47.1533 52.921L62.6106 25.9718L61.5082 24.0945L46.0545 51.0358Z" fill="black"/>
<path d="M47.1524 52.9206L46.5586 51.9102C46.5586 51.9102 47.1471 52.9295 47.1524 52.9206Z" fill="#202020"/>
<path d="M46.559 51.9103L46.049 51.043L14.7012 51.043L15.8099 52.9293L47.147 52.9287L46.559 51.9103Z" fill="#202020"/>
<path d="M20.623 42.6641L35.4045 68.2664L45.4285 68.2664L30.647 42.6641L20.623 42.6641Z" fill="#CDFD4A"/>
<path d="M46.8604 32.832L61.7249 58.5781L66.7204 49.8685L51.8559 24.1224L46.8604 32.832Z" fill="#ACD53E"/>
<path d="M28.1917 32.1856C28.9519 32.2363 29.735 32.2887 30.562 32.339L35.0658 24.486C34.2434 24.4354 33.4643 24.3841 32.7077 24.3336C32.5755 24.3245 32.4396 24.3152 32.3087 24.3065C31.5979 24.2573 30.9185 24.2085 30.2685 24.1588C30.0912 24.1457 29.9179 24.1314 29.745 24.1181C29.484 24.0979 29.2269 24.0766 28.9761 24.0562C28.7857 24.0403 28.5988 24.0247 28.4155 24.0093C28.1714 23.9885 27.9341 23.9674 27.7003 23.9465C27.5287 23.9312 27.3557 23.9156 27.1899 23.9005C26.9543 23.8783 26.7281 23.8565 26.5055 23.8349C26.3572 23.8201 26.2071 23.8062 26.0638 23.792C25.8321 23.7687 25.613 23.7451 25.3947 23.7211C25.249 23.7047 25.0949 23.6898 24.955 23.6735C24.5936 23.6316 24.2437 23.5715 23.9076 23.4954C23.5374 23.4101 23.2195 23.3176 22.9191 23.2093C22.6141 23.099 22.3421 22.9778 22.0882 22.8461C22.0619 22.8324 22.0355 22.8188 22.01 22.8046C21.7567 22.6679 21.5203 22.5204 21.3103 22.3587C21.1319 22.2216 20.9717 22.0762 20.8267 21.9232C20.6783 21.7641 20.5522 21.6036 20.4427 21.4359C20.3295 21.2599 20.2375 21.0844 20.162 20.9017C20.0826 20.7062 20.0241 20.5148 19.983 20.3157C19.9535 20.1606 19.9497 20.022 19.9589 19.892C19.9703 19.7318 20.0042 19.5864 20.0743 19.4639L15.5704 27.3169C15.5003 27.4394 15.4665 27.5848 15.455 27.745C15.4439 27.8357 15.4453 27.8961 15.4504 27.959C15.4545 28.0121 15.4618 28.0667 15.4715 28.1235C15.4877 28.2076 15.4963 28.2465 15.5058 28.2849C15.5222 28.3494 15.5395 28.4133 15.5585 28.4762C15.5752 28.5312 15.5942 28.5861 15.614 28.6405C15.6268 28.6746 15.6405 28.7083 15.6547 28.7429C15.6873 28.8233 15.706 28.8657 15.7264 28.907C15.7448 28.9449 15.7637 28.9836 15.7829 29.021C15.8012 29.0566 15.8203 29.0918 15.8403 29.1264C15.8593 29.1593 15.8784 29.1922 15.8982 29.2246C15.9106 29.2441 15.9224 29.2626 15.9348 29.282C15.9768 29.3467 15.9974 29.3764 16.0175 29.4052C16.0376 29.434 16.0585 29.4623 16.0799 29.4893C16.1003 29.5167 16.1221 29.5445 16.1443 29.571C16.1657 29.5979 16.1879 29.6244 16.2114 29.6512C16.2336 29.6776 16.2567 29.7036 16.2806 29.729C16.2931 29.7426 16.3056 29.7562 16.3175 29.7689C16.3764 29.8308 16.4011 29.8557 16.4259 29.8807C16.4507 29.9056 16.4759 29.9292 16.5024 29.9531C16.5276 29.9767 16.5531 29.9989 16.5791 30.022C16.6046 30.0442 16.6302 30.0664 16.6566 30.0882C16.6816 30.1095 16.708 30.1312 16.7339 30.1521C16.7574 30.1708 16.7814 30.1904 16.8058 30.2087C16.8405 30.2348 16.8678 30.256 16.8968 30.2762C16.9254 30.2978 16.9549 30.3189 16.9853 30.3395C17.0161 30.3609 17.0465 30.3815 17.0782 30.4025C17.1174 30.4283 17.1566 30.4542 17.1975 30.4791C17.2557 30.5159 17.3157 30.5517 17.3768 30.5857C17.4181 30.6092 17.4628 30.6307 17.5059 30.6532C17.5322 30.6669 17.5577 30.681 17.5841 30.6946C17.6336 30.7204 17.6804 30.7476 17.7322 30.7731C17.8138 30.8126 17.8958 30.8507 17.9805 30.8872C18.044 30.9152 18.1087 30.9414 18.174 30.9684C18.235 30.992 18.2965 31.0166 18.3592 31.0392C18.4595 31.0749 18.5048 31.0914 18.5505 31.1066C18.6182 31.1299 18.6877 31.1521 18.7566 31.1735C18.831 31.1964 18.9076 31.2191 18.9846 31.2405C19.0685 31.2637 19.154 31.2859 19.24 31.3067C19.2804 31.3168 19.3226 31.3259 19.364 31.3356C19.4421 31.3528 19.4803 31.3631 19.5198 31.3715C19.6196 31.3924 19.7212 31.4122 19.8231 31.4308C19.93 31.4499 20.0386 31.468 20.1479 31.4834C20.2474 31.4976 20.3485 31.5108 20.4492 31.5231C20.4961 31.5284 20.543 31.5336 20.5899 31.5388C20.6846 31.5488 20.7914 31.5599 20.8888 31.5706C21.1071 31.5947 21.3263 31.6183 21.5579 31.6416C21.7004 31.6563 21.8518 31.6705 21.9996 31.6845C22.2236 31.7065 22.4484 31.7279 22.684 31.7501C22.849 31.7657 23.0206 31.7809 23.1908 31.7958C23.4282 31.817 23.6692 31.8383 23.9168 31.8593C24.0943 31.8747 24.2748 31.8893 24.4581 31.9048C24.7174 31.9259 24.9826 31.9472 25.2522 31.9682C25.3634 31.9768 25.4656 31.9859 25.5782 31.9948C25.6335 31.9987 25.6983 32.0028 25.7541 32.0075C26.409 32.0578 27.0925 32.1077 27.8092 32.157C27.9371 32.1686 28.0658 32.1775 28.1917 32.1856Z" fill="#8BAC32"/>
<path d="M30.291 33.0824L34.7949 25.2293L35.3838 24.6572L30.8794 32.5094L30.291 33.0824Z" fill="black"/>
<path d="M48.0118 23.0463C47.8791 23.1564 47.7397 23.2449 47.5768 23.3228C47.4008 23.406 47.2144 23.4732 47.0059 23.53C46.7665 23.5932 46.535 23.6403 46.2816 23.6734C45.994 23.7113 45.6862 23.7481 45.3636 23.7854C45.2639 23.7968 45.1562 23.8081 45.0529 23.8193C44.8228 23.8447 44.5883 23.8705 44.3412 23.8965C44.2334 23.9079 44.1185 23.9188 44.0085 23.9303C43.6608 23.966 43.2973 24.0004 42.919 24.0352C42.8041 24.0461 42.6922 24.0564 42.575 24.0675C42.0978 24.1109 41.6004 24.1533 41.0765 24.196C40.986 24.2032 40.8897 24.2103 40.7974 24.2185C40.3448 24.2546 39.8748 24.2905 39.3886 24.3264C39.2361 24.3382 39.0839 24.3487 38.9278 24.3603C38.3395 24.4032 37.7362 24.4444 37.1026 24.4869L32.5982 32.3391C33.2346 32.2973 33.8396 32.2551 34.4301 32.2121C34.5809 32.2012 34.7281 32.1902 34.8753 32.1791C35.369 32.1423 35.8467 32.1056 36.3059 32.069C36.392 32.0621 36.4825 32.0549 36.5668 32.0489C37.0929 32.0061 37.5934 31.9631 38.0743 31.9199C38.1883 31.9094 38.2966 31.8989 38.4075 31.8891C38.788 31.8542 39.1533 31.8188 39.5033 31.783C39.5696 31.7759 39.6467 31.7695 39.7122 31.7629C39.7558 31.7585 39.7928 31.7545 39.8359 31.7492C40.0808 31.7233 40.3122 31.6982 40.541 31.6724C40.6473 31.6606 40.7582 31.6486 40.8601 31.6371C41.1818 31.6003 41.4891 31.5626 41.7763 31.5261C41.7999 31.5229 41.8235 31.5197 41.847 31.5165C41.9354 31.5035 42.021 31.4899 42.1034 31.4747C42.1836 31.4595 42.2611 31.4437 42.3362 31.4257C42.383 31.4149 42.4266 31.4024 42.4716 31.3903C42.6144 31.3517 42.6799 31.3312 42.7414 31.3096C42.8033 31.2888 42.8629 31.266 42.9197 31.2424C42.9674 31.223 43.0132 31.2023 43.0576 31.1813C43.1382 31.1428 43.1899 31.1164 43.2387 31.0871C43.2898 31.0576 43.3369 31.027 43.382 30.9951C43.4207 30.9682 43.4548 30.9392 43.4894 30.9112C43.5713 30.8431 43.6174 30.7969 43.6589 30.7487C43.7078 30.6915 43.75 30.6325 43.7857 30.5704L48.2896 22.7173C48.225 22.8354 48.1303 22.9455 48.0118 23.0463Z" fill="#8BAC32"/>
<path d="M35.8898 24.1551C34.2039 23.371 32.624 22.6146 31.2114 21.9359C30.6629 21.6718 30.1337 21.4173 29.6158 21.1702C29.4562 21.0937 29.3003 21.0198 29.1431 20.9454C28.7769 20.7712 28.4144 20.5994 28.0618 20.4346C27.8765 20.3476 27.6921 20.2624 27.5097 20.1783C27.1899 20.0304 26.8721 19.886 26.5618 19.7465C26.3813 19.6659 26.2003 19.5845 26.0236 19.5064C25.915 19.4582 25.8021 19.4067 25.6954 19.3598C25.3715 19.2189 25.052 19.0835 24.7355 18.9533C24.6803 18.9297 24.6253 18.9084 24.5706 18.8857C24.4577 18.8401 24.3453 18.7975 24.2322 18.7555C24.1236 18.7154 24.0151 18.6776 23.9077 18.6414C23.8628 18.6258 23.8186 18.6132 23.7742 18.5984C23.7555 18.5919 23.7372 18.5863 23.719 18.5807C23.6751 18.5667 23.6308 18.5519 23.5869 18.5379C23.4788 18.5046 23.3716 18.4729 23.2645 18.4435C23.157 18.4132 23.0496 18.3852 22.9436 18.3597C22.9032 18.3496 22.8623 18.3409 22.8215 18.3321C22.8028 18.3278 22.7842 18.3236 22.7656 18.3193C22.7202 18.3086 22.6733 18.2975 22.6284 18.2877C22.5272 18.2664 22.4265 18.2461 22.3278 18.2291C22.2327 18.2124 22.1382 18.1966 22.0459 18.1829C22.0044 18.1769 21.9624 18.1722 21.9209 18.1662C21.8509 18.1569 21.8183 18.1526 21.7863 18.1492C21.706 18.1401 21.6267 18.1328 21.5484 18.1272C21.4746 18.1213 21.4032 18.1175 21.3317 18.1137C21.2643 18.1111 21.1974 18.1093 21.1325 18.1087C21.041 18.1083 20.994 18.1089 20.9484 18.1099C20.8907 18.112 20.8344 18.1145 20.7786 18.1178C20.7251 18.121 20.6725 18.126 20.6208 18.1304C20.571 18.1361 20.522 18.1413 20.474 18.1482C20.3976 18.1599 20.3662 18.1654 20.3361 18.1713C20.2922 18.1793 20.248 18.1886 20.2064 18.1987C20.1644 18.208 20.1234 18.219 20.0829 18.2308C20.0424 18.2427 20.0033 18.2549 19.9655 18.2674C19.9391 18.2757 19.9129 18.2863 19.8883 18.2958C19.8695 18.3032 19.8516 18.3101 19.8328 18.3175C19.7934 18.3333 19.755 18.3508 19.718 18.3687C19.6793 18.3876 19.6415 18.4083 19.6051 18.4293C19.5653 18.4523 19.5282 18.476 19.4921 18.5015C19.4715 18.5157 19.454 18.5315 19.4347 18.5461C19.4031 18.5713 19.3872 18.5817 19.3744 18.5937C19.3285 18.6341 19.2862 18.6769 19.2472 18.7214C19.197 18.7804 19.1515 18.8436 19.1139 18.9104L14.6095 26.7625C14.6862 26.6294 14.7885 26.5126 14.9137 26.4114C15.0583 26.2979 15.2083 26.2136 15.384 26.148C15.5451 26.085 15.7273 26.0387 15.9258 26.0084C16.138 25.9759 16.3543 25.9607 16.5859 25.9598C16.835 25.9592 17.1014 25.9786 17.3798 26.013C17.6883 26.0531 17.9704 26.1038 18.2629 26.1705C18.2816 26.1748 18.3002 26.179 18.3188 26.1833C18.611 26.2513 18.9108 26.3346 19.216 26.4332C19.2342 26.4388 19.2516 26.4449 19.2699 26.4506C19.5861 26.5543 19.9076 26.6712 20.2311 26.8055C20.6515 26.9796 21.0825 27.1661 21.5192 27.3585C21.6978 27.4379 21.8791 27.5179 22.0606 27.6002C22.3709 27.7398 22.6841 27.8822 23.0039 28.0302C23.1878 28.1146 23.3707 28.1994 23.5579 28.2877C23.911 28.4533 24.2725 28.6234 24.6387 28.7976C24.7964 28.8728 24.9504 28.9456 25.1114 29.0224C25.6298 29.2704 26.1576 29.5245 26.707 29.7881C28.1196 30.4668 29.6995 31.2232 31.3854 32.0073L35.8898 24.1551Z" fill="#CDFD4A"/>
<path d="M26.7068 29.7869C28.1194 30.4656 29.6993 31.222 31.3852 32.0061C31.2206 32.175 31.0597 32.3383 30.879 32.5073L30.2901 33.0794C26.3041 32.8254 23.0998 32.5634 20.7643 32.3022C19.0097 32.097 17.4082 31.5032 16.2746 30.6277C15.3049 29.8781 14.6799 28.9457 14.4804 27.9281C14.3051 27.0525 14.6158 26.4366 15.3829 26.1473C15.7095 26.0211 16.1171 25.959 16.5848 25.9591C17.6023 25.9594 18.8985 26.2526 20.2309 26.8043C22.1838 27.6109 24.2865 28.6209 26.7068 29.7869ZM20.4503 31.5262C22.8924 31.8021 26.2848 32.0779 30.5611 32.3387C29.1073 31.6607 27.7484 31.0031 26.5152 30.4091C24.107 29.2499 22.0365 28.2537 20.1297 27.469C18.9821 26.9953 17.8862 26.7412 17.043 26.7407C16.6828 26.7409 16.3633 26.7833 16.1174 26.8814C15.5678 27.0936 15.3558 27.5243 15.4799 28.1674C15.647 28.9728 16.0891 29.6586 16.8068 30.2096C17.6868 30.8897 18.9777 31.3557 20.4503 31.5262Z" fill="#E0FF8B"/>
<path d="M49.0536 21.286C49.0281 21.2419 49.0016 21.196 48.9734 21.1511C48.9446 21.1053 48.9154 21.0587 48.8845 21.0131C48.8525 20.9657 48.82 20.9175 48.7853 20.8694C48.7225 20.7844 48.6995 20.7527 48.6751 20.7205C48.6357 20.6682 48.5941 20.6161 48.5524 20.5639C48.5079 20.5088 48.4625 20.4542 48.4144 20.3988C48.3647 20.3409 48.3124 20.2822 48.26 20.2235C48.2159 20.1751 48.1709 20.1271 48.1241 20.078C48.1111 20.0635 48.0978 20.0504 48.0853 20.0368C48.0413 19.9907 47.9969 19.9458 47.9517 19.9015C47.9084 19.8584 47.8647 19.8167 47.8201 19.7754C47.7778 19.7363 47.7347 19.6977 47.6917 19.6591C47.6509 19.6225 47.6093 19.5865 47.5674 19.5518C47.5358 19.5251 47.5038 19.4996 47.4726 19.4737C47.4082 19.422 47.3696 19.3912 47.3306 19.3617C47.293 19.3326 47.2546 19.304 47.2161 19.2754C47.1768 19.2473 47.1384 19.2187 47.0982 19.1911C47.0561 19.1623 47.0141 19.1334 46.9725 19.1055C46.924 19.0734 46.876 19.0422 46.8271 19.0116C46.8071 18.9989 46.7853 18.9872 46.7653 18.9745C46.6984 18.9346 46.6588 18.9101 46.6184 18.8861C46.501 18.8188 46.3817 18.7561 46.2598 18.6971C46.1828 18.6596 46.1053 18.6235 46.0267 18.5892C45.9398 18.5528 45.9003 18.5363 45.8608 18.5199C45.8112 18.5 45.7607 18.4806 45.7108 18.4621C45.6622 18.444 45.6128 18.4263 45.563 18.41C45.5127 18.3929 45.4629 18.3766 45.4113 18.3614C45.3552 18.3441 45.2982 18.3274 45.2417 18.3115C45.2207 18.3052 45.1993 18.3002 45.1788 18.2947C45.1433 18.2852 45.1069 18.2761 45.0714 18.2666C45.0137 18.2526 44.9564 18.2395 44.8997 18.2272C44.8402 18.2142 44.7809 18.2034 44.7215 18.1926C44.6608 18.1815 44.5998 18.1717 44.5397 18.1637C44.5185 18.1609 44.4973 18.1582 44.476 18.1554C44.4214 18.1488 44.3884 18.1437 44.3564 18.1402C44.2946 18.1332 44.2338 18.1278 44.1721 18.123C44.1104 18.1182 44.0493 18.1143 43.9878 18.1117C43.9249 18.1087 43.863 18.1075 43.8011 18.1063C43.7096 18.106 43.6613 18.1062 43.6125 18.1078C43.549 18.1098 43.4847 18.1123 43.4213 18.1166C43.3566 18.1205 43.292 18.1266 43.2274 18.1327C43.1611 18.1398 43.0952 18.1478 43.0299 18.1567C42.9429 18.1699 42.8848 18.1792 42.8276 18.1903C42.7576 18.203 42.6886 18.2175 42.6205 18.2336C42.5494 18.2505 42.4779 18.2686 42.4083 18.288C42.3788 18.297 42.349 18.3073 42.3195 18.3162C42.2531 18.3372 42.2214 18.3463 42.1907 18.3571C42.1148 18.3836 42.0385 18.4115 41.9651 18.4423C41.886 18.4753 41.8078 18.51 41.7321 18.5468C41.712 18.5561 41.6935 18.5679 41.6748 18.5776C41.5836 18.6256 41.5353 18.65 41.4894 18.6765C41.4011 18.7275 41.3161 18.7824 41.234 18.8401C41.1833 18.8763 41.1332 18.9134 41.0848 18.9517C40.8926 19.1008 40.7035 19.2573 40.5171 19.4203C40.4903 19.4439 40.4651 19.4723 40.4383 19.4959C40.0793 19.814 39.7227 20.1584 39.3642 20.5236C39.2768 20.6122 39.1845 20.7082 39.0963 20.7995C38.7493 21.1604 38.3958 21.5342 38.0224 21.9334C37.3888 22.6121 36.6842 23.3676 35.8891 24.1523C35.725 24.3221 35.5636 24.4846 35.3828 24.6536L30.879 32.5066C31.0606 32.3372 31.2206 32.1743 31.3852 32.0054C32.1795 31.2212 32.8836 30.4648 33.5185 29.7864C33.8932 29.3854 34.2445 29.0139 34.5933 28.6521C34.6827 28.5589 34.7726 28.4666 34.8604 28.3766C35.22 28.0096 35.5745 27.6676 35.9344 27.3489C36.1475 27.1601 36.3609 26.9757 36.5809 26.8047C36.749 26.6719 36.933 26.5565 37.1271 26.4548C37.3631 26.3335 37.5678 26.25 37.7815 26.1821C38.0361 26.1032 38.2632 26.0506 38.4981 26.0154C38.7521 25.9773 39.0006 25.9597 39.2533 25.9593C39.4831 25.9594 39.7161 25.975 39.9496 26.0053C40.2061 26.0397 40.4405 26.0856 40.6749 26.1477C40.9476 26.2201 41.2143 26.312 41.4754 26.4223C41.744 26.5374 41.9931 26.6649 42.2339 26.81C42.5027 26.9735 42.737 27.1373 42.962 27.3191C43.1966 27.5093 43.4143 27.7104 43.6209 27.9283C43.8609 28.18 44.067 28.427 44.2423 28.6665C44.4258 28.9185 44.567 29.151 44.6746 29.3753C44.7851 29.6048 44.858 29.8191 44.899 30.024C44.9424 30.2472 44.9506 30.4434 44.9232 30.6278C44.8964 30.8015 44.8384 30.9631 44.7534 31.1138L49.2573 23.2608C49.3437 23.1104 49.4003 22.9484 49.4275 22.7757C49.4356 22.7237 49.4404 22.6701 49.4431 22.6166C49.4461 22.5479 49.445 22.478 49.4394 22.4062C49.4352 22.3509 49.4277 22.294 49.4181 22.2373C49.3989 22.1421 49.3932 22.1142 49.387 22.0855C49.3753 22.0391 49.3625 21.9911 49.348 21.944C49.3337 21.8991 49.3194 21.8543 49.3023 21.8087C49.2862 21.7649 49.2693 21.7216 49.2505 21.677C49.2322 21.6333 49.213 21.5901 49.1925 21.5465C49.1638 21.4869 49.146 21.4521 49.1277 21.4164C49.1024 21.3745 49.0783 21.3307 49.0536 21.286Z" fill="#ACD53E"/>
<path d="M43.6217 27.9292C44.5904 28.9472 45.0353 29.8796 44.9253 30.6291C44.7893 31.5055 43.8769 32.0992 42.3579 32.3042C40.3216 32.5653 37.4176 32.8274 33.7237 33.0814C33.1873 33.1163 32.6259 33.1379 32.0372 33.1383C31.448 33.1378 30.8702 33.1169 30.2932 33.0817L30.8821 32.5096C31.0637 32.3401 31.2237 32.1773 31.3883 32.0084C32.1826 31.2241 32.8867 30.4677 33.5216 29.7894C34.6129 28.6236 35.5477 27.6127 36.5836 26.8069C37.2829 26.2541 38.2384 25.9611 39.2559 25.9614C39.7223 25.9612 40.2027 26.0233 40.6762 26.1495C41.7759 26.4383 42.7913 27.053 43.6217 27.9292ZM43.9155 30.2121C44.0002 29.6609 43.6562 28.975 42.8991 28.1697C42.2844 27.5269 41.5788 27.0948 40.7856 26.883C40.4257 26.7837 40.0577 26.7421 39.697 26.7414C38.8538 26.7409 38.0457 26.9892 37.4455 27.4697C36.438 28.2546 35.5161 29.258 34.433 30.4099C33.8808 31.0035 33.2756 31.6612 32.6003 32.3397C36.5765 32.0787 39.6526 31.8026 41.7785 31.5267C43.0582 31.3572 43.8133 30.8912 43.9155 30.2121Z" fill="#E0FF8B"/>
</svg>
