<svg width="102" height="20" viewBox="0 0 102 20" fill="none" xmlns="http://www.w3.org/2000/svg">
<path d="M9.41996 0.914062C4.67615 0.914062 0.830078 4.77712 0.830078 9.54177C0.830078 14.3064 4.67615 18.1692 9.41996 18.1692C14.1637 18.1692 18.0094 14.3065 18.0094 9.54177C18.0094 4.77703 14.1635 0.914062 9.41996 0.914062ZM12.3267 12.4621C9.40779 15.3941 5.73975 16.4635 4.13393 14.8508C2.52819 13.2385 3.59338 9.55394 6.51286 6.62187C9.43185 3.68984 13.0998 2.62013 14.7057 4.23247C16.3115 5.84482 15.2463 9.52942 12.3267 12.4621Z" fill="white" fill-opacity="0.5"/>
<path d="M64.7266 10.1078C64.7266 13.3017 62.9408 15.8504 58.5278 15.8504H54.0117V4.16797H58.5278C63.0438 4.16797 64.7266 6.91398 64.7266 10.1078ZM62.3913 10.0092C62.3913 7.98304 61.2237 6.2284 58.7854 6.2284H56.5334V13.6372H58.7854C61.2237 13.6372 62.3913 12.0354 62.3913 10.0092Z" fill="white" fill-opacity="0.5"/>
<path d="M75.8164 4.16797L75.8244 13.5194V13.7562C75.8244 14.8479 76.6242 15.7363 77.7159 15.7363H79.0953V13.6825C78.4899 13.8164 78.0508 13.7564 78.0508 13.0448L78.1313 4.16798L75.8164 4.16797Z" fill="white" fill-opacity="0.5"/>
<path d="M80.1016 4.16797L80.1097 13.5194V13.7562C80.1097 14.8479 80.9095 15.7363 82.0012 15.7363H83.3805V13.6825C82.7752 13.8164 82.3361 13.7564 82.3361 13.0448L82.4165 4.16798L80.1016 4.16797Z" fill="white" fill-opacity="0.5"/>
<path d="M37.377 4.16797L37.3851 13.5194V13.7562C37.3851 14.8479 38.1849 15.7363 39.2766 15.7363H40.6559V13.6825C40.0505 13.8164 39.6115 13.7564 39.6115 13.0448L39.6919 4.16798L37.377 4.16797Z" fill="white" fill-opacity="0.5"/>
<path d="M45.862 6.40039C43.004 6.40039 41.2891 8.51367 41.2891 11.1118C41.2891 13.71 43.004 15.8232 45.862 15.8232C48.7201 15.8232 50.4348 13.7101 50.4348 11.1118C50.4348 8.51357 48.72 6.40039 45.862 6.40039ZM45.862 13.8139C44.355 13.8139 43.5063 12.6015 43.5063 11.1118C43.5063 9.62215 44.355 8.40971 45.862 8.40971C47.3691 8.40971 48.2177 9.6222 48.2177 11.1118C48.2177 12.6014 47.369 13.8139 45.862 13.8139Z" fill="white" fill-opacity="0.5"/>
<path d="M31.3789 11.5215H32.9428C32.5823 12.8608 31.8285 13.5861 30.2695 13.5861C28.3914 13.5861 27.0306 12.4521 27.0306 9.92174C27.0306 8.55975 27.9869 6.16004 30.3554 6.16004C31.7489 6.16004 32.9108 6.73702 33.3298 7.98999H35.7552C35.3894 5.91808 33.5126 4.09961 30.117 4.09961C26.2631 4.09961 24.3359 7.3126 24.3359 10.077C24.3359 13.6374 26.9837 15.8506 29.806 15.8506C32.0658 15.8506 33.0391 14.3198 33.3996 13.4441C33.434 13.3582 33.4634 13.2577 33.6008 13.3094C33.7038 13.3436 33.6887 13.4469 33.6372 13.5844C33.3968 14.1683 33.3775 14.5285 33.3775 14.9234V15.7133H35.7815V9.5984H31.3789V11.5215Z" fill="white" fill-opacity="0.5"/>
<path d="M74.7735 11.3193C74.7735 13.8946 73.0735 15.9897 70.2402 15.9897C67.407 15.9897 65.707 13.8946 65.707 11.3193C65.707 8.74394 67.407 6.64844 70.2402 6.64844C73.0735 6.64844 74.7735 8.74354 74.7735 11.3193ZM72.5756 11.3193C72.5756 9.84231 71.7342 8.64032 70.2402 8.64032C68.7463 8.64032 67.9049 9.8423 67.9049 11.3193C67.9049 12.7963 68.7463 13.9978 70.2402 13.9978C71.7342 13.9978 72.5756 12.7959 72.5756 11.3193Z" fill="white" fill-opacity="0.5"/>
<path d="M87.6055 10.5122C89.2197 10.4262 90.6449 10.5808 90.6277 9.73948C90.6105 9.12135 90.3702 8.43428 88.8075 8.43428C87.2621 8.43428 86.8671 9.06955 86.747 9.80803H84.5834C84.8925 7.52442 86.85 6.64844 88.8763 6.64844C90.9539 6.64844 92.8256 7.33552 92.8256 10.8382V15.8522H90.6277V15.2169C90.6277 14.8049 90.7307 14.5131 90.8853 14.221C90.9539 14.0664 91.0227 13.8946 90.8681 13.8261C90.6964 13.7575 90.6277 13.9293 90.5933 14.015C90.0782 15.2684 89.0823 15.9897 87.4682 15.9897C85.7682 15.9897 84.3086 14.8905 84.3086 13.3626C84.3086 11.3535 85.7854 10.6151 87.6055 10.5122ZM87.9833 11.9717C87.0389 12.0745 86.5066 12.4352 86.5066 13.2422C86.5066 13.9978 87.2278 14.4785 88.2409 14.3414C89.4085 14.1867 90.6105 13.4311 90.6277 11.1818C90.1125 11.7485 89.2883 11.8342 87.9833 11.9717Z" fill="white" fill-opacity="0.5"/>
<path d="M96.5018 8.55463C97.0513 7.30084 97.5493 6.64844 99.7641 6.64844V8.88064C97.2058 8.70927 96.4674 9.61913 96.4674 11.9203V15.8522H94.2695V6.78594H96.4674V7.28371C96.4674 7.67866 96.3644 8.0222 96.2099 8.33146C96.1412 8.48569 96.0897 8.69174 96.2958 8.72641C96.3988 8.74355 96.4847 8.60604 96.5018 8.55463Z" fill="white" fill-opacity="0.5"/>
</svg>
