<svg width="20" height="20" viewBox="0 0 20 20" fill="none" xmlns="http://www.w3.org/2000/svg">
<path fill-rule="evenodd" clip-rule="evenodd" d="M20 10C20 15.5417 15.5417 20 10 20C4.4583 20 0 15.5417 0 10C0 4.4583 4.4583 0 10 0C15.5417 0 20 4.4583 20 10ZM7.87484 15.9596C4.62484 14.793 2.95814 11.168 4.16654 7.95957C4.79154 6.20957 6.16654 4.87627 7.87484 4.25127C8.04154 4.16797 8.12484 4.04297 8.12484 3.83457V3.25127C8.12484 3.08457 8.04154 2.95957 7.87484 2.91797C7.83314 2.91797 7.74984 2.91797 7.70814 2.95957C3.74984 4.20957 1.58314 8.41797 2.83314 12.3763C3.58314 14.7096 5.37484 16.5013 7.70814 17.2513C7.87484 17.3346 8.04154 17.2513 8.08314 17.0846C8.12484 17.043 8.12484 17.0013 8.12484 16.918V16.3346C8.12484 16.2096 7.99984 16.043 7.87484 15.9596ZM12.2915 2.95957C12.1248 2.87627 11.9581 2.95957 11.9165 3.12627C11.8748 3.16797 11.8748 3.20957 11.8748 3.29297V3.87627C11.8748 4.04297 11.9998 4.20957 12.1248 4.29297C15.3748 5.45957 17.0415 9.08457 15.8331 12.293C15.2081 14.043 13.8331 15.3763 12.1248 16.0013C11.9581 16.0846 11.8748 16.2096 11.8748 16.418V17.0013C11.8748 17.168 11.9581 17.293 12.1248 17.3346C12.1665 17.3346 12.2498 17.3346 12.2915 17.293C16.2498 16.043 18.4165 11.8346 17.1665 7.87627C16.4165 5.50127 14.5831 3.70957 12.2915 2.95957ZM12.7503 11.584C12.7503 10.1257 11.8753 9.62568 10.1253 9.41738C8.87529 9.25068 8.62529 8.91739 8.62529 8.33398C8.62529 7.75058 9.04199 7.37568 9.87529 7.37568C10.6253 7.37568 11.042 7.62568 11.2503 8.25068C11.292 8.37568 11.417 8.45898 11.542 8.45898H12.2086C12.3753 8.45898 12.5003 8.33398 12.5003 8.16738V8.12568C12.3336 7.20898 11.5836 6.50068 10.6253 6.41738V5.41738C10.6253 5.25068 10.5003 5.12568 10.292 5.08398H9.66699C9.50029 5.08398 9.37529 5.20898 9.33359 5.41738V6.37568C8.08359 6.54238 7.29199 7.37568 7.29199 8.41738C7.29199 9.79238 8.12529 10.334 9.87529 10.5424C11.042 10.7507 11.417 11.0007 11.417 11.6674C11.417 12.3341 10.8336 12.7924 10.042 12.7924C8.95859 12.7924 8.58359 12.334 8.45859 11.709C8.41699 11.5424 8.29199 11.459 8.16699 11.459H7.45859C7.29199 11.459 7.16699 11.584 7.16699 11.7507V11.7924C7.33359 12.834 8.00029 13.584 9.37529 13.7924V14.7924C9.37529 14.959 9.50029 15.084 9.70859 15.1257H10.3336C10.5003 15.1257 10.6253 15.0007 10.667 14.7924V13.7924C11.917 13.584 12.7503 12.709 12.7503 11.584Z" fill="white" fill-opacity="0.5"/>
</svg>
